<?xml version="1.0" standalone="no"?>
<!DOCTYPE svg PUBLIC "-//W3C//DTD SVG 1.1//EN" "http://www.w3.org/Graphics/SVG/1.1/DTD/svg11.dtd" >
<svg>
<metadata>
Created by FontForge 20090622 at Tue Aug 25 18:13:41 2015
 By deploy user
Copyright (c) Nick's Fonts &#38; A.Gophmann (cyr.code page), 2009. All rights reserved.
</metadata>
<defs>
<font id="Larisascript" horiz-adv-x="918" >
  <font-face 
    font-family="Larisa script"
    font-weight="400"
    font-stretch="normal"
    units-per-em="1000"
    panose-1="2 7 5 5 6 3 10 9 1 3"
    ascent="611"
    descent="-389"
    x-height="357"
    cap-height="605.5"
    bbox="-220 -482 1299 766"
    underline-thickness="20"
    underline-position="-113"
    unicode-range="U+0020-U+FB02"
  />
<missing-glyph horiz-adv-x="0" 
 />
    <glyph glyph-name=".notdef" horiz-adv-x="0" 
 />
    <glyph glyph-name=".null" horiz-adv-x="0" 
 />
    <glyph glyph-name="nonmarkingreturn" horiz-adv-x="333" 
 />
    <glyph glyph-name="space" unicode=" " horiz-adv-x="300" 
 />
    <glyph glyph-name="exclam" unicode="!" horiz-adv-x="210" 
d="M39 67q15 0 27.5 -10t12.5 -26t-12.5 -26t-27.5 -10t-27 10t-12 26t12 26t27 10zM210 520l-144 -433h-32l121 435z" />
    <glyph glyph-name="quotedbl" unicode="&#x22;" horiz-adv-x="250" 
d="M197 520l-133 -180h-28l102 180h59zM286 520l-134 -180h-27l101 180h60z" />
    <glyph glyph-name="numbersign" unicode="#" horiz-adv-x="804" 
d="M680 399q-20 0 -35 -10t-24.5 -25.5t-14 -34t-4.5 -35.5q0 -31 17 -51.5t49 -20.5q18 0 32.5 9.5t24.5 24.5t15.5 32.5t5.5 33.5q0 30 -16.5 53.5t-49.5 23.5zM351 464q-10 -22 -24.5 -57.5t-32.5 -75.5t-39.5 -81t-45.5 -74t-50 -53.5t-54 -20.5q-26 0 -46.5 14
t-34.5 34l12 10q12 -16 28.5 -28.5t37.5 -12.5q24 0 49 21.5t49 56t46 76.5t40.5 83l33.5 76t25 55q-11 -4 -24 -4q-17 0 -34.5 2.5t-35.5 2.5q-17 0 -33.5 -5t-29.5 -15t-21 -24.5t-8 -32.5q0 -23 14.5 -42t38.5 -19q17 0 31 9l8 -13q-17 -12 -40 -12q-30 0 -51 21t-21 51
q0 24 10.5 42.5t28 32t39 20.5t43.5 7q19 0 37.5 -2t37.5 -2q9 0 17 3t16 8l107 -307l58 174q13 39 30 73.5t49 62.5l16 -15q-35 -26 -51 -56.5t-29 -69.5l-75 -222h-14l-108 309v0zM755 187l-10 -32h-214l10 32h214zM668 205q-21 0 -39.5 8t-32 22t-21 32t-7.5 39
q0 23 9 43t24 34.5t35 23t43 8.5q21 0 39.5 -8t32 -22t21.5 -32.5t8 -39.5q0 -23 -9 -43t-24.5 -34.5t-36 -22.5t-42.5 -8z" />
    <glyph glyph-name="dollar" unicode="$" horiz-adv-x="413" 
d="M160 46q13 -3 25 -3q16 0 34 5l56 182l-46 42l-69 -226v0zM237 54q30 13 50 39t20 61q0 34 -21 61l-49 -161v0zM264 441q-21 -6 -37 -21t-16 -41t20 -49l33 111v0zM337 434q-10 6 -21 8.5t-22 2.5h-13l-38 -128l46 -42l48 159v0zM376 379q0 14 -7 26t-18 21l-50 -164
q18 -20 29 -43.5t11 -55.5q0 -25 -9 -46t-24 -37.5t-35 -28t-42 -17.5l-24 -79h-17l24 75q-8 -1 -14.5 -1.5t-14.5 -0.5t-15 0.5t-14 1.5l-23 -75h-17l24 79q-29 8 -53.5 25t-40.5 43l-8 -21l-14 6l40 102l14 -5l-2 -5q-6 -17 -6 -34q0 -35 22 -59.5t53 -35.5l71 234
q-17 16 -28.5 34.5t-11.5 41.5q0 41 28.5 66.5t65.5 32.5l11 38h16l-10 -35h7q26 0 49 -10l13 45h17l-16 -51q22 -13 35 -30l7 17l14 -6l-24 -63q-5 -12 -14 -20l-10 12q11 11 11 23z" />
    <glyph glyph-name="percent" unicode="%" horiz-adv-x="462" 
d="M54 294q0 -12 2.5 -25t8.5 -24t16 -18t24 -7q22 0 39 13.5t28 33t16.5 42t5.5 41.5q0 12 -2.5 25t-8.5 24t-16 18t-24 7q-23 0 -39.5 -13t-27.5 -32.5t-16.5 -42.5t-5.5 -42zM268 102q0 -12 2.5 -25t8.5 -24t16 -18t24 -7q22 0 39 13.5t28 33t16.5 42t5.5 41.5
q0 12 -2.5 25t-8.5 24t-16 18t-24 7q-23 0 -39.5 -13t-27.5 -32.5t-16.5 -42.5t-5.5 -42zM304 -5q-18 0 -30.5 8.5t-20.5 21t-11.5 28.5t-3.5 31q0 42 17.5 78t44.5 66q16 17 35 27t37 10t30.5 -8.5t20.5 -21t11.5 -28.5t3.5 -31q0 -42 -17.5 -77.5t-44.5 -66.5
q-16 -17 -34.5 -27t-37.5 -10zM158 457q16 0 28 -5t35 -5q44 0 84.5 18t66.5 54h24l-262 -519h-53l266 465q-26 -21 -57 -32t-64 -11h-14q12 -21 12 -54q0 -42 -17.5 -77.5t-44.5 -66.5q-16 -17 -35 -27t-37 -10t-30.5 8.5t-20.5 21t-11.5 28.5t-3.5 31q0 42 17.5 78
t44.5 66q16 17 34.5 27t37.5 10z" />
    <glyph glyph-name="ampersand" unicode="&#x26;" horiz-adv-x="781" 
d="M274 345q-10 0 -19 -0.5t-18 -2.5q13 -14 31.5 -24t42.5 -10q8 0 15 2.5t7 7.5q0 6 -6.5 11t-15.5 8.5t-19.5 5.5t-17.5 2zM310 293q-27 0 -50.5 11t-41.5 28q-4 4 -5 6q-67 -18 -104 -70t-37 -121q0 -48 18.5 -92t50 -77.5t74.5 -53t92 -19.5q39 0 77.5 11.5t69 34.5
t49.5 56.5t19 77.5q0 28 -10.5 48.5t-27.5 33.5t-39.5 19t-46.5 6q-27 0 -53.5 -7.5t-48 -21t-34.5 -33.5t-13 -44q0 -22 11.5 -40.5t33.5 -26.5l-5 -15q-26 9 -40.5 32.5t-14.5 49.5q0 42 20.5 68.5t55 42.5t78.5 25t91 16q37 6 82 14t84 25.5t65.5 47t26.5 78.5
q0 20 -7.5 38t-20 31.5t-29.5 21t-36 7.5q-23 0 -42 -10.5t-31 -28.5l-12 3q8 24 32 37.5t48 13.5q50 0 84 -31t34 -81q0 -62 -30 -98t-74.5 -56.5t-96.5 -29l-96 -15.5q45 -13 70.5 -46.5t25.5 -78.5q0 -40 -20 -77q-26 -48 -86 -82.5t-155 -34.5q-49 0 -97.5 16.5
t-87 47.5t-62.5 74t-24 97q0 40 13.5 77t37.5 67t56.5 52.5t70.5 33.5q-25 34 -25 74q0 31 13 54.5t34 39.5t48 24t55 8q18 0 35 -5.5t30.5 -16t21.5 -26t8 -34.5q0 -28 -19 -46.5t-47 -18.5q-24 0 -44 18l11 11q15 -13 33 -13q20 0 33.5 16t13.5 36q0 16 -7.5 28t-19.5 20
t-26.5 11.5t-28.5 3.5q-49 0 -81.5 -32t-32.5 -81q0 -37 19 -65q12 2 24 3t24 1q11 0 24 -2.5t24 -7.5t18.5 -13t7.5 -20q0 -14 -12.5 -19.5t-25.5 -5.5z" />
    <glyph glyph-name="quotesingle" unicode="'" horiz-adv-x="161" 
d="M197 520l-133 -180h-28l102 180h59z" />
    <glyph glyph-name="parenleft" unicode="(" horiz-adv-x="282" 
d="M38 -44q0 -40 6.5 -69t21.5 -42l-5 -16q-20 10 -32 29t-18.5 41.5t-8.5 45.5t-2 43q0 50 9 106t26 113t39 110t48 96q10 17 23 35.5t29.5 34.5t37 26.5t46.5 10.5l-4 -16q-22 -4 -43.5 -25t-42.5 -56q-27 -44 -51 -103t-41 -123q-18 -65 -28 -127.5t-10 -113.5z" />
    <glyph glyph-name="parenright" unicode=")" horiz-adv-x="281" 
d="M243 392q0 39 -6.5 67.5t-20.5 42.5l5 16q19 -11 31 -29.5t18.5 -41t8.5 -45.5t2 -42q0 -50 -9 -106.5t-26 -113.5q-16 -57 -38 -110t-48 -95l-24 -35.5t-29.5 -34.5t-37 -26t-45.5 -11l5 16q21 4 42.5 25t42.5 55q26 45 50 104t41 123q18 64 28 127t10 114z" />
    <glyph glyph-name="asterisk" unicode="*" horiz-adv-x="260" 
d="M130 517q8 0 14 -8t6 -19q0 -12 -7.5 -33t-8.5 -54q28 17 42 34t25 24q8 4 17 4q12 0 16 -8q2 -2 2 -8q0 -14 -15 -23q-12 -7 -32 -10t-51 -19q15 -8 27.5 -12.5t23 -7l18.5 -4.5t14 -5q15 -10 15 -23q0 -2 -2 -8q-5 -8 -17 -8q-8 0 -16 5q-11 6 -25 23t-42 34
q1 -33 8.5 -54t7.5 -33q0 -11 -6 -19t-14 -8t-14 8t-6 19q0 14 7.5 32.5t8.5 53.5q-29 -18 -41.5 -33.5t-24.5 -23.5q-8 -4 -17 -4q-13 0 -17 8q-2 4 -2 8q0 13 16 23q11 6 32.5 9.5t50.5 19.5q-29 16 -50.5 20t-32.5 10q-8 4 -12 10.5t-4 12.5q0 2 2 8q5 8 17 8q8 0 16 -5
q13 -7 25 -23t42 -34q-1 35 -8.5 53.5t-7.5 32.5q0 11 6 19t14 8z" />
    <glyph glyph-name="plus" unicode="+" horiz-adv-x="415" 
d="M233 300h158v-52h-158v-158h-51v158h-158v52h158v158h51v-158z" />
    <glyph glyph-name="comma" unicode="," horiz-adv-x="167" 
d="M5 -78q34 3 61.5 24t35.5 56q-8 -7 -23 -7t-27 10t-12 26t12 26t27 10q17 0 29 -12.5t12 -29.5q0 -25 -10 -46.5t-26.5 -37t-38 -24.5t-45.5 -10l5 15v0z" />
    <glyph glyph-name="hyphen" unicode="-" horiz-adv-x="192" 
d="M168 208l-10 -33h-134l10 33h134z" />
    <glyph glyph-name="period" unicode="." horiz-adv-x="126" 
d="M39 67q15 0 27.5 -10t12.5 -26t-12.5 -26t-27.5 -10t-27 10t-12 26t12 26t27 10z" />
    <glyph glyph-name="slash" unicode="/" horiz-adv-x="354" 
d="M24 -81l284 601h22l-252 -601h-54z" />
    <glyph glyph-name="zero" unicode="0" horiz-adv-x="421" 
d="M68 201q0 -24 5.5 -50.5t18 -48.5t32.5 -36.5t49 -14.5q46 0 80 26.5t56 65.5t33 84.5t11 83.5q0 24 -5.5 50.5t-18 48.5t-32.5 36.5t-49 14.5q-46 0 -80 -26t-56 -65t-33 -84.5t-11 -84.5zM276 511q33 0 56 -15.5t37.5 -40t21 -54t6.5 -56.5q0 -78 -35 -147.5
t-86 -125.5q-26 -28 -59.5 -49t-71.5 -21q-33 0 -56 15.5t-37.5 39.5t-21 53.5t-6.5 56.5q0 78 35 147.5t86 126.5q26 27 59 48.5t72 21.5z" />
    <glyph glyph-name="one" unicode="1" horiz-adv-x="282" 
d="M150 486v16h27q25 0 50 4.5t48 15.5l7 -14l-14 -6l-132 -434q-2 -5 -3 -11t-1 -12q0 -15 10 -22t24 -7h18l-4 -16h-180l5 16q32 0 52 9t30 42l116 384q1 2 2.5 7t1.5 9q0 12 -10.5 15.5t-19.5 3.5h-27z" />
    <glyph glyph-name="two" unicode="2" horiz-adv-x="448" 
d="M360 378q0 22 -9 39t-24 28.5t-34 17.5t-39 6q-30 0 -60 -9t-55 -26t-40.5 -43t-15.5 -59q0 -29 17.5 -51t43.5 -33l-5 -15q-35 11 -59.5 37.5t-24.5 65.5t20.5 72t52.5 57t70 37t74 13q28 0 55.5 -8.5t49 -24.5t34.5 -40t13 -55q0 -38 -19.5 -74t-49 -68t-63.5 -58.5
t-62 -44.5l-154 -100h194q28 0 51.5 12t43.5 29l10 -12l-111 -102q-22 31 -57 31h-203l-4 14l188 133l60.5 44.5t55 51.5t40.5 61.5t16 73.5z" />
    <glyph glyph-name="three" unicode="3" horiz-adv-x="478" 
d="M229 531q22 -31 57 -31h187l5 -14l-186 -148q52 -9 86.5 -40.5t34.5 -83.5q0 -50 -24 -91t-62.5 -70.5t-85 -46t-91.5 -16.5q-43 0 -81.5 13t-68.5 45l52 47q14 -42 42.5 -64t73.5 -22q37 0 73 14.5t64 40t45 59.5t17 73q0 43 -30 67.5t-79 24.5q-22 0 -41 -6l-7 13
l204 163h-190q-29 0 -51.5 -11.5t-42.5 -28.5l-11 11z" />
    <glyph glyph-name="four" unicode="4" horiz-adv-x="482" 
d="M262 168l86 284l-299 -284h213zM156 16q30 0 48 11t27 40l20 65h-239l9 32l340 321l34.5 34.5t36.5 32.5l10 -11q-15 -14 -23.5 -30t-14.5 -35l-94 -308h42q28 0 52 15t44 33l10 -12l-111 -103q-9 14 -20 21.5t-28 9.5l-19 -64q-4 -9 -4 -23q0 -15 10 -22t24 -7h20
l-5 -16h-187l5 16h13v0z" />
    <glyph glyph-name="five" unicode="5" horiz-adv-x="472" 
d="M150 328q45 18 96 18q32 0 62 -9t53 -26t37 -41.5t14 -56.5q0 -49 -24 -90t-62 -70.5t-84.5 -46t-91.5 -16.5q-44 0 -82 13t-68 45l52 47q14 -41 42.5 -63.5t73.5 -22.5q36 0 71.5 14.5t64 40t46 59t17.5 71.5q0 26 -11 45.5t-29.5 33t-42.5 20t-51 6.5q-60 0 -113 -31
l-11 10l90 222h179q25 0 45 9t38 26l11 -10l-101 -140l-13 8q5 12 5 24q0 19 -12 30t-31 11h-117l-53 -130v0z" />
    <glyph glyph-name="six" unicode="6" horiz-adv-x="430" 
d="M358 198q0 27 -10 49t-26.5 38t-39.5 24.5t-48 8.5q-30 0 -60 -12t-53 -32.5t-37.5 -48t-14.5 -58.5q0 -56 35 -91t89 -35q34 0 64.5 11.5t52.5 32t35 49.5t13 64zM96 272q17 16 38.5 31.5t44.5 28t47 20t46 7.5q28 0 52.5 -9.5t42.5 -27t28.5 -41.5t10.5 -53
q0 -31 -10 -57t-26.5 -48.5t-38 -41.5t-44.5 -36q-29 -22 -60.5 -34.5t-65.5 -12.5q-33 0 -58.5 13t-43 34.5t-26.5 49.5t-9 59q0 60 25 117t65.5 105.5t91.5 86.5t104 60l6 -14q-74 -35 -131 -98.5t-89 -138.5z" />
    <glyph glyph-name="seven" unicode="7" horiz-adv-x="414" 
d="M0 0l5 16q14 0 24.5 1t20 5t18.5 12t20 21l321 401h-230q-29 0 -51.5 -12t-42.5 -30l-11 12l111 102q11 -16 24 -23.5t33 -7.5h157q20 0 35 7.5t30 18.5l10 -13q-8 -7 -14.5 -13.5t-11.5 -14.5l-291 -417q-6 -9 -7.5 -14.5t-1.5 -10.5q0 -12 12.5 -17.5t32.5 -6.5l-5 -16
h-188z" />
    <glyph glyph-name="eight" unicode="8" horiz-adv-x="411" 
d="M208 275l-50 -20.5t-50 -28t-38.5 -38.5t-15.5 -51q0 -27 14.5 -47t36 -33.5t47.5 -20t49 -6.5q22 0 46 7.5t44.5 21.5t33.5 33.5t13 44.5q0 24 -14 44t-34 37.5t-42.5 31.5zM230 484q-15 0 -30.5 -5t-27.5 -14t-19.5 -22.5t-7.5 -30.5q0 -31 27 -50l76 -53
q15 6 32.5 14.5t32.5 19.5t24.5 26t9.5 35q0 21 -11.5 36.5t-29 25t-38 14t-38.5 4.5zM263 298l39.5 -26t37 -28t27 -34.5t10.5 -45.5q0 -38 -21.5 -69.5t-54 -54.5t-70.5 -36t-72 -13q-27 0 -55 9t-51.5 26t-38 41t-14.5 54q0 35 17.5 64t45 51t60.5 35.5t63 18.5
q-14 9 -28 19t-26 22.5t-19.5 28t-7.5 33.5q0 29 16 51.5t40 38t52.5 23.5t53.5 8q19 0 40.5 -5t39 -15.5t29 -27t11.5 -39.5q0 -25 -12 -45t-30 -36t-40 -27.5t-42 -20.5z" />
    <glyph glyph-name="nine" unicode="9" horiz-adv-x="435" 
d="M66 307q0 -26 9.5 -46.5t25.5 -34.5t37.5 -22t45.5 -8q30 0 62.5 13.5t58.5 36.5t43 53t17 64q0 53 -33.5 84t-84.5 31q-37 0 -70 -13t-57.5 -36t-39 -54t-14.5 -68zM331 248q-16 -16 -37 -31.5t-45 -27.5t-49 -19.5t-49 -7.5q-27 0 -50 9t-40 25t-27 39t-10 50
q0 48 25 90.5t61 70.5q40 32 81.5 54.5t90.5 22.5q31 0 55 -11.5t40.5 -31t25 -46t8.5 -55.5q0 -31 -9 -65q-15 -54 -44.5 -102t-69 -89t-86.5 -72.5t-98 -52.5l-6 15q37 14 71.5 39.5t65 57t55 67.5t41.5 71z" />
    <glyph glyph-name="colon" unicode=":" horiz-adv-x="126" 
d="M39 67q15 0 27.5 -10t12.5 -26t-12.5 -26t-27.5 -10t-27 10t-12 26t12 26t27 10zM87 228q15 0 27 -10t12 -26q0 -17 -12 -27t-27 -10t-27.5 10t-12.5 27q0 16 12.5 26t27.5 10z" />
    <glyph glyph-name="semicolon" unicode=";" horiz-adv-x="167" 
d="M5 -78q34 3 61.5 24t35.5 56q-8 -7 -23 -7t-27 10t-12 26t12 26t27 10q17 0 29 -12.5t12 -29.5q0 -25 -10 -46.5t-26.5 -37t-38 -24.5t-45.5 -10l5 15v0zM128 228q15 0 27 -10t12 -26q0 -17 -12 -27t-27 -10t-27 10t-12 27q0 16 12 26t27 10z" />
    <glyph glyph-name="less" unicode="&#x3c;" horiz-adv-x="361" 
d="M74 274l287 -126v-55l-361 157v47l361 158v-56z" />
    <glyph glyph-name="equal" unicode="=" horiz-adv-x="367" 
d="M367 372v-51h-367v51h367zM367 227v-51h-367v51h367z" />
    <glyph glyph-name="greater" unicode="&#x3e;" horiz-adv-x="361" 
d="M0 399v56l361 -158v-47l-361 -157v55l287 126z" />
    <glyph glyph-name="question" unicode="?" horiz-adv-x="329" 
d="M100 87q5 43 20 75.5t34 58t40 46.5t38 40.5t28.5 39.5t11.5 44q0 22 -9.5 38t-24.5 26.5t-34 15.5t-39 5q-23 0 -46 -5t-43.5 -15.5t-36 -26.5t-24.5 -39l-15 13q11 27 30 48.5t43 36.5t51.5 23.5t55.5 8.5q27 0 53.5 -7.5t48 -22t34.5 -37t13 -52.5q0 -36 -13.5 -62
t-34.5 -47.5t-46 -40.5t-48.5 -42t-42 -52t-26.5 -70h-18v0zM99 67q15 0 27 -10t12 -26t-12 -26t-27 -10t-27 10t-12 26t12 26t27 10z" />
    <glyph glyph-name="at" unicode="@" horiz-adv-x="505" 
d="M348 119q31 0 57 21.5t44.5 52t29 65t10.5 61.5q0 42 -14 76.5t-39 58.5t-59.5 37.5t-76.5 13.5q-56 0 -103 -21.5t-81.5 -58.5t-54 -86t-19.5 -104q0 -45 16.5 -85.5t45 -71.5t68 -49t85.5 -18q67 0 127.5 31t97.5 88l13 -9q-39 -60 -102.5 -93t-135.5 -33
q-53 0 -99.5 18.5t-81.5 51t-55.5 78t-20.5 99.5q0 61 25 112.5t66.5 88t95.5 57t113 20.5q45 0 82.5 -14.5t65 -40.5t42.5 -63.5t15 -82.5q0 -30 -11.5 -67.5t-32 -70.5t-49.5 -55.5t-64 -22.5q-31 0 -48 21.5t-17 50.5q-9 -12 -20 -25t-24.5 -24t-29 -18t-31.5 -7
q-19 0 -33.5 8t-24.5 21.5t-15 30.5t-5 34q0 36 16.5 74.5t44 71t63 53.5t73.5 21q24 0 41 -15.5t17 -44.5l25 58h55l-15 -32.5l-22.5 -48l-25.5 -56l-24 -56t-18 -46.5t-7 -28q0 -11 6.5 -19t18.5 -8zM298 399q-20 0 -38.5 -12.5t-35 -33t-30.5 -46.5t-23.5 -52t-15 -50
t-5.5 -41q0 -6 1.5 -14t4.5 -15.5t8.5 -12.5t13.5 -5q30 0 59 28t51.5 67t36.5 80t14 67q0 19 -11.5 29.5t-29.5 10.5z" />
    <glyph glyph-name="A" unicode="A" 
d="M685 222l63.5 -14.5t63.5 -7.5q18 0 33 6v283zM845 189q-12 -4 -25 -5.5t-26 -1.5q-35 0 -66 6.5l-60 12.5q-37 -50 -83 -96t-98.5 -81t-111.5 -55.5t-122 -20.5q-40 0 -82.5 11.5t-78 34.5t-58 57.5t-22.5 80.5q0 54 23.5 98t61.5 75t87 47.5t100 16.5q25 0 53.5 -7
t51.5 -22t38.5 -37t15.5 -52q0 -37 -16 -65.5t-41.5 -48.5t-59 -31t-67.5 -11v15q30 0 58.5 9t50.5 26t35.5 41.5t13.5 57.5q0 27 -12.5 47.5t-32.5 34t-44 20t-48 6.5q-45 0 -88.5 -15t-77 -43t-54.5 -67t-21 -87q0 -43 19 -76t50 -55.5t69 -34t76 -11.5q60 0 116.5 20
t107.5 53t95 76.5t80 91.5l-29 4t-30 2q-34 0 -68 -16l-7 14q23 12 49.5 17t51.5 5q13 0 25.5 -1t24.5 -3l210 351l14 -4v-349q0 -50 -12.5 -100.5t-38 -94.5t-63 -76.5t-86.5 -44.5q58 -11 111 -35l105 -49t104 -44t109 -19q30 0 59 7.5t51 23t35.5 38.5t13.5 53
q0 37 -22.5 63.5t-60.5 26.5q-28 0 -50 -19l-10 12q13 11 28 17t32 6q22 0 40 -8.5t31.5 -23t21 -34t7.5 -41.5q0 -37 -18 -65t-45.5 -47t-61.5 -28.5t-66 -9.5q-46 0 -87.5 11.5t-81 29.5t-77 39t-75 40t-76 32.5t-78.5 16.5v14q49 0 88 25t66.5 64.5t42.5 88.5t16 96z" />
    <glyph glyph-name="B" unicode="B" horiz-adv-x="645" 
d="M350 306q-16 -3 -16 -10q0 -4 10 -9zM394 278h11q36 0 67 11q-35 16 -70 19zM390 263q-17 -66 -39.5 -126.5t-55 -106.5t-77.5 -73t-107 -27q-20 0 -40 5.5t-35.5 16.5t-25.5 27.5t-10 39.5q0 14 4.5 28t12.5 26l13 -8q-15 -23 -15 -46q0 -20 9 -34t22.5 -23t30.5 -13
t34 -4q50 0 84.5 24t57.5 60.5t38 80t26 82.5l23 81q-10 4 -16.5 9.5t-6.5 14.5q0 11 12 17t26 8q8 26 17 51t21 49q11 23 25 44t29 38q-7 -1 -15 -1h-16q-17 0 -35.5 -5t-30.5 -18l-12 10q14 16 36 22.5t42 6.5q15 0 30.5 0.5t29.5 3.5l8 -13q-17 -21 -29 -45.5t-22 -49.5
q-7 -19 -13 -39.5t-14 -52.5q23 -2 45.5 -8.5t42.5 -16.5q39 20 64 55.5t25 81.5q0 37 -16 63.5t-43.5 43.5t-63.5 25.5t-76 8.5q-51 0 -107.5 -15t-103.5 -44.5t-77.5 -73t-30.5 -100.5q0 -23 7.5 -45t22 -39.5t34.5 -28.5t45 -11q27 0 53 11t44 32l11 -11
q-20 -23 -48.5 -35t-59.5 -12q-29 0 -54 11t-44.5 29.5t-30.5 43.5t-11 54q0 60 33.5 106.5t85 78t114.5 47.5t123 16q45 0 87 -8.5t74 -27t51 -47.5t19 -69q0 -50 -31.5 -90t-74.5 -61q23 -14 44 -33t36.5 -41.5t24.5 -48t9 -53.5q0 -44 -17.5 -78t-44.5 -57.5t-60 -36
t-64 -12.5q-43 0 -77.5 21t-45.5 63l14 6q7 -32 33.5 -49t60.5 -17q27 0 54.5 10t50 31t37 53t14.5 77q0 48 -26 89t-66 66q-20 -8 -37.5 -11.5t-40.5 -3.5h-11t-13 1z" />
    <glyph glyph-name="C" unicode="C" horiz-adv-x="654" 
d="M604 372q5 12 9.5 24.5t4.5 26.5q0 40 -23 70.5t-57 51.5t-74 31.5t-73 10.5q-75 0 -133.5 -28.5t-98 -75t-60.5 -106t-21 -120.5q0 -58 19 -114.5t55.5 -101.5t90 -72.5t122.5 -27.5q41 0 82.5 14t74.5 39t54 60t21 78q0 17 -6.5 36.5t-18.5 32.5l9 12q17 -11 31 -35
t14 -46q0 -50 -23.5 -88.5t-61.5 -65t-85 -40.5t-94 -14q-83 0 -146.5 29.5t-106 77t-64 108t-21.5 122.5q0 64 24 125.5t70.5 110t115 78.5t157.5 30q36 0 74 -8.5t72.5 -25.5t62.5 -41.5t46 -56.5l15 38h17l-56 -139h-18v0z" />
    <glyph glyph-name="D" unicode="D" horiz-adv-x="827" 
d="M256 -16q44 -11 89.5 -14t90.5 -3q69 0 130.5 25.5t108 70t73.5 105t27 131.5q0 60 -22.5 115t-73.5 97q-39 32 -96 51t-132 23l-195 -601v0zM155 -34q23 0 40.5 13t24.5 33l187 574q-75 -1 -139.5 -19.5t-112.5 -50.5q-49 -32 -77 -75.5t-28 -93.5q0 -20 7.5 -39
t20.5 -34t31 -24t39 -9q24 0 46 10.5t38 29.5l12 -9q-18 -22 -43 -34.5t-53 -12.5q-27 0 -49.5 9.5t-39 26t-26 39.5t-9.5 49q0 54 32 100.5t89 81.5q56 35 129 55t158 20q96 0 166.5 -22t118.5 -60q57 -45 83.5 -104.5t26.5 -123.5q0 -67 -28.5 -132t-82.5 -115
q-48 -45 -113 -71.5t-146 -26.5h-335l5 15h28z" />
    <glyph glyph-name="E" unicode="E" horiz-adv-x="613" 
d="M423 285q-28 0 -46.5 -20.5t-18.5 -47.5t12 -49.5t33 -41.5t48.5 -36t58.5 -32q11 20 16 42.5t5 47.5q0 27 -7 51.5t-21 43.5t-34 30.5t-46 11.5zM237 387q18 -20 35 -28t31 -8q12 0 19.5 4.5t7.5 11.5q0 8 -12.5 14.5t-41.5 7.5h-4q-9 0 -18 -0.5t-17 -1.5zM323 477
q15 -13 33 -13q20 0 33.5 16t13.5 36q0 16 -7.5 28.5t-19.5 20t-26.5 11.5t-28.5 4q-49 0 -81.5 -32.5t-32.5 -81.5q0 -37 19 -66q11 2 22.5 3.5t25.5 1.5q39 -1 56 -12t17 -25q0 -13 -13 -23.5t-34 -10.5q-19 0 -41.5 11t-45.5 37q-33 -9 -59 -27.5t-44 -44t-27.5 -57
t-9.5 -65.5q0 -49 18.5 -91.5t50 -74.5t74 -50.5t91.5 -18.5q54 0 104 19.5t84 62.5q-31 16 -59.5 33.5t-50.5 38.5t-35 47t-13 59q0 37 25.5 62.5t63.5 25.5q30 0 54 -12.5t41 -33.5t26.5 -47.5t9.5 -54.5q0 -29 -8 -55t-22 -49l77 -40t73 -48.5t54.5 -65t21.5 -89.5
q0 -26 -10.5 -48t-28 -38.5t-41 -26t-48.5 -9.5q-17 0 -33 5.5t-29 16t-21 24t-8 30.5q0 5 1 11t3 11l15 -6q-3 -8 -3 -16q0 -14 7 -24.5t18.5 -17.5t24.5 -10.5t25 -3.5q22 0 42.5 7.5t36 21.5t24.5 33.5t9 42.5q0 46 -22.5 79.5t-56.5 58.5t-73.5 44l-73.5 36
q-38 -48 -96 -72.5t-120 -24.5q-49 0 -97.5 16.5t-87 47.5t-62.5 74t-24 97q0 40 13.5 77t37.5 67t56.5 52.5t70.5 33.5q-25 34 -25 74q0 31 12.5 54.5t33.5 39.5t47.5 24t54.5 8q18 0 36 -5.5t32 -16t23 -26t9 -34.5q0 -29 -20.5 -47t-48.5 -18q-24 0 -44 18l11 11v0z" />
    <glyph glyph-name="F" unicode="F" horiz-adv-x="591" 
d="M73 66q-10 -17 -10 -33q0 -21 11.5 -36.5t28.5 -26t36.5 -15.5t36.5 -5q44 0 79.5 25t63.5 61.5t48 79t32 77.5l16.5 47l16.5 48q-8 1 -15.5 1h-15.5q-12 0 -29.5 -2.5t-34 -7.5t-30 -14.5t-18.5 -22.5l-14 6q6 16 21 27t33 17.5t37.5 9.5t34.5 3q10 0 19 -0.5t18 -0.5
q24 66 55 129t81 112q-38 -11 -72 -11q-33 0 -65.5 5.5t-65 12.5t-64 12.5t-63.5 5.5q-37 0 -71 -11t-60.5 -32t-42 -52t-15.5 -70q0 -24 8 -47.5t23 -41.5t36 -29.5t47 -11.5q29 0 54 14l6 -10q-31 -22 -68 -22q-28 0 -51.5 11.5t-41 30.5t-27 44t-9.5 52q0 47 22 84.5
t56.5 63.5t77.5 40t85 14q36 0 70.5 -6l68.5 -12.5l68 -12.5t69 -6q19 0 36 7t33 17l9 -13q-30 -20 -52 -53t-38.5 -71t-28.5 -77t-21 -71l40.5 -4t40.5 -2q12 0 19 8.5t9 18.5l15 -3q-4 -16 -14.5 -27.5t-28.5 -11.5q-23 0 -43 2t-43 4q-11 -36 -23.5 -72t-28 -70
t-35.5 -66t-47 -60q-78 -81 -172 -81q-20 0 -42.5 6.5t-41.5 18.5t-31.5 30.5t-12.5 42.5q0 21 13 41l12 -8v0z" />
    <glyph glyph-name="G" unicode="G" horiz-adv-x="705" 
d="M546 179l5 16h154l-5 -16q-30 -1 -43 -13t-20 -35l-28 -95q-51 -48 -121 -72.5t-138 -24.5q-62 0 -121 21.5t-104.5 61.5t-73 97.5t-27.5 129.5q0 76 31 141.5t82.5 113t119.5 74.5t143 27q36 0 75.5 -7.5t75.5 -24t66 -41.5t48 -59l15 37h17l-58 -140h-17q11 27 11 53
q0 40 -24 70.5t-59.5 51.5t-76 31.5t-74.5 10.5q-69 0 -128 -27t-101.5 -72.5t-67 -106.5t-24.5 -128q0 -62 19.5 -116t56 -94t88.5 -62.5t116 -22.5q31 0 64.5 6t64 20.5t54 37.5t34.5 57l21 66q1 4 1 11q0 11 -7.5 17t-18.5 6h-25z" />
    <glyph glyph-name="H" unicode="H" horiz-adv-x="806" 
d="M118 -60q-33 0 -59.5 20.5t-26.5 55.5q0 20 9.5 35.5t25.5 26.5l9 -13q-11 -8 -18.5 -19.5t-7.5 -25.5q0 -29 21 -46.5t48 -17.5q44 0 75 28t52 68.5t34.5 85.5t21.5 78q14 57 29.5 112t42.5 108q18 35 39 61.5t48 54.5q-20 -5 -38 -5q-22 0 -44 3.5t-44 8t-44.5 8.5
t-46.5 4q-23 0 -46 -6.5t-41 -20t-29.5 -33t-11.5 -44.5q0 -33 22 -58t56 -25q27 0 49.5 16t30.5 42l15 -5q-9 -31 -36 -50t-59 -19q-42 0 -70 28.5t-28 70.5q0 32 16 55.5t41 39.5t55 23.5t57 7.5q23 0 46 -3.5t46 -8t46.5 -8t47.5 -3.5q15 0 28.5 4t26.5 11l8 -13
q-29 -17 -48.5 -39t-33.5 -53q-20 -44 -32.5 -90.5t-23.5 -93.5h339l73 224q2 10 2 17q0 11 -7 19t-20 8h-33l5 16h191l-5 -16h-20q-30 0 -46 -11t-24 -37l-152 -471q-6 -19 -11 -40t-5 -41q0 -31 15.5 -52.5t49.5 -21.5q17 0 32 9.5t28 23t22.5 29.5t14.5 30l14 -5
q-18 -47 -51.5 -78.5t-82.5 -31.5q-18 0 -34 7.5t-27 20t-17.5 28.5t-6.5 33q0 23 4 46.5t11 46.5l73 227h-337q-15 -60 -34 -118.5t-53 -111.5q-35 -56 -77 -81t-89 -25z" />
    <glyph glyph-name="I" unicode="I" horiz-adv-x="382" 
d="M86 -60q-33 0 -59.5 20.5t-26.5 55.5q0 20 9.5 35.5t25.5 26.5l9 -13q-11 -8 -18.5 -19.5t-7.5 -25.5q0 -28 20.5 -46t47.5 -18q44 0 75 28t52.5 68.5t34.5 85.5l22 78l18 72q19 79 52 142t89 122l-18.5 -4t-19.5 -2q-29 0 -52.5 4t-46.5 9q-20 4 -40 8.5t-41 4.5
q-26 0 -49 -7t-40 -20t-27.5 -33t-10.5 -45q0 -33 22 -58t56 -25q27 0 49.5 16t30.5 42l15 -5q-11 -35 -37.5 -51.5t-55.5 -16.5q-19 0 -37 6.5t-32 18.5t-22.5 30.5t-8.5 42.5q0 32 14.5 56t38 40.5t53.5 24.5t61 8q32 0 58 -5t49 -10q20 -5 39.5 -8t41.5 -3q15 0 28.5 4
t26.5 11l8 -13q-29 -18 -47.5 -38.5t-34.5 -53.5q-15 -32 -26.5 -72t-23.5 -87l-20 -79q-7 -29 -17 -62.5t-24 -67t-32.5 -64.5t-43.5 -55t-56.5 -38.5t-70.5 -14.5z" />
    <glyph glyph-name="J" unicode="J" horiz-adv-x="459" 
d="M18 -258q0 -19 13.5 -30.5t27.5 -11.5q38 0 68.5 24.5t54 62t41.5 81.5t31 84q-39 -12 -81 -30t-76.5 -43.5t-56.5 -59.5t-22 -77zM376 -24q-18 0 -36.5 -1.5t-28.5 -5.5q-16 -49 -39.5 -99.5t-55 -92t-71.5 -68t-89 -26.5q-22 0 -39 17t-17 45q0 44 24 80.5t61.5 65
t83.5 49t90 31.5l17.5 60l27 88.5l26.5 88.5l17 60q11 41 29.5 87t42.5 89q20 37 44 68t48 51l-26 -6q-23 -4 -49 -4q-38 0 -75 5.5t-75 5.5q-42 0 -82.5 -13t-72 -38t-50.5 -60.5t-19 -81.5q0 -23 8.5 -44t23 -37t34.5 -25t44 -9q21 0 41 7t36 21l10 -12q-37 -35 -90 -35
q-26 0 -49 9.5t-40.5 26.5t-28 39.5t-10.5 49.5q0 53 23.5 96t61.5 74t86 47.5t97 16.5q26 0 55 -3.5t57 -6.5l41 -5.5t33 -2.5t29 4.5t28 9.5l7 -14q-48 -27 -83 -98q-18 -35 -32.5 -80l-31.5 -99l-96 -313q30 6 61 6q43 0 74.5 -10.5t52.5 -27t31.5 -37t10.5 -41.5
q0 -37 -24.5 -63.5t-72.5 -26.5q-31 0 -53 20l10 12q19 -17 43 -17q37 0 54.5 18t17.5 43q0 18 -9.5 38t-28 36.5t-45.5 27t-62 10.5z" />
    <glyph glyph-name="K" unicode="K" horiz-adv-x="773" 
d="M405 288h-11q-8 0 -18.5 -3t-10.5 -12q0 -8 9 -13t20 -8zM451 252l20 6q-4 3 -7.5 6t-7.5 5zM1043 -234q-98 0 -169.5 34t-128.5 91.5t-105.5 132.5l-101.5 158q-14 20 -26.5 35t-25.5 27q-20 -6 -40 -9q-16 -52 -44.5 -105.5t-68.5 -96.5t-91 -70.5t-111 -27.5
q-23 0 -46 7t-42 20t-31 32.5t-12 44.5q0 31 20 55.5t52 24.5q18 0 34 -11l-9 -12q-11 8 -25 8q-26 0 -41.5 -20.5t-15.5 -44.5q0 -20 10 -36.5t26 -28t35.5 -17.5t37.5 -6q41 0 80 20.5t67 48.5q33 32 60.5 76.5t44.5 98.5l13 42q-15 4 -28 12.5t-13 23.5q0 17 15.5 24
t29.5 7q5 0 9 -0.5t9 -0.5q13 36 30 75t37 75q17 32 36.5 58.5t41.5 45.5q-17 -6 -35.5 -10.5t-43.5 -4.5q-42 0 -81.5 9t-80.5 9q-38 0 -75.5 -10.5t-67 -32t-48 -53.5t-18.5 -75q0 -47 31.5 -78t78.5 -31q21 0 42 7t38 21l10 -11q-18 -17 -42.5 -27t-49.5 -10q-26 0 -49 9
t-40.5 24.5t-28 37.5t-10.5 49q0 54 25 94t64.5 67t88 40.5t95.5 13.5q26 0 52.5 -4t51.5 -9l37 -5.5t31 -2.5q20 0 38 5t37 12l6 -14q-25 -14 -45.5 -40.5t-37.5 -61.5q-22 -45 -37.5 -92.5t-29.5 -95.5q8 -4 15.5 -8.5l15.5 -9.5q22 12 41.5 28t36.5 33l52 54l73.5 74.5
t81 68t90.5 49.5t103 19q14 0 31.5 -4t32.5 -12t25 -20.5t10 -29.5q0 -12 -6 -22l-13 7q3 7 3 15q0 13 -9 22.5t-22 15.5t-27.5 9t-24.5 3q-37 0 -69.5 -14t-61.5 -35t-55 -47l-50 -50l-50.5 -50t-54.5 -50t-57.5 -44.5t-60.5 -34.5q42 -34 77 -76.5l70 -84.5l83 -100.5
t92.5 -96t103 -72t114.5 -28.5q23 0 45.5 7.5t40.5 22t29 34t11 43.5q0 32 -20 56.5t-53 24.5q-5 0 -15 -2l-4 15q5 1 9.5 1.5t9.5 0.5q19 0 35.5 -8t28 -21.5t18 -30.5t6.5 -36q0 -28 -11 -53t-30.5 -43.5t-47 -29.5t-61.5 -11z" />
    <glyph glyph-name="L" unicode="L" horiz-adv-x="440" 
d="M95 -6q-33 0 -54.5 -11t-21.5 -25q0 -11 13.5 -16.5t25.5 -5.5q27 0 51 12.5t47 35.5q-17 5 -33 7.5t-28 2.5zM597 589q27 0 52.5 -7.5t45.5 -21.5t32 -35.5t12 -49.5q0 -18 -7 -35t-18.5 -30.5t-27.5 -21.5t-34 -8q-21 0 -40 11.5t-30 29.5l13 8q8 -15 24 -24.5t33 -9.5
q15 0 26.5 7.5t20 19.5t13 26t4.5 27q0 24 -10.5 42.5t-28 31t-38.5 19.5t-42 7q-44 0 -79.5 -21t-63.5 -53.5t-48.5 -71.5t-33.5 -75q-4 -11 -7.5 -22t-8.5 -23l-27 -77.5t-33 -83t-40 -80.5t-49 -70q41 -12 80.5 -29.5t78.5 -37.5l77 -41.5l76 -41.5l44.5 -25t46 -24
t47.5 -18t48 -7q23 0 44.5 7t38.5 20.5t27 33.5t10 46q0 15 -5 30.5t-15 28t-23.5 20.5t-30.5 8q-10 0 -15 -1l-4 15q5 1 9.5 1.5t9.5 0.5q20 0 36.5 -9t28 -23.5t18 -33t6.5 -37.5q0 -29 -11.5 -52t-30 -39t-43 -24.5t-50.5 -8.5q-44 0 -85 8t-79.5 22.5t-75 33t-72.5 39.5
q-51 30 -101.5 63.5t-106.5 52.5q-27 -26 -59.5 -41t-70.5 -15q-8 0 -17.5 2t-18 6.5t-14 11.5t-5.5 17q0 17 12.5 28.5t29.5 18t35.5 9.5t30.5 3q16 0 33 -2.5t34 -6.5q37 47 58 101.5t39 110.5q19 62 43.5 127.5t61 119.5t89.5 88.5t131 34.5z" />
    <glyph glyph-name="M" unicode="M" horiz-adv-x="1054" 
d="M412 91q-27 59 -82.5 89.5t-120.5 30.5q-30 0 -62.5 -9t-59 -26.5t-43.5 -44t-17 -61.5q0 -30 12 -54.5t32.5 -42t46.5 -27t54 -9.5q40 0 74.5 12.5t64 34t55 49.5t46.5 58zM513 246q-36 -83 -78 -147q8 -17 12.5 -36.5t4.5 -41.5q0 -61 -37 -107t-98 -66l-5 15
q54 20 84.5 60.5t30.5 94.5q0 15 -2.5 28.5t-6.5 27.5q-22 -31 -48 -58.5t-56.5 -48.5t-66 -33t-75.5 -12q-30 0 -60.5 9.5t-55.5 27.5t-40.5 44t-15.5 60q0 40 19.5 71t50.5 51.5t68.5 31t72.5 10.5q33 0 64.5 -6.5t60 -20.5t52 -35t39.5 -50q20 30 37.5 64.5t34.5 72.5
l133 298q-12 -2 -23.5 -2h-22.5q-14 0 -28.5 0.5t-29.5 1.5t-29.5 1.5t-29.5 0.5q-31 0 -63 -8.5t-57.5 -25.5t-42 -43.5t-16.5 -62.5q0 -23 8.5 -42t23.5 -32.5t34.5 -21t41.5 -7.5q20 0 40 6.5t38 21.5l10 -12q-23 -20 -48.5 -29t-50.5 -9q-53 0 -83 34.5t-30 85.5
q0 48 20 82t52.5 56t73.5 32t82 10q32 0 63.5 -5.5t63.5 -5.5q10 0 20 1t20 3l26 -522l69 128.5t76 133.5t84 125.5t92 104.5q17 16 32 27.5t29 16.5l7 -13q-10 -7 -16 -18q-4 -6 -6 -13t-4 -17l-112 -533q-2 -12 -4.5 -24.5t-2.5 -24.5q0 -19 8 -32t28 -13q13 0 24.5 6
t20.5 16t15 21.5t9 23.5l15 -3q-4 -18 -15 -35t-26 -30.5t-33 -21.5t-37 -8q-26 0 -41.5 21t-15.5 49q0 11 2 23l4 23l106 511q-31 -33 -65 -79.5t-68 -100.5l-62.5 -102l-57 -101l-48 -92.5l-36.5 -76.5h-17l-25 546z" />
    <glyph glyph-name="N" unicode="N" horiz-adv-x="977" 
d="M135 -119q49 0 89.5 31t73.5 75t58 93l42 85l188 393q-13 -6 -26.5 -8.5t-27.5 -2.5q-32 0 -63.5 4t-63.5 4t-62.5 -9.5t-55 -28.5t-39.5 -46t-15 -61q0 -21 7.5 -42t21 -37.5t32 -27t41.5 -10.5q32 0 59 18l8 -13q-30 -21 -69 -21q-26 0 -48.5 10t-39 26.5t-26.5 39
t-10 48.5q0 41 19 74t49 56.5t68 36t76 12.5q34 0 67.5 -3.5t67.5 -3.5q16 0 29 4.5t27 11.5l197 -564l111 331q11 33 23.5 66t28.5 63.5t36.5 58t48.5 51.5l20 -18q-30 -22 -51.5 -47.5t-38 -54t-29 -59.5t-23.5 -65l-134 -400h-15l-200 571l-184 -393q-18 -38 -42.5 -85
t-56.5 -88.5t-72 -69.5t-89 -28q-45 0 -80.5 25.5t-61.5 60.5l12 9q23 -30 53.5 -51t69.5 -21z" />
    <glyph glyph-name="O" unicode="O" horiz-adv-x="789" 
d="M400 580q-62 0 -119 -21t-100.5 -59t-69 -91.5t-25.5 -117.5q0 -77 22.5 -137.5t64 -103t99.5 -65t130 -22.5q63 0 118 20.5t96 58.5t65 91.5t24 119.5q0 72 -22 132t-61.5 103.5t-96 67.5t-125.5 24zM407 598q69 0 132.5 -22t112 -63.5t77 -100.5t28.5 -132
q0 -75 -30 -137t-80 -106t-114.5 -68.5t-134.5 -24.5q-71 0 -137 24t-117 67.5t-81.5 105.5t-30.5 137q0 72 30.5 131t82.5 101t119.5 65t142.5 23z" />
    <glyph glyph-name="P" unicode="P" horiz-adv-x="729" 
d="M519 575q-12 -17 -19 -35.5t-12 -38.5l-90 -317q-8 -30 -20.5 -65.5t-29 -71t-37.5 -68t-47.5 -58t-59 -40.5t-71.5 -15q-21 0 -40.5 6.5t-35 18.5t-24.5 29.5t-9 40.5q0 30 19 51t48 29l3 -15q-23 -6 -39 -23t-16 -42q0 -20 8 -34.5t21.5 -24.5t30 -15t34.5 -5
q45 0 77 25.5t54.5 63t37 80t24.5 77.5l107 358q8 24 17.5 47.5t23.5 45.5h-8q-64 0 -125.5 -20t-109.5 -55q-44 -33 -70 -77t-26 -95q0 -24 6.5 -45.5t20 -38t32.5 -26t45 -9.5q15 0 30 5.5t28 13.5l8 -14q-14 -9 -31.5 -14.5t-34.5 -5.5q-30 0 -54.5 10.5t-42 29
t-27.5 43.5t-10 54q0 52 30 99t80 82q52 38 117.5 59.5t132.5 21.5q63 0 110 -13.5t79 -36.5q38 -27 56.5 -63.5t18.5 -75.5q0 -45 -20 -82.5t-53 -64t-74.5 -41t-83.5 -14.5q-15 0 -30 2.5t-29 6.5l3 15q11 -2 23 -3.5t24 -1.5q37 0 71.5 12t61.5 34.5t43 54.5t16 71
q0 36 -12.5 66t-34.5 52.5t-51.5 38t-63.5 21.5z" />
    <glyph glyph-name="Q" unicode="Q" horiz-adv-x="784" 
d="M214 88q-20 0 -35 -4l-4 15q30 9 61 9q36 0 69 -12t63.5 -31t58.5 -43.5t53 -49.5q49 12 89.5 37.5t69.5 62t45 83.5t16 102q0 66 -21.5 125t-61 103t-95.5 69.5t-125 25.5q-62 0 -119 -21.5t-100 -60.5t-68.5 -92.5t-25.5 -116.5q0 -69 23 -128.5t64.5 -103.5t100 -69
t129.5 -25h8l-41.5 45.5t-43 40t-49.5 28.5t-61 11zM405 598q69 0 132.5 -21.5t111.5 -62.5t77 -99.5t29 -131.5q0 -62 -20 -114.5t-55.5 -94.5t-83 -71.5t-101.5 -44.5l79 -82t86 -80.5t95.5 -64.5t108.5 -34l-1 -15q-48 2 -94.5 16.5t-91.5 38.5q-74 40 -134.5 94
t-116.5 114q-8 0 -16.5 -0.5t-16.5 -0.5q-71 0 -136 23t-115 65.5t-80 103t-30 135.5q0 73 32.5 133t85 103t119.5 67t136 24z" />
    <glyph glyph-name="R" unicode="R" horiz-adv-x="814" 
d="M405 297q4 11 7.5 22t8.5 22q-9 3 -19 3q-8 0 -16.5 -3.5t-8.5 -13.5q0 -11 8 -18t20 -12zM458 286h32l-12 14t-13 13zM306 373q0 15 -4 27l15 4q2 -8 3 -15.5t1 -15.5q0 -24 -8.5 -45t-23 -36.5t-35 -24.5t-44.5 -9q-26 0 -49 8.5t-40.5 24.5t-28 37.5t-10.5 48.5
q0 48 21 87t58 68q38 29 87.5 46t106.5 17q44 0 86.5 -10.5t85.5 -10.5q20 0 38 5t37 12l6 -14q-25 -14 -45.5 -40.5t-37.5 -61.5q-14 -29 -26.5 -63.5t-24.5 -72.5q16 -9 31 -21.5t31 -27.5q39 6 79 23.5t71.5 45t51.5 64.5t20 82q0 19 -7 32.5t-19 22.5t-27.5 13.5
t-31.5 4.5q-28 0 -54 -13l-6 15q14 7 31.5 11t36.5 4q24 0 47 -6t42 -18.5t30.5 -31.5t11.5 -46q0 -48 -26 -86t-65 -65.5t-85 -44t-86 -22.5q17 -19 39 -46.5l44 -57.5l43 -58.5l37 -49.5l68 -86t78.5 -80t92 -58.5t108.5 -22.5q22 0 47 7.5t45 22t33.5 35t13.5 46.5
t-15 49l13 8q17 -25 17 -57q0 -29 -14.5 -53.5t-37.5 -42.5t-51 -28t-55 -10q-85 0 -146.5 24.5t-109 64.5t-84.5 91l-74 105l-30.5 44l-38 53l-38.5 52.5l-32 43.5q-7 -1 -13 -1h-14h-12t-11 1l-10 -32q-15 -52 -43.5 -106t-69 -98t-91.5 -72t-112 -28q-22 0 -44.5 6
t-41 18.5t-30 31t-11.5 43.5q0 31 21 55.5t53 24.5q18 0 35 -11l-9 -13q-12 9 -26 9q-26 0 -42.5 -20.5t-16.5 -44.5q0 -22 10 -37.5t26 -25.5t35.5 -14.5t38.5 -4.5q46 0 86 23.5t71.5 59.5t54.5 78.5t35 81.5l28 87l-5 2q-35 15 -35 43q0 17 13 25t29 8q12 0 26 -3
q10 24 21.5 48.5t24.5 47.5q17 32 37 58.5t41 45.5q-17 -6 -35.5 -10.5t-43.5 -4.5q-42 0 -81.5 9t-80.5 9q-45 0 -83.5 -13t-67.5 -37q-26 -23 -42 -54t-16 -69q0 -48 31.5 -79t78.5 -31q41 0 67.5 27.5t26.5 68.5z" />
    <glyph glyph-name="S" unicode="S" horiz-adv-x="513" 
d="M516 435q18 15 18 37q0 25 -12 44.5t-30.5 33t-41 21t-44.5 7.5q-23 0 -46.5 -6.5t-42 -19.5t-30 -32.5t-11.5 -45.5q0 -21 7.5 -39t19.5 -33.5t26.5 -29l28.5 -26.5q24 -21 45 -42t37 -45t25 -52t9 -62q0 -46 -20.5 -83t-53.5 -63.5t-75 -40.5t-84 -14q-32 0 -63 7.5
t-59 22.5t-51 37t-38 51l-16 -40l-14 6l61 155l14 -5q-6 -15 -9.5 -29.5t-3.5 -30.5q0 -36 15.5 -65t40.5 -50t57.5 -32.5t65.5 -11.5q36 0 70.5 13t60.5 36t42 54.5t16 69.5q0 25 -7 46.5t-19 40t-28 35t-34 32.5l-37 33t-35.5 36.5t-27 41.5t-10.5 49q0 36 15 63.5
t40 46.5t56 29t63 10q44 0 84.5 -19t65.5 -55l13 32l14 -6l-37 -95q-6 -17 -20 -29l-10 12v0z" />
    <glyph glyph-name="T" unicode="T" horiz-adv-x="622" 
d="M410 339q14 -28 14 -58q0 -36 -17 -64.5t-43.5 -48t-59 -29.5t-64.5 -10q-42 0 -81 15t-69 42t-48 64t-18 81q0 60 27.5 109.5t71.5 84.5t99 54t110 19q72 0 120.5 -4.5t88 -10.5t76 -10.5t83.5 -4.5q10 0 27.5 3.5t26.5 9.5l8 -18q-44 -19 -74 -53.5t-51 -76.5
t-34.5 -88l-24.5 -87q-4 -16 -8 -30l-8 -28q-15 -51 -42.5 -99.5t-66 -86t-87.5 -60t-108 -22.5q-18 0 -37.5 5.5t-35.5 16.5t-26.5 27t-10.5 37q0 17 8 33l14 -8q-6 -11 -6 -25q0 -17 9 -30t23 -21.5t30.5 -13t31.5 -4.5q51 0 89.5 18.5t67 50t49 72.5t35.5 85
q5 14 9.5 28.5l9.5 30.5q13 42 28 86t35 84.5t46.5 76t63.5 61.5q-23 -3 -49 -3q-44 0 -94.5 5.5t-98.5 12.5q-38 5 -71.5 9t-56.5 4q-53 0 -101 -14t-85 -42t-59 -70.5t-22 -99.5q0 -42 15.5 -78.5t42.5 -63t63.5 -41.5t78.5 -15q27 0 54.5 10.5t50 28.5t36.5 42.5t14 53.5
q0 28 -13 51l14 7v0z" />
    <glyph glyph-name="U" unicode="U" horiz-adv-x="795" 
d="M434 588q-15 0 -34 -9t-33 -21q8 -2 15.5 -3t15.5 -1q19 0 34 8t15 18q0 8 -13 8zM434 604q12 0 21 -6.5t9 -17.5q0 -17 -18 -29t-48 -12q-24 0 -49 3q-19 -19 -36.5 -44t-34.5 -54q-35 -63 -57.5 -140t-22.5 -151q0 -27 6.5 -59t21.5 -59.5t38.5 -45.5t57.5 -18
q52 0 92.5 26.5t72 66.5t54.5 86.5t41 86.5l157 358h51l-129 -452q-8 -27 -14 -56t-6 -58q0 -10 1.5 -21.5t6 -21.5t13 -16.5t21.5 -6.5q16 0 31.5 12.5t28.5 30.5t22.5 37.5t14.5 32.5l15 -6q-6 -19 -18 -42t-28 -42.5t-36 -32.5t-43 -13q-42 0 -60.5 28t-18.5 66
q0 34 7.5 67.5t17.5 65.5l104 347l-124 -283q-19 -44 -44 -94t-58 -92.5t-76.5 -71t-99.5 -28.5q-43 0 -75 17t-53.5 45.5t-32 65t-10.5 75.5q0 33 8 71t21.5 76.5t32 76.5t40.5 73q18 29 38 54.5t40 45.5q-23 3 -42.5 7l-38.5 8t-38 7t-40 3q-23 0 -45.5 -8.5t-41.5 -23
t-30.5 -34t-11.5 -42.5q0 -32 23.5 -53.5t55.5 -21.5q31 0 54.5 21.5t23.5 53.5h16q0 -19 -7.5 -35.5t-20.5 -29t-30 -19.5t-36 -7t-36 7t-30 19.5t-20.5 29t-7.5 35.5q0 33 16 58.5t40.5 42.5t55 25.5t59.5 8.5q42 0 78 -11.5t74 -22.5q18 15 41 28t46 13z" />
    <glyph glyph-name="V" unicode="V" horiz-adv-x="643" 
d="M345 566q-20 -3 -40 -3q-34 0 -67 8t-68 8q-21 0 -42 -7.5t-37 -21.5t-26 -33t-10 -42q0 -35 21.5 -61.5t57.5 -26.5q17 0 35 8t31 19l11 -11q-38 -33 -86 -33q-41 0 -67 27t-26 68q0 33 14.5 58t38 41.5t52.5 25t59 8.5q38 0 73 -7.5t72 -7.5q13 0 23.5 3t21.5 9l6 -17
q-22 -10 -37.5 -27t-25.5 -38t-14.5 -44t-4.5 -46q0 -32 4.5 -63t12.5 -61q14 -58 22 -118t8 -120q0 -17 -0.5 -33t-1.5 -33q81 155 170 303.5t192 291.5l26 -11q-113 -149 -210.5 -308.5t-186.5 -325.5l-15 4q0 60 -9.5 109.5t-20.5 98.5q-11 51 -21 105t-10 120
q0 48 19.5 99t55.5 85z" />
    <glyph glyph-name="W" unicode="W" horiz-adv-x="978" 
d="M866 342q34 9 68 32.5t62 53.5t45.5 64t17.5 65q-1 8 -5 14t-12 6q-15 0 -30.5 -12t-32.5 -32q-35 -43 -61 -93zM637 590l15 -3l35 -527l137 258h-17q-18 0 -38 4.5t-36.5 14t-27.5 24.5t-11 37q0 27 18 49t47 22q22 0 39 -15l-10 -11q-13 11 -29 11q-20 0 -32.5 -15
t-12.5 -35q0 -17 9.5 -30t23.5 -21.5t30.5 -13t30.5 -4.5h13t13 1l57 111t71 102q41 44 82 44q15 0 24.5 -11.5t9.5 -26.5q0 -37 -25.5 -81.5t-67.5 -82.5q-28 -24 -61 -42t-69 -26l-201 -370l-15 3l-37 518l-256 -528l-15 3q0 55 -9.5 109t-21 107t-21 107t-9.5 110
q0 48 19.5 99t55.5 85q-20 -3 -40 -3q-34 0 -67 8t-68 8q-21 0 -42 -7.5t-37 -21.5t-26 -33t-10 -42q0 -35 21.5 -61.5t57.5 -26.5q17 0 35 8t31 19l11 -11q-38 -33 -86 -33q-41 0 -67 27t-26 68q0 33 14.5 58t38 41.5t52.5 25t59 8.5q38 0 73 -7.5t72 -7.5q13 0 23.5 3
t21.5 9l6 -17q-21 -9 -36 -25.5t-25.5 -37.5t-15.5 -45t-5 -47q0 -32 4.5 -63t12.5 -61q14 -58 22 -118t8 -120q0 -14 -0.5 -27t-1.5 -27z" />
    <glyph glyph-name="X" unicode="X" horiz-adv-x="772" 
d="M487 361l58 79t66.5 75.5t76.5 56.5t87 22q53 0 97 -33l-9 -13q-18 12 -38 19t-42 7q-46 0 -87 -23.5t-78 -59t-69 -78l-59 -80.5l-18 -26l45 -163q6 -23 16.5 -55.5t27 -62.5t39.5 -51t54 -21q34 0 58.5 20.5t41.5 50.5l14 -8q-18 -32 -47.5 -55.5t-74.5 -23.5
q-39 0 -68 15.5t-50 40.5t-35 57t-23 65l-38 134l-26 -36l-65.5 -89.5t-75.5 -88.5t-83 -68t-86 -27q-18 0 -35.5 6t-31 17.5t-21.5 27t-8 35.5q0 25 14.5 44t35.5 30l7 -14q-17 -8 -29.5 -24t-12.5 -36q0 -16 7.5 -28.5t19.5 -20.5t26.5 -12.5t28.5 -4.5q40 0 80.5 27
t79.5 68t74.5 89l65.5 90l28 39l-28 102q-10 34 -24 69.5t-35 65t-51 48t-72 18.5q-30 0 -57 -12t-47 -35l-12 9q22 29 55 44t69 15q50 0 88.5 -20.5t66.5 -53.5t47 -75t31 -85l9 -34z" />
    <glyph glyph-name="Y" unicode="Y" horiz-adv-x="617" 
d="M401 22q-2 -10 -2 -16q0 -20 12 -30t31 -10h28l-5 -15h-226l5 15h11q34 0 56.5 13t31.5 47l71 261q0 56 -12 104t-39 92q-12 19 -28 36.5t-35 30.5t-40.5 21t-45.5 8q-29 0 -56 -9.5t-48 -26.5t-33.5 -42t-12.5 -56q0 -41 27 -69.5t69 -28.5q14 0 28 2.5t26 10.5l8 -13
q-14 -10 -30.5 -14t-33.5 -4q-24 0 -46.5 8t-40 22.5t-28.5 35t-11 46.5q0 38 18.5 67.5t48 49.5t65 30t68.5 10q50 0 91.5 -19.5t71 -52.5t46 -76.5t16.5 -91.5q0 -28 -3 -55l39 54l68 89.5t69.5 77t72 53.5t75.5 20q37 0 63 -15.5t26 -52.5q0 -14 -8 -25.5t-19 -19.5
l-9 13q8 5 13.5 13t5.5 19q0 23 -18.5 34.5t-43.5 11.5q-27 0 -54.5 -15t-53 -37t-47.5 -46l-38 -43l-121 -145z" />
    <glyph glyph-name="Z" unicode="Z" horiz-adv-x="626" 
d="M555 435q29 32 64 62t72 54q-4 0 -8 -0.5t-11.5 -0.5h-18.5h-29q-41 0 -82 3.5l-82.5 7l-82.5 7t-83 3.5t-83.5 -12.5t-75.5 -37t-55 -60.5t-21 -83q0 -27 10.5 -51.5t28.5 -42.5t42 -29t52 -11q42 0 74.5 20.5t47.5 58.5l15 -5q-19 -48 -58.5 -71t-84.5 -23
q-29 0 -56.5 9.5t-49.5 28t-35 46t-13 63.5q0 56 27.5 99.5t71 73t95.5 45t102 15.5q63 0 121 -7t110 -15q40 -6 75 -10.5t64 -4.5q18 0 34 3t33 8l5 -14q-24 -7 -43 -20t-36 -29.5t-33 -36l-33 -38.5l-303 -337q-31 -35 -66 -67t-77 -54q16 2 30.5 3.5t29.5 1.5
q61 0 113.5 -18.5t99 -46t87.5 -60l77.5 -60t69 -46t63.5 -18.5q36 0 63 10t45.5 27t28 39t9.5 47q0 46 -22.5 75t-64.5 29q-9 0 -18 -3l-4 15q6 2 12 3t12 1q27 0 48.5 -10.5t36.5 -27.5t23 -38.5t8 -44.5q0 -26 -11 -51t-33.5 -44.5t-56.5 -31t-80 -11.5q-43 0 -84 17.5
t-82 43.5t-84.5 57t-91 57t-101.5 43.5t-116 17.5q-31 0 -63.5 -4.5t-68.5 -15.5l-4 15q65 17 112 56t91 89z" />
    <glyph glyph-name="bracketleft" unicode="[" horiz-adv-x="325" 
d="M52 -165h40l-5 -15h-87l238 784h87l-5 -15h-39z" />
    <glyph glyph-name="backslash" unicode="\" horiz-adv-x="306" 
d="M252 -81l-252 601h22l284 -601h-54z" />
    <glyph glyph-name="bracketright" unicode="]" horiz-adv-x="325" 
d="M273 589h-40l5 15h87l-238 -784h-87l5 15h39z" />
    <glyph glyph-name="asciicircum" unicode="^" horiz-adv-x="298" 
d="M121 520h56l121 -276h-56l-93 212l-93 -212h-56z" />
    <glyph glyph-name="underscore" unicode="_" horiz-adv-x="500" 
d="M0 -24h500v-29h-500v29z" />
    <glyph glyph-name="grave" unicode="`" horiz-adv-x="208" 
d="M208 360h-28l-156 80q-13 6 -18.5 15.5t-5.5 18.5q0 15 9 22t21 7q18 0 34 -14z" />
    <glyph glyph-name="a" unicode="a" horiz-adv-x="442" 
d="M442 94q-6 -17 -14.5 -34t-20.5 -30.5t-28 -22.5t-35 -9q-16 0 -28 7.5t-19.5 19t-11.5 26t-4 29.5q-20 -37 -54 -60t-77 -23q-29 0 -51 10.5t-37 28.5t-22.5 42t-7.5 51q0 42 15.5 82t43 71.5t64.5 50.5t81 19q32 0 59 -19t38 -50l18 61h44l-61 -201q-5 -15 -7.5 -33
t-2.5 -34q0 -8 2 -17.5t6 -17.5t11 -13.5t17 -5.5q13 0 24.5 8t20 20t14.5 25t10 24l13 -5v0zM324 254q-6 30 -28.5 55t-55.5 25q-38 0 -67 -19.5t-49 -49.5t-30.5 -66t-10.5 -69q0 -18 3.5 -38t12 -37.5t23 -28.5t37.5 -11q41 0 69 27t46.5 64.5t30 78.5z" />
    <glyph glyph-name="b" unicode="b" horiz-adv-x="393" 
d="M132 295q24 26 56.5 42.5t67.5 16.5q29 0 52 -11.5t39.5 -31t25 -44.5t8.5 -52q0 -45 -17.5 -85.5t-47.5 -70.5t-70.5 -47.5t-85.5 -17.5q-25 0 -48 6.5t-41 20t-28.5 33.5t-10.5 47q0 21 6 42l90 296q2 4 2.5 8.5t0.5 7.5q0 13 -16 15.5t-38 2.5v15q31 0 61.5 2.5
t58.5 16.5l7 -13l-13 -6zM160 9q39 0 71.5 18t56 47t36 65.5t12.5 73.5q0 21 -7 41.5t-19.5 37t-31 26.5t-40.5 10q-18 0 -37.5 -7.5t-36.5 -19.5t-30 -28t-19 -34q-9 -27 -17 -54.5l-16 -54.5q-6 -21 -6 -42q0 -34 25.5 -56.5t58.5 -22.5z" />
    <glyph glyph-name="c" unicode="c" horiz-adv-x="363" 
d="M334 69q-22 -39 -61.5 -61.5t-84.5 -22.5q-31 0 -59.5 10.5t-50 30t-34 46.5t-12.5 59q0 45 19 84t50 68t71.5 46t84.5 17q16 0 34.5 -3.5t34.5 -12t26.5 -22t10.5 -32.5q0 -13 -7.5 -23.5t-21.5 -10.5q-9 0 -15.5 6t-6.5 16q0 11 6.5 16.5t6.5 13.5q0 11 -7.5 18.5
t-18 11.5t-22.5 5.5t-20 1.5q-39 0 -70.5 -15t-54.5 -41t-35.5 -60t-12.5 -71q0 -29 8 -53.5t24 -43.5t39 -29.5t53 -10.5q35 0 65 20.5t47 49.5z" />
    <glyph glyph-name="d" unicode="d" horiz-adv-x="398" 
d="M319 488q31 0 61.5 2.5t58.5 16.5l7 -13l-13 -6l-120 -394q-7 -23 -21.5 -41t-33.5 -31.5t-41 -20.5t-45 -7q-31 0 -57 13t-44.5 34t-28.5 48.5t-10 56.5q0 39 13 77t37 68.5t58 49t76 18.5q38 0 65.5 -21t40.5 -56l12.5 37l17 52t15 51t6.5 33q0 13 -17.5 15.5
t-36.5 2.5v15zM314 253q-8 33 -30.5 60.5t-59.5 27.5q-38 0 -64.5 -19.5t-44 -49t-25.5 -65t-8 -66.5q0 -20 4 -42.5t14 -42t26.5 -32t40.5 -12.5q33 0 60 22t36 53l51 166v0z" />
    <glyph glyph-name="e" unicode="e" horiz-adv-x="378" 
d="M85 237q-10 -27 -10 -59q0 -29 9.5 -57t27.5 -50t43.5 -35.5t56.5 -13.5q39 0 73.5 17.5t54.5 51.5l14 -8q-23 -39 -64.5 -63t-86.5 -24q-35 0 -66 11.5t-54.5 32.5t-37 50.5t-13.5 65.5q0 40 14.5 76.5t40 64.5t60 45t75.5 17q24 0 47.5 -7t43 -19.5t34.5 -31t23 -42.5
l8 1v-16l-293 -7v0zM326 258q-3 20 -14 35.5t-26 26t-33.5 16t-37.5 5.5q-42 0 -74.5 -25.5t-49.5 -62.5l235 5v0z" />
    <glyph glyph-name="f" unicode="f" horiz-adv-x="321" 
d="M285 295q9 0 13 5l9 11l13 -8l-23 -35l-7 5h-139l-82 -268q-9 -28 -24.5 -64t-38 -68.5t-52 -54.5t-65.5 -22h-9l1 15q30 0 53.5 22.5t41 54t29 65t18.5 56.5l81 264q-14 -1 -28.5 -3t-25.5 -8l-8 14q15 8 32.5 10t33.5 3l17 56q10 33 28 61.5t42 49.5t53.5 33t62.5 12
q19 0 38.5 -5.5t35.5 -16t26 -26.5t10 -37q0 -28 -19.5 -48.5t-47.5 -20.5q-26 0 -47 19l11 11q17 -15 36 -15q21 0 32.5 17t11.5 37q0 17 -8 30t-20.5 22t-28 13.5t-30.5 4.5q-30 0 -53 -13t-39.5 -34t-27.5 -47t-19 -51l-15 -51l128 5v0z" />
    <glyph glyph-name="g" unicode="g" horiz-adv-x="416" 
d="M187 -192q-39 21 -78 36t-74 15q-53 0 -78.5 -20.5t-25.5 -44.5t26.5 -45.5t79.5 -21.5q45 0 83 21.5t67 59.5zM349 266q-11 35 -38.5 58t-68.5 23q-38 0 -66.5 -17t-48.5 -44t-30 -60.5t-10 -67.5q0 -27 6.5 -51t20 -41.5t34.5 -28t50 -10.5q26 0 49 11t41 29zM297 -58
q-11 -38 -28 -70.5t-37 -58.5q48 -26 92.5 -55.5l91.5 -58.5q40 -24 89 -44.5t97 -20.5q20 0 39.5 7t35 19.5t25 30.5t9.5 40q0 36 -25 60t-60 24q-24 0 -46 -11.5t-35 -32.5l-13 8q14 25 40 38.5t55 13.5q21 0 40.5 -7.5t34.5 -21t24.5 -31.5t9.5 -40q0 -26 -12 -47
t-31.5 -35.5t-43.5 -22t-48 -7.5q-36 0 -70 9.5t-68 25t-69 35.5l-72 41l-53.5 31l-53.5 32q-35 -38 -81 -59.5t-98 -21.5q-69 0 -102.5 25.5t-33.5 57.5t34 57t102 25q40 0 81.5 -13.5t83.5 -34.5q28 43 49 114l29 95q-18 -13 -39 -20.5t-44 -7.5q-35 0 -63.5 11t-49 31
t-32 48.5t-11.5 63.5q0 41 14.5 77.5t41 64.5t62 44t77.5 16q43 0 75 -21.5t48 -56.5q16 32 43 55t64 28l3 -15q-29 -5 -43.5 -26t-22.5 -47z" />
    <glyph glyph-name="h" unicode="h" horiz-adv-x="555" 
d="M149 473v15q30 0 60 2.5t60 16.5l7 -13q-6 -5 -13 -6l-62 -205q23 32 54.5 53.5t72.5 21.5q22 0 41.5 -8t34.5 -22t24 -33t9 -41q0 -25 -6 -49t-13 -47q-8 -24 -14 -46.5t-6 -47.5q0 -20 10 -35t29 -15q37 0 64.5 24t38.5 59l15 -5q-12 -39 -44 -66t-74 -27
q-35 0 -60 20.5t-25 55.5q0 23 5 44.5t13 44.5q7 23 12.5 46t5.5 47q0 36 -14 58t-50 22q-32 0 -56.5 -13.5t-43.5 -35t-32 -48t-21 -52.5l-37 -122q-2 -5 -3 -11t-1 -11q0 -14 9.5 -21t23.5 -7h17l-5 -16h-175l5 16h10q29 0 46 10t26 39l112 371q1 3 2.5 8t1.5 8
q0 21 -26 21h-28z" />
    <glyph glyph-name="i" unicode="i" horiz-adv-x="240" 
d="M100 98l-4.5 -16.5t-2.5 -19.5q0 -13 6 -23t23 -10q26 0 43 20.5t26 41.5l15 -6q-6 -15 -16 -29.5t-22.5 -26.5t-27.5 -19.5t-31 -7.5q-32 0 -46.5 19t-14.5 44q0 14 5 31l59 196q2 5 3 11t1 11q0 12 -6.5 20t-21.5 8h-22v16q30 0 61 2.5t59 16.5l7 -14l-13 -6zM180 464
q11 0 19.5 -8t8.5 -20q0 -11 -8.5 -19.5t-19.5 -8.5q-12 0 -20 8.5t-8 19.5q0 12 8 20t20 8z" />
    <glyph glyph-name="j" unicode="j" horiz-adv-x="210" 
d="M145 292q2 6 3 12t1 12q0 11 -6.5 18.5t-21.5 7.5h-22v16q30 0 61 2.5t59 16.5l7 -14l-13 -6l-121 -395q-11 -35 -30.5 -71t-46.5 -64.5t-61.5 -46.5t-75.5 -18q-12 0 -29 2.5t-32 8.5t-26 16.5t-11 26.5q0 9 5.5 17t15.5 8q12 0 18 -10.5t6 -21.5q0 -7 -1 -11
q10 -11 26 -16t30 -5q32 0 58.5 17.5t46.5 44t34.5 57t22.5 56.5l103 340v0zM212 464q12 0 20 -8t8 -20q0 -11 -8 -19.5t-20 -8.5q-11 0 -19.5 8.5t-8.5 19.5q0 12 8.5 20t19.5 8z" />
    <glyph glyph-name="k" unicode="k" horiz-adv-x="488" 
d="M149 473v15q32 0 61.5 2.5t58.5 16.5l7 -13q-6 -5 -13 -6l-91 -299l165 129q44 35 98 35q46 0 84 -30l-9 -13q-29 20 -60 20q-28 0 -54.5 -13t-52.5 -31l-128 -89l36 -42l68.5 -79.5t78.5 -82t77 -64.5t65 -26q11 0 21 3.5l21 7.5l6 -14q-16 -7 -32 -11t-34 -4
q-50 0 -94.5 26t-84 65t-74 85.5l-62.5 87.5l-20 28l-24 -17l-29 -94q-2 -5 -3 -11t-1 -11q0 -14 9.5 -21t23.5 -7h17l-5 -16h-175l5 16h10q29 0 46 10t26 39l113 374q3 7 3 13q0 21 -26 21h-28z" />
    <glyph glyph-name="l" unicode="l" horiz-adv-x="273" 
d="M307 422q3 -1 9 -1q17 0 27 13t10 29q0 26 -20.5 37t-43.5 11q-22 0 -39.5 -9t-31 -23.5t-23.5 -33.5t-16 -39l-94 -308l-4.5 -18.5t-2.5 -18.5q0 -12 6.5 -22.5t22.5 -10.5q26 0 43 21t26 42l14 -6q-6 -14 -16 -28.5t-23 -26.5t-28 -20t-30 -8q-27 0 -44 15t-17 42
q0 17 5 37l91 299q17 57 57.5 94.5t103.5 37.5q15 0 30 -4t27 -12t19.5 -20.5t7.5 -28.5q0 -23 -17 -39.5t-40 -16.5h-6.5t-6.5 1l4 15v0z" />
    <glyph glyph-name="m" unicode="m" horiz-adv-x="778" 
d="M159 292q4 9 4 23q0 11 -5.5 19t-21.5 8h-23v16q30 0 61.5 2.5t58.5 16.5l7 -14l-13 -6l-22 -72q24 32 62.5 53t73.5 21q41 0 58 -28.5t16 -68.5q10 22 26 39.5t35.5 30.5t40 20t40.5 7q36 0 62.5 -24t26.5 -80q0 -23 -6 -47t-14 -48t-14 -48.5t-6 -50.5q0 -18 8.5 -32.5
t28.5 -14.5q22 0 41 11t35 28.5t27 38t17 38.5l15 -4q-6 -21 -19 -43.5t-30.5 -41t-39.5 -30.5t-47 -12q-33 0 -58 19t-25 54q0 22 5 47.5t13 51.5t14 51t6 46q0 29 -9.5 48t-38.5 19q-30 0 -53.5 -14t-42 -36.5t-31.5 -52t-22 -60.5l-34 -118q0 -2 -0.5 -5t-0.5 -5
q0 -14 10 -21t23 -7h19l-5 -16h-165l5 16q28 0 45 10.5t25 38.5l33 113q6 19 10 41t4 38q0 44 -14.5 61t-34.5 17q-19 0 -40 -11t-40.5 -29t-35.5 -41t-23 -48l-43 -140q-2 -5 -3 -11t-1 -11q0 -14 9.5 -21t23.5 -7h18l-5 -16h-180l5 16h14q29 0 46 10t26 39l68 227v0z" />
    <glyph glyph-name="n" unicode="n" horiz-adv-x="575" 
d="M159 292q4 9 4 23q0 11 -5.5 19t-21.5 8h-23v16q30 0 61.5 2.5t58.5 16.5l7 -14l-13 -6l-22 -74q23 32 54.5 53.5t72.5 21.5q22 0 42 -8t35.5 -22t24.5 -33t9 -41q0 -23 -5.5 -46.5t-13.5 -47.5q-7 -24 -13 -48.5t-6 -50.5q0 -18 9 -32.5t30 -14.5t40 11t34 28.5t26 38
t17 38.5l14 -4q-6 -21 -17.5 -43.5t-28.5 -41t-39 -30.5t-49 -12q-33 0 -59.5 19t-26.5 54q0 22 5.5 44t12.5 45q7 24 13 48t6 48q0 32 -14.5 55.5t-50.5 23.5q-32 0 -57 -14.5t-43.5 -36.5t-31.5 -48.5t-20 -50.5l-37 -120q-2 -5 -3 -11t-1 -11q0 -14 9.5 -21t23.5 -7h18
l-5 -16h-180l5 16h14q29 0 46 10t26 39l68 227v0z" />
    <glyph glyph-name="o" unicode="o" horiz-adv-x="457" 
d="M223 -7q-37 0 -69 14t-55.5 38t-37 56t-13.5 68q0 40 15.5 74.5t42.5 60t62.5 40.5t74.5 15q37 0 69.5 -14t56.5 -38t38 -56.5t14 -69.5q0 -41 -16 -75t-43.5 -59.5t-63.5 -39.5t-75 -14zM245 344q-38 0 -66 -18.5t-46 -47.5t-27 -64t-9 -68q0 -58 34 -96.5t93 -38.5
q34 0 61 18t46 46t29 61t10 63q0 28 -8.5 54t-24.5 46.5t-39 32.5t-53 12z" />
    <glyph glyph-name="p" unicode="p" horiz-adv-x="453" 
d="M141 128q4 -21 12.5 -40t21.5 -33.5t31.5 -23.5t42.5 -9q29 0 54 14.5t44 38.5q20 26 31 59t11 71q0 22 -6 46t-18.5 43t-31 31.5t-43.5 12.5q-34 0 -60.5 -18t-43.5 -45zM212 357l-12 -37q20 21 47 34.5t56 13.5q30 0 53.5 -12t39.5 -32.5t24.5 -46.5t8.5 -54
q0 -44 -15.5 -83t-41.5 -69q-26 -32 -60.5 -50t-72.5 -18q-39 0 -69.5 21.5t-42.5 56.5l-44 -142q-10 -33 -28 -63t-43.5 -52.5t-57 -36t-68.5 -13.5q-21 0 -40 7t-33.5 20t-23.5 31t-9 40q0 33 21.5 59t54.5 32l2 -16q-25 -5 -40.5 -24t-15.5 -45q0 -36 25 -61.5t62 -25.5
q32 0 56 12t41.5 32t29 45.5t19.5 52.5l109 359q2 6 3 12.5t1 11.5q0 11 -6 18.5t-22 7.5h-22v16q30 0 61 2.5t59 16.5l7 -14z" />
    <glyph glyph-name="q" unicode="q" horiz-adv-x="388" 
d="M185 -159q-10 0 -22 -3t-22.5 -8.5t-17.5 -14.5t-7 -21q0 -5 4.5 -9t10.5 -4q11 0 19.5 6.5t15 15.5t11.5 19t8 19zM313 255q-3 17 -8.5 34t-14.5 30.5t-22.5 22t-31.5 8.5q-39 0 -68.5 -24t-49 -59t-29 -75t-9.5 -71q0 -18 4 -36t13 -32.5t23.5 -23t36.5 -8.5q15 0 31 7
t30 18.5t26.5 25.5t21.5 29zM255 -89q-8 -29 -21 -56q27 -6 53 -16.5t50 -24.5q11 -6 25.5 -9.5t27.5 -3.5q14 0 26 4.5t23 12.5l9 -13q-16 -11 -34.5 -16t-38.5 -5q-26 0 -50 9t-48 20l-26 12t-27 10q-15 -26 -38.5 -47.5t-55.5 -21.5q-14 0 -21.5 8t-7.5 20q0 17 9 29.5
t22.5 20.5t29.5 12t31 4l58 193q-21 -23 -47.5 -37.5t-58.5 -14.5q-29 0 -50.5 11.5t-35.5 30.5t-20.5 44t-6.5 51q0 39 14 80.5t39.5 75t61 55.5t78.5 22q44 0 67 -26t32 -61q16 34 43.5 58t65.5 29l2 -15q-29 -5 -43.5 -26t-22.5 -47z" />
    <glyph glyph-name="r" unicode="r" horiz-adv-x="411" 
d="M159 292q4 9 4 23q0 11 -5.5 19t-21.5 8h-23v16q30 0 61.5 2.5t58.5 16.5l7 -14l-13 -6l-20 -65q26 34 60 57.5t76 23.5q25 0 46.5 -14.5t21.5 -42.5q0 -19 -12 -34.5t-29 -23.5l-7 14q9 4 15 11.5t6 19.5q0 18 -14.5 30.5t-34.5 12.5q-24 0 -45.5 -9t-39.5 -24
t-32.5 -34.5t-26.5 -40.5l-53 -172q-2 -5 -3 -11t-1 -11q0 -14 9.5 -21t23.5 -7h18l-5 -16h-180l5 16h14q29 0 46 10t26 39l68 227v0z" />
    <glyph glyph-name="s" unicode="s" horiz-adv-x="307" 
d="M24 85q0 11 7 21.5t20 10.5q9 0 14.5 -7t5.5 -15t-7 -17q-7 -5 -7 -13q0 -15 8.5 -26t21 -18.5t27 -11t27.5 -3.5q16 0 34 5t32.5 15.5t24 26t9.5 36.5q0 15 -6 27t-15.5 22t-21 18t-23.5 15l-29.5 18.5t-25.5 21.5t-17.5 28t-6.5 37q0 22 10.5 40t27 30.5t37.5 19
t41 6.5q15 0 31.5 -4.5t31 -13.5t23.5 -22t9 -31q0 -8 -3.5 -14.5t-11.5 -6.5t-12.5 7t-4.5 15t2 12q-8 19 -25.5 30t-40.5 11q-15 0 -30 -4.5t-26.5 -13t-19 -21t-7.5 -29.5q0 -23 17 -36.5t34 -23.5l33 -22.5t31 -25.5t23 -31.5t9 -38.5q0 -27 -11.5 -49t-31 -37.5
t-44 -24t-49.5 -8.5q-20 0 -40.5 6.5t-37 18.5t-27 29.5t-10.5 40.5z" />
    <glyph glyph-name="t" unicode="t" horiz-adv-x="501" 
d="M248 358l75.5 9.5t75.5 4.5q16 0 34 -3t33 -10.5t25 -21.5t10 -35q0 -26 -20.5 -41.5t-45.5 -15.5v15q18 0 33 11t17 32q0 16 -11 25.5t-26 14.5t-32 6t-29 1q-35 0 -70 -4l-75 -9l-48 -176l-12 -43.5t-6 -45.5q0 -32 16 -49.5t51 -17.5q48 0 88.5 25.5t57.5 73.5l14 -5
q-9 -26 -26.5 -47t-40 -35.5t-48.5 -22.5t-53 -8q-19 0 -37.5 6t-33.5 17t-24 27t-9 37q0 25 5 48.5t12 47.5l47 163q-54 -7 -109 -21q-13 -4 -26 -6l-27 -4l-1 16q33 2 69 14t68.5 31.5t59.5 44.5t44 54l14 -7q-13 -23 -22.5 -46.5t-16.5 -49.5z" />
    <glyph glyph-name="u" unicode="u" horiz-adv-x="511" 
d="M47 257q0 -14 7 -30l-13 -7q-9 18 -9 37q0 21 7.5 39t20.5 31.5t31.5 21.5t41.5 8q32 0 52.5 -21t20.5 -54q0 -26 -8 -50.5t-18 -50.5q-9 -25 -17.5 -52t-8.5 -53q0 -31 15 -47.5t39 -16.5q22 0 42 14.5t37 35.5t30.5 45.5t22.5 44.5l93 199h50l-77 -253q-2 -8 -4.5 -17
t-2.5 -17q0 -14 5.5 -25t21.5 -11q26 0 44 21t27 42l14 -6q-6 -14 -16 -28.5t-23.5 -26.5t-29 -19.5t-31.5 -7.5q-27 0 -42.5 14.5t-15.5 41.5q0 17 5 37l52 170l-55 -119q-11 -24 -26.5 -51t-34.5 -49.5t-41.5 -37t-47.5 -14.5q-41 0 -68 24.5t-27 64.5q0 26 8 54t18 54
t18.5 51t8.5 50q0 23 -12.5 34t-29.5 11q-15 0 -28.5 -7t-23.5 -18.5t-16 -26t-6 -29.5z" />
    <glyph glyph-name="v" unicode="v" horiz-adv-x="539" 
d="M202 80l22.5 36.5l30 46t36 50t40.5 49.5q35 38 72.5 65t72.5 27q26 0 44.5 -14.5t18.5 -42.5q0 -19 -13 -35l-13 9q6 10 6 22q0 21 -11.5 28.5t-28.5 7.5q-16 0 -34.5 -8.5t-39 -23.5t-41 -35.5t-41.5 -44.5q-24 -27 -46 -56.5t-41.5 -58.5t-35.5 -55.5t-26 -46.5h-15
v136q0 40 -3 76t-10 63.5t-19 43.5t-30 16q-22 0 -35.5 -18.5t-13.5 -41.5q0 -16 6 -29l-14 -6q-8 18 -8 35q0 35 22 59t57 24q27 0 44.5 -18.5t28 -48t14.5 -65.5t4 -71v-75v0z" />
    <glyph glyph-name="w" unicode="w" horiz-adv-x="758" 
d="M201 82l71 111.5t82 103.5q-5 17 -16 32.5t-31 15.5q-12 0 -25 -8l-8 14q22 14 48 14q20 0 35.5 -10t26.5 -27q13 13 29.5 23.5t39.5 10.5q13 0 30 -5l-5 -15q-9 3 -19 3q-20 0 -35.5 -10.5t-30.5 -24.5q9 -24 11 -47l12 -183l29.5 48.5t38.5 59t45.5 60.5t51.5 53.5
t54.5 38t55.5 14.5t47.5 -14.5t19.5 -42.5q0 -19 -14 -35l-12 9q6 10 6 22q0 21 -14.5 29t-32.5 8q-20 0 -43.5 -13t-49 -34.5t-50.5 -49t-48 -57.5q-19 -25 -36 -50.5t-31 -49.5l-24.5 -43.5l-17.5 -32.5h-16l-18 271q-52 -60 -96.5 -131l-85.5 -140h-16l-13 273
q-1 21 -10 40.5t-34 19.5t-40 -18t-15 -41q0 -8 2 -14.5t5 -13.5l-14 -6q-8 16 -8 34t6.5 33t18 26t27 17.5t32.5 6.5q20 0 34 -8t23.5 -21.5t14 -30.5t5.5 -34l8 -181v0z" />
    <glyph glyph-name="x" unicode="x" horiz-adv-x="570" 
d="M459 1q-32 0 -59 15.5t-44 41.5l-76 119l-18 -24q-20 -28 -43 -56.5t-47.5 -52t-50 -38.5t-52.5 -15q-26 0 -47.5 16.5t-21.5 45.5q0 17 10.5 31t25.5 22l7 -14q-11 -6 -18.5 -16t-7.5 -23q0 -21 16.5 -31t35.5 -10q26 0 54 19t56 48q26 26 48.5 54t43.5 57l-31 49
q-8 12 -17.5 28t-22 31t-27 25t-32.5 10q-19 0 -34.5 -13.5t-20.5 -30.5l-15 5q8 28 31.5 46t52.5 18q20 0 37.5 -7.5t32.5 -19.5t27 -27t22 -30l32 -51q16 20 37.5 44.5t46 46.5t51.5 36.5t55 14.5q13 0 26 -4t23.5 -12t17 -19.5t6.5 -26.5q0 -17 -10.5 -31t-25.5 -22
l-7 14q11 6 19 16t8 24q0 21 -17.5 30.5t-40.5 9.5q-24 0 -50 -15t-50.5 -36t-45 -44l-34.5 -40l68 -109q8 -13 17.5 -26.5t20.5 -25t24.5 -19t30.5 -7.5q28 0 49 21.5t30 45.5l15 -5q-14 -36 -43 -59.5t-68 -23.5z" />
    <glyph glyph-name="y" unicode="y" horiz-adv-x="674" 
d="M653 287q0 30 -20 46t-49 16q-30 0 -55 -13.5t-52 -42.5q-51 -54 -92 -117l-83 -128l-38.5 -59t-47.5 -67t-56 -66.5t-63 -58t-69 -41t-74 -15.5q-26 0 -50.5 8.5t-43 24.5t-29.5 38.5t-11 50.5q0 25 9.5 47.5t26.5 39.5t39 27.5t48 10.5q23 0 42 -10t33 -28l-13 -9
q-22 32 -62 32q-44 0 -71 -30t-27 -72q0 -24 9.5 -44.5t25.5 -36t37.5 -24t44.5 -8.5q42 0 82.5 26t75 61.5t61.5 73.5l44 62l39 57l-91 226q-12 29 -24.5 47t-35.5 18q-21 0 -32.5 -19.5t-11.5 -37.5q0 -27 19 -46l-11 -11q-24 24 -24 57t20.5 56.5t55.5 23.5
q33 0 55.5 -24.5t34.5 -53.5l74 -188l60.5 92t69 91t77.5 69.5t87 27.5q16 0 31.5 -5t28 -14t20 -22.5t7.5 -30.5q0 -28 -17.5 -50t-46.5 -23q-19 2 -34 12l9 13q12 -9 26 -9q21 0 31.5 15t10.5 35z" />
    <glyph glyph-name="z" unicode="z" horiz-adv-x="541" 
d="M116 41q-5 1 -11 1.5t-18 0.5q-5 0 -15.5 -1t-21.5 -4t-19.5 -8t-8.5 -12q0 -6 7.5 -9.5t14.5 -3.5q21 0 37.5 9.5t34.5 26.5zM191 58l-3.5 -3.5l-3.5 -3.5q51 -8 101.5 -19.5t101.5 -11.5q16 0 35.5 4.5t36.5 14.5t28 25t11 35q0 16 -10.5 26t-26.5 10q-19 0 -30 -14
l-12 10q16 19 43 19q21 0 38 -12.5t17 -35.5q0 -30 -15 -50t-38 -31.5t-50 -16.5t-52 -5q-36 0 -73 6.5t-72 15.5q-24 6 -52 12q-26 -20 -56.5 -32t-65.5 -12q-13 0 -28 7t-15 22q0 13 9 21t22 12.5t27.5 6t24.5 1.5q12 0 23.5 -0.5t23.5 -1.5l232 264q-27 0 -50.5 2t-46 5
t-45 5t-48.5 2q-15 0 -33.5 -3.5t-34 -11.5t-26.5 -21t-11 -33q0 -19 13.5 -31.5t31.5 -12.5q24 0 37 19l13 -9q-18 -26 -50 -26q-25 0 -42.5 17.5t-17.5 42.5q0 24 11 41.5t29 29.5t40.5 17.5t44.5 5.5q46 0 91.5 -10.5t92.5 -10.5q20 0 41 4t38 15l9 -12z" />
    <glyph glyph-name="braceleft" unicode="{" horiz-adv-x="343" 
d="M187 -48q0 -27 -19 -41.5t-45 -14.5q-27 0 -50 10t-39 27.5t-25 41t-9 50.5q0 36 11 72l33 104q2 8 2 14q0 14 -6.5 27t-19.5 16l5 14q40 0 51 35l28 91q8 25 23.5 46.5t36.5 36.5t46 23.5t52 8.5q14 0 28.5 -4t26 -12t19 -20t7.5 -28q0 -24 -17 -39.5t-39 -15.5h-6.5
t-6.5 1l4 15q2 0 4.5 -0.5t4.5 -0.5q15 0 26 12t11 29q0 25 -21 36.5t-43 11.5t-39.5 -9.5t-31 -24.5t-23.5 -33.5t-16 -37.5l-26 -85q-7 -22 -23.5 -36.5t-38.5 -18.5q24 -24 24 -57q0 -14 -4 -26l-29 -94q-5 -16 -8.5 -34t-3.5 -36q0 -39 20 -66.5t65 -27.5q20 0 33 12
t13 29q0 11 -6 21t-18 15l6 14q16 -6 24.5 -20t8.5 -31z" />
    <glyph glyph-name="bar" unicode="|" horiz-adv-x="68" 
d="M12 617h44v-1006h-44v1006z" />
    <glyph glyph-name="braceright" unicode="}" horiz-adv-x="343" 
d="M156 457q0 28 19 42t45 14q27 0 50 -10t39 -27.5t25 -41t9 -50.5q0 -36 -11 -72l-33 -104q-2 -8 -2 -13q0 -14 6.5 -27.5t19.5 -16.5l-5 -14q-40 0 -51 -35l-28 -91q-8 -26 -23.5 -47t-36.5 -36t-46 -23.5t-52 -8.5q-14 0 -28.5 4t-26 12.5t-19 20.5t-7.5 28q0 24 17 39
t39 15h6.5t6.5 -1l-4 -15q-3 1 -9 1q-16 0 -26.5 -12t-10.5 -29q0 -13 6 -22t15 -15t20.5 -8.5t22.5 -2.5q22 0 39.5 9.5t31 24.5t23 34t15.5 38l27 84q7 22 23.5 36.5t38.5 18.5q-24 24 -24 57q0 14 4 26l29 94q5 16 8.5 34t3.5 36q0 40 -20.5 67.5t-64.5 27.5
q-20 0 -33 -12t-13 -30q0 -11 6 -21t18 -15l-6 -14q-16 6 -24.5 20t-8.5 31z" />
    <glyph glyph-name="asciitilde" unicode="~" horiz-adv-x="427" 
d="M427 266q-27 -27 -54 -38.5t-57 -11.5q-26 0 -52.5 8t-52.5 17.5t-50.5 17.5t-46.5 8q-20 0 -39 -8t-39 -27l-36 37q27 27 55.5 38t58.5 11q25 0 51 -8t52 -17l50.5 -17t46.5 -8q20 0 38 7t38 27l37 -36v0z" />
    <glyph glyph-name="nonbreakingspace" unicode="&#xa0;" horiz-adv-x="300" 
 />
    <glyph glyph-name="exclamdown" unicode="&#xa1;" horiz-adv-x="210" 
d="M171 248q-15 0 -27 10t-12 26q0 17 12 27t27 10t27 -10t12 -27q0 -16 -12 -26t-27 -10zM0 -204l145 432h31l-120 -434z" />
    <glyph glyph-name="cent" unicode="&#xa2;" horiz-adv-x="309" 
d="M203 389q-30 -3 -54.5 -16.5t-42 -34.5t-27 -48.5t-9.5 -57.5q0 -34 14 -61.5t40 -41.5zM224 405q13 -1 28 -4.5t27.5 -10.5t21 -18t8.5 -27q0 -11 -7 -21t-20 -10q-9 0 -14.5 7t-5.5 15q0 5 2 11q2 4 5.5 7t3.5 6q0 7 -6.5 13t-15.5 9.5t-18 5.5t-14 2l-81 -268
q16 -6 37 -6q29 0 55 17.5t40 41.5l13 -8q-19 -34 -53 -52.5t-72 -18.5q-7 0 -13.5 0.5t-13.5 1.5l-30 -98h-16l31 102q-39 12 -65.5 43t-26.5 76q0 37 15 69.5t40.5 57.5t59 40t69.5 17l28 92h16z" />
    <glyph glyph-name="sterling" unicode="&#xa3;" horiz-adv-x="525" 
d="M161 195l5 15h89q15 33 27.5 67t26.5 68q10 26 25.5 56.5t36 56.5t47 43.5t59.5 17.5q14 0 30 -7.5t16 -24.5q0 -14 -9.5 -22.5t-22.5 -8.5q-8 0 -15 5t-12 12q-5 6 -13 9t-16 3q-12 0 -22.5 -8t-18 -19t-13 -23.5t-8.5 -22.5q-9 -32 -20 -62.5t-21 -62.5l-14 -39.5
t-15 -37.5h91l-4 -15h-94q-8 -17 -17 -32t-19 -29q-37 -50 -84 -77q26 -3 53 -11l56 -17l77.5 -21.5t81.5 -10.5q16 0 27.5 9.5t11.5 21.5q0 8 -5 14t-5 18q0 10 6.5 18t17.5 8q13 0 20.5 -10t7.5 -21q0 -26 -15 -42.5t-37.5 -25.5t-49 -12.5t-48.5 -3.5q-77 0 -150 31
q-16 7 -39 18.5t-48 11.5q-17 -20 -39 -33.5t-49 -13.5q-8 0 -17 4t-9 14q0 17 15 27.5t35.5 17t41 9t32.5 2.5q34 24 58 61t42 75h-87z" />
    <glyph glyph-name="currency" unicode="&#xa4;" horiz-adv-x="584" 
d="M522 333q10 22 10 41q0 31 -16.5 55t-42 40t-57 24.5t-61.5 8.5q-50 0 -91 -17.5t-71 -48t-48.5 -71t-23.5 -86.5h395l-7 -16h-389q0 -5 -0.5 -10t-0.5 -10q0 -4 0.5 -8t0.5 -8h372l-7 -16h-364q4 -42 21 -78.5t44 -63t64 -41.5t83 -15q37 0 74 10.5t66 33.5v-20
q-32 -23 -70 -33t-76 -10q-52 0 -97 15t-79 42.5t-55.5 68t-25.5 91.5h-46l5 16h40v10v13.5t1 12.5h-46l5 16h43q7 52 32 96t63 76t86 50t102 18q30 0 60.5 -5.5t58 -17.5t50 -31.5t36.5 -47.5l10 20l14 -6l-45 -98h-17v0z" />
    <glyph glyph-name="yen" unicode="&#xa5;" horiz-adv-x="557" 
d="M240 301q8 35 30.5 74.5t55 72.5t73 55t84.5 22q12 0 25 -2.5t24 -9t18 -16.5t7 -25q0 -11 -6 -21t-16 -16l-9 12q6 5 10.5 11t4.5 15q0 17 -17 25t-34 8q-24 0 -49.5 -12t-50 -32t-46.5 -44t-40 -49t-30.5 -47t-17.5 -37h181l-5 -16h-178l-10 -36h177l-5 -16h-176
l-43 -158q-2 -8 -2 -12q0 -16 9.5 -23.5t24.5 -7.5h22l-5 -16h-177l4 16q27 0 46.5 8.5t27.5 39.5l42 153h-165l5 16h164l10 36h-163l5 16h159q0 32 -9.5 71t-28.5 73t-47.5 57t-67.5 24v15h4q50 0 85 -18.5t57.5 -49.5t32.5 -71.5t10 -84.5z" />
    <glyph glyph-name="brokenbar" unicode="&#xa6;" horiz-adv-x="68" 
d="M12 617h44v-483h-44v483zM12 94h44v-483h-44v483z" />
    <glyph glyph-name="section" unicode="&#xa7;" horiz-adv-x="752" 
d="M126 156q1 -22 14.5 -38t32.5 -27t41 -16.5t40 -5.5q34 0 69 19t68 48t63.5 63.5l56.5 64.5l16 19.5l16 18.5q11 13 17.5 26t6.5 31q0 29 -21.5 49.5t-50.5 20.5q-21 0 -40 -9.5t-36.5 -26t-34.5 -37.5l-34 -44q-21 -28 -44 -55.5t-50 -49.5t-59 -36t-71 -15zM582 359
q0 -11 -2 -21t-7 -20q16 21 40 32.5t50 11.5q17 0 33 -5.5t28.5 -15.5t20 -24.5t7.5 -32.5q0 -29 -19 -51.5t-51 -22.5q-3 0 -6 0.5t-7 0.5l3 16q3 -1 8 -1q23 0 40 16.5t18 41.5q-1 23 -17.5 39.5t-40.5 16.5q-23 0 -45.5 -16t-36.5 -33l-22 -25.5l-22 -25.5l-60.5 -70
t-66 -60.5t-77.5 -43t-96 -16.5q-22 0 -47 7.5t-46 21.5t-35 34t-15 44q-24 3 -44 13.5t-35 27t-23.5 38t-8.5 45.5q0 21 8 39t22 32t32 22t39 8q29 0 53 -17.5t30 -46.5l-15 -3q-5 24 -25 37.5t-44 13.5q-18 0 -33.5 -7t-27 -18.5t-18 -27.5t-6.5 -34q0 -21 8.5 -39
t23.5 -31t34 -20.5t40 -7.5q30 0 55.5 12.5t47.5 32.5t41.5 45.5l38.5 51.5l36.5 49t39 43t43.5 30t50 11q20 0 39.5 -7t35 -19.5t25 -30.5t9.5 -40z" />
    <glyph glyph-name="dieresis" unicode="&#xa8;" horiz-adv-x="165" 
d="M36 450q15 0 25.5 -10.5t10.5 -25.5q0 -14 -10.5 -25t-25.5 -11t-25.5 11t-10.5 25q0 15 10.5 25.5t25.5 10.5zM129 450q15 0 25.5 -10.5t10.5 -25.5q0 -14 -10.5 -25t-25.5 -11t-25.5 11t-10.5 25q0 15 10.5 25.5t25.5 10.5z" />
    <glyph glyph-name="copyright" unicode="&#xa9;" horiz-adv-x="525" 
d="M250 440q39 0 74 -20v14q0 11 10 11q4 0 9.5 -4.5t11 -11t9.5 -13t6 -10.5q8 -12 14 -26t10 -27l-14 -7q-23 33 -55.5 56t-74.5 23q-29 0 -50.5 -15t-35.5 -38t-21.5 -50.5t-7.5 -51.5q0 -33 10 -64.5t29.5 -57t48 -41t64.5 -15.5q56 0 100 35l10 -12q-54 -43 -125 -43
q-38 0 -70.5 15t-56.5 40t-38 58.5t-14 70.5q0 33 11 66t31 59.5t49.5 42.5t65.5 16zM263 504q-51 0 -96.5 -19.5t-79 -53t-53 -78.5t-19.5 -96t19.5 -96t53 -78.5t79 -53t96.5 -19.5t96 19.5t78.5 53t53 78.5t19.5 96t-19.5 96t-53 78.5t-78.5 53t-96 19.5zM263 519
q54 0 101.5 -20.5t83.5 -56.5t56.5 -83.5t20.5 -101.5t-20.5 -102t-56.5 -84t-83.5 -56.5t-101.5 -20.5t-102 20.5t-84 56.5t-56.5 84t-20.5 102t20.5 101.5t56.5 83.5t84 56.5t102 20.5z" />
    <glyph glyph-name="ordfeminine" unicode="&#xaa;" horiz-adv-x="272" 
d="M198 462q-5 24 -21 37t-33 13q-23 0 -41.5 -12t-31 -30.5t-19 -41.5t-6.5 -44q0 -38 14 -55t33 -17q23 0 47.5 21.5t35.5 57.5zM272 361q-4 -10 -9.5 -20.5t-13 -19.5t-17.5 -14.5t-22 -5.5q-20 0 -30 16t-10 35q-15 -26 -37 -39t-45 -13q-29 0 -52 20.5t-23 63.5
q0 24 9 49t26 45t41 33t53 13q19 0 36.5 -11.5t24.5 -31.5l12 38h27l-38 -126q-3 -9 -5 -21t-2 -22q0 -9 4.5 -21.5t18.5 -12.5q8 0 15 5t12.5 12.5t9.5 16t6 15.5l9 -4v0zM245 283l-5 -17h-240l5 17h240z" />
    <glyph glyph-name="guillemotleft" unicode="&#xab;" horiz-adv-x="231" 
d="M0 213l110 144h21l-70 -144l69 -143h-20zM100 213l110 144h21l-70 -144l69 -143h-20z" />
    <glyph glyph-name="logicalnot" unicode="&#xac;" horiz-adv-x="367" 
d="M316 247h-316v52h367v-165h-51v113z" />
    <glyph glyph-name="registered" unicode="&#xae;" horiz-adv-x="292" 
d="M128 444q-8 0 -8 -8v-74q10 -4 18 -4q17 0 30 12.5t13 30.5t-13 30.5t-30 12.5h-10v0zM143 459q26 0 47 -16t21 -43q0 -19 -12 -33t-29 -21l15.5 -29t25.5 -16h4l3 -15q-8 -3 -15 -3q-22 0 -32 11t-18 25q-4 7 -8.5 13t-9.5 10q-8 0 -15 3v-32q0 -13 13 -13v-16h-52v16
q12 0 12 13v123q0 8 -8 8h-4v15h62zM146 504q-27 0 -51 -10.5t-41.5 -28t-28 -41.5t-10.5 -51t10.5 -50.5t28 -41.5t41.5 -28t51 -10t50.5 10t41.5 28t28 41.5t10 50.5t-10 51t-28 41.5t-41.5 28t-50.5 10.5zM146 519q30 0 56.5 -11.5t46.5 -31t31.5 -46.5t11.5 -57
t-11.5 -56.5t-31.5 -46.5t-46.5 -31.5t-56.5 -11.5t-56.5 11.5t-46.5 31.5t-31.5 46.5t-11.5 56.5t11.5 57t31.5 46.5t46.5 31t56.5 11.5z" />
    <glyph glyph-name="macron" unicode="&#xaf;" horiz-adv-x="297" 
d="M297 409v-42h-297v42h297z" />
    <glyph glyph-name="degree" unicode="&#xb0;" horiz-adv-x="219" 
d="M110 518q-24 0 -41.5 -17t-17.5 -41t17.5 -41t41.5 -17t41 17t17 41t-17 41t-41 17zM110 569q22 0 42 -8.5t35 -23.5t23.5 -35t8.5 -42q0 -23 -8.5 -43t-23.5 -35t-35 -23.5t-42 -8.5q-23 0 -43 8.5t-35 23.5t-23.5 35t-8.5 43q0 22 8.5 42t23.5 35t35 23.5t43 8.5z" />
    <glyph glyph-name="plusminus" unicode="&#xb1;" horiz-adv-x="367" 
d="M367 51v-52h-367v52h367zM158 299v158h51v-158h158v-52h-158v-158h-51v158h-158v52h158z" />
    <glyph glyph-name="twosuperior" unicode="&#xb2;" horiz-adv-x="0" 
 />
    <glyph glyph-name="threesuperior" unicode="&#xb3;" horiz-adv-x="0" 
 />
    <glyph glyph-name="acute" unicode="&#xb4;" horiz-adv-x="208" 
d="M144 489q16 14 34 14q12 0 21 -7t9 -22q0 -9 -5.5 -18.5t-18.5 -15.5l-156 -80h-28z" />
    <glyph glyph-name="mu" unicode="&#xb5;" horiz-adv-x="481" 
d="M15 248q0 -15 7 -31l-13 -7q-9 18 -9 38t8.5 37.5t22.5 30t32.5 19.5t38.5 7q32 0 52.5 -18.5t20.5 -51.5q0 -17 -4 -29l-40 -134q-3 -9 -4 -19.5t-1 -20.5q0 -11 3.5 -23.5t10 -22.5t16.5 -16.5t23 -6.5q26 0 46.5 15t37 37t28.5 46.5l21 44.5l89 198h53l-78 -253
l-4 -16t-2 -17q0 -14 5.5 -25t21.5 -11q25 0 43 20t27 41l14 -6q-6 -14 -16.5 -28.5t-23.5 -26.5t-28.5 -19.5t-31.5 -7.5q-26 0 -42 15t-16 42q0 19 6 37l52 173l-55 -122q-10 -23 -23.5 -49.5t-31 -49t-40.5 -38t-52 -15.5q-46 0 -75 35l-38 -124h-47l109 360q5 15 5 27
q0 19 -13.5 29.5t-30.5 10.5q-30 0 -52 -22.5t-22 -52.5z" />
    <glyph glyph-name="mu" unicode="&#x3bc;" horiz-adv-x="481" 
d="M15 248q0 -15 7 -31l-13 -7q-9 18 -9 38t8.5 37.5t22.5 30t32.5 19.5t38.5 7q32 0 52.5 -18.5t20.5 -51.5q0 -17 -4 -29l-40 -134q-3 -9 -4 -19.5t-1 -20.5q0 -11 3.5 -23.5t10 -22.5t16.5 -16.5t23 -6.5q26 0 46.5 15t37 37t28.5 46.5l21 44.5l89 198h53l-78 -253
l-4 -16t-2 -17q0 -14 5.5 -25t21.5 -11q25 0 43 20t27 41l14 -6q-6 -14 -16.5 -28.5t-23.5 -26.5t-28.5 -19.5t-31.5 -7.5q-26 0 -42 15t-16 42q0 19 6 37l52 173l-55 -122q-10 -23 -23.5 -49.5t-31 -49t-40.5 -38t-52 -15.5q-46 0 -75 35l-38 -124h-47l109 360q5 15 5 27
q0 19 -13.5 29.5t-30.5 10.5q-30 0 -52 -22.5t-22 -52.5z" />
    <glyph glyph-name="paragraph" unicode="&#xb6;" horiz-adv-x="484" 
d="M322 84q24 0 37.5 21t20 49t8.5 56.5t2 43.5v194q0 10 -7 17t-18 7q-19 0 -36 -19.5t-31 -52.5q-14 -35 -22 -82t-8 -101q0 -12 1.5 -34t7 -44t16 -38.5t29.5 -16.5zM279 -179q34 0 55.5 20.5t34 51.5t17 68t4.5 69v93q-13 -33 -35 -60t-50.5 -46.5t-61.5 -30t-69 -10.5
q-33 0 -64.5 12t-56 33.5t-39 51t-14.5 64.5q0 82 37 151.5t103 120.5q73 57 163 83.5t181 26.5v-15q-17 0 -30 -6.5t-13 -26.5v-422q0 -37 -9.5 -79.5t-29.5 -79t-50.5 -61t-72.5 -24.5q-12 0 -23.5 3.5t-21 10.5t-15.5 17t-6 23q0 15 9.5 27t22.5 19l7 -14q-9 -5 -16 -13
t-7 -19q0 -19 16.5 -28.5t33.5 -9.5z" />
    <glyph glyph-name="periodcentered" unicode="&#xb7;" horiz-adv-x="79" 
d="M39 227q15 0 27.5 -10t12.5 -26q0 -17 -12.5 -27t-27.5 -10t-27 10t-12 27q0 16 12 26t27 10z" />
    <glyph glyph-name="cedilla" unicode="&#xb8;" horiz-adv-x="149" 
d="M77 -26q29 -7 50.5 -30t21.5 -55q0 -19 -8 -34.5t-20.5 -26.5t-29.5 -17t-35 -6q-7 0 -16.5 1t-18.5 4.5t-15 9.5t-6 16q0 11 8 17t19 6q9 0 15 -3t11 -8q5 -4 10.5 -7t14.5 -3q14 0 25.5 10.5t11.5 24.5t-7.5 25t-19.5 18t-25.5 10.5t-25.5 3.5h-17l88 104l11 -10
l-42 -50v0z" />
    <glyph glyph-name="onesuperior" unicode="&#xb9;" horiz-adv-x="0" 
 />
    <glyph glyph-name="ordmasculine" unicode="&#xba;" horiz-adv-x="268" 
d="M158 515q-24 0 -41.5 -12t-29.5 -30t-17.5 -40t-5.5 -43q0 -36 21.5 -60.5t58.5 -24.5q22 0 39 11.5t29 29t18 38t6 39.5q0 36 -20.5 64t-57.5 28zM245 283l-5 -17h-240l5 17h240zM144 294q-23 0 -43 9t-35 24t-23.5 35t-8.5 43q0 26 10 48t26.5 37.5t38.5 24.5t47 9
q23 0 43.5 -9t35.5 -24t24 -35.5t9 -43.5q0 -26 -10 -47.5t-27 -37t-39.5 -24.5t-47.5 -9z" />
    <glyph glyph-name="guillemotright" unicode="&#xbb;" horiz-adv-x="231" 
d="M120 70h-19l69 143l-70 144h20l111 -144zM20 70h-19l69 143l-70 144h20l111 -144z" />
    <glyph glyph-name="onequarter" unicode="&#xbc;" horiz-adv-x="502" 
d="M367 117l55 179l-190 -179h135zM95 212q-3 -8 -3 -15q0 -9 6.5 -13t14.5 -4h16l-4 -15h-125l5 15q18 0 32 6t20 27l79 258q1 3 2 7t1 6q0 6 -5.5 8t-10.5 2h-20v15h19q17 0 33 2.5t31 10.5l7 -13l-8 -4zM438 524l-348 -525h-55l383 525h20zM429 117q19 0 34.5 10t28.5 21
l10 -11l-76 -72q-6 9 -12.5 14.5t-17.5 7.5l-13 -40q-2 -10 -2 -15q0 -9 6 -13t14 -4h12l-5 -16h-123l5 16q21 0 34.5 4.5t21.5 28.5l12 40h-152l-1 25l276 261l10 -12q-17 -17 -24 -42l-62 -203h24z" />
    <glyph glyph-name="onehalf" unicode="&#xbd;" horiz-adv-x="554" 
d="M95 212q-3 -8 -3 -15q0 -9 6.5 -13t14.5 -4h16l-4 -15h-125l5 15q18 0 32 6t20 27l79 258q1 3 2 7t1 6q0 6 -5.5 8t-10.5 2h-20v15h19q17 0 33 2.5t31 10.5l7 -13l-8 -4zM438 524l-348 -525h-55l383 525h20zM444 -23q-8 11 -16 16.5t-22 5.5h-136l-4 14l126 89
q18 12 37.5 28.5t36.5 36t28 41.5t11 46q0 29 -21 45t-47 16q-22 0 -42 -7t-35 -19t-24 -28.5t-9 -36.5q0 -17 10 -31.5t27 -22.5l-5 -15q-26 8 -41 26.5t-15 44.5q0 27 12.5 49.5t33.5 39t47.5 26t53.5 9.5q19 0 38 -6t33.5 -17t23.5 -28t9 -38q0 -24 -11.5 -47t-30 -44.5
t-42 -41t-48.5 -35.5l-95 -61h121q18 0 32.5 7.5t28.5 19.5l10 -12z" />
    <glyph glyph-name="threequarters" unicode="&#xbe;" horiz-adv-x="591" 
d="M456 117l54 179l-189 -179h135zM158 527q8 -11 16 -16.5t22 -5.5h125l5 -14l-121 -96l4 -1q34 -7 54 -28.5t20 -53.5q0 -34 -16.5 -62t-42 -48.5t-57.5 -32t-63 -11.5t-57 9.5t-47 32.5l39 36q7 -28 26 -44t51 -16q25 0 48.5 10t42 26.5t29.5 39t11 47.5q0 29 -19.5 44
t-51.5 15q-7 0 -13.5 -1t-12.5 -3l-7 13l131 105h-121q-18 0 -32.5 -8t-28.5 -19l-10 12zM526 525l-348 -526h-54l383 526h19zM518 117q18 0 33.5 10t29.5 21l10 -11l-76 -72q-7 9 -13 14.5t-17 7.5l-13 -40q-2 -10 -2 -15q0 -9 6 -13t14 -4h11l-4 -16h-123l4 16
q21 0 35 4.5t22 28.5l12 40h-152l-1 25l276 261l10 -12q-10 -9 -15.5 -19t-9.5 -23l-61 -203h24z" />
    <glyph glyph-name="questiondown" unicode="&#xbf;" horiz-adv-x="329" 
d="M229 227q-5 -43 -20 -75.5t-34 -58t-40 -46t-38 -40t-28.5 -39.5t-11.5 -44q0 -23 9.5 -39t24.5 -26.5t34 -15.5t39 -5q23 0 46 5t43 15.5t36 27t25 39.5l15 -14q-11 -27 -30 -48.5t-43 -36.5t-51.5 -23.5t-55.5 -8.5q-27 0 -53.5 7.5t-48 22.5t-34.5 37.5t-13 52.5
q0 36 13.5 62t34.5 47t46 40t48.5 42t42 52t26.5 70h18v0zM230 247q-15 0 -27 10t-12 26t12 26t27 10t27 -10t12 -26t-12 -26t-27 -10z" />
    <glyph glyph-name="Agrave" unicode="&#xc0;" 
d="M685 222l63.5 -14.5t63.5 -7.5q18 0 33 6v283zM845 189q-12 -4 -25 -5.5t-26 -1.5q-35 0 -66 6.5l-60 12.5q-37 -50 -83 -96t-98.5 -81t-111.5 -55.5t-122 -20.5q-40 0 -82.5 11.5t-78 34.5t-58 57.5t-22.5 80.5q0 54 23.5 98t61.5 75t87 47.5t100 16.5q25 0 53.5 -7
t51.5 -22t38.5 -37t15.5 -52q0 -37 -16 -65.5t-41.5 -48.5t-59 -31t-67.5 -11v15q30 0 58.5 9t50.5 26t35.5 41.5t13.5 57.5q0 27 -12.5 47.5t-32.5 34t-44 20t-48 6.5q-45 0 -88.5 -15t-77 -43t-54.5 -67t-21 -87q0 -43 19 -76t50 -55.5t69 -34t76 -11.5q60 0 116.5 20
t107.5 53t95 76.5t80 91.5l-29 4t-30 2q-34 0 -68 -16l-7 14q23 12 49.5 17t51.5 5q13 0 25.5 -1t24.5 -3l210 351l14 -4v-349q0 -50 -12.5 -100.5t-38 -94.5t-63 -76.5t-86.5 -44.5q58 -11 111 -35l105 -49t104 -44t109 -19q30 0 59 7.5t51 23t35.5 38.5t13.5 53
q0 37 -22.5 63.5t-60.5 26.5q-28 0 -50 -19l-10 12q13 11 28 17t32 6q22 0 40 -8.5t31.5 -23t21 -34t7.5 -41.5q0 -37 -18 -65t-45.5 -47t-61.5 -28.5t-66 -9.5q-46 0 -87.5 11.5t-81 29.5t-77 39t-75 40t-76 32.5t-78.5 16.5v14q49 0 88 25t66.5 64.5t42.5 88.5t16 96z
M874 600h-28l-156 80q-13 6 -18.5 15.5t-5.5 18.5q0 15 9 22t21 7q18 0 34 -14z" />
    <glyph glyph-name="Aacute" unicode="&#xc1;" 
d="M685 222l63.5 -14.5t63.5 -7.5q18 0 33 6v283zM845 189q-12 -4 -25 -5.5t-26 -1.5q-35 0 -66 6.5l-60 12.5q-37 -50 -83 -96t-98.5 -81t-111.5 -55.5t-122 -20.5q-40 0 -82.5 11.5t-78 34.5t-58 57.5t-22.5 80.5q0 54 23.5 98t61.5 75t87 47.5t100 16.5q25 0 53.5 -7
t51.5 -22t38.5 -37t15.5 -52q0 -37 -16 -65.5t-41.5 -48.5t-59 -31t-67.5 -11v15q30 0 58.5 9t50.5 26t35.5 41.5t13.5 57.5q0 27 -12.5 47.5t-32.5 34t-44 20t-48 6.5q-45 0 -88.5 -15t-77 -43t-54.5 -67t-21 -87q0 -43 19 -76t50 -55.5t69 -34t76 -11.5q60 0 116.5 20
t107.5 53t95 76.5t80 91.5l-29 4t-30 2q-34 0 -68 -16l-7 14q23 12 49.5 17t51.5 5q13 0 25.5 -1t24.5 -3l210 351l14 -4v-349q0 -50 -12.5 -100.5t-38 -94.5t-63 -76.5t-86.5 -44.5q58 -11 111 -35l105 -49t104 -44t109 -19q30 0 59 7.5t51 23t35.5 38.5t13.5 53
q0 37 -22.5 63.5t-60.5 26.5q-28 0 -50 -19l-10 12q13 11 28 17t32 6q22 0 40 -8.5t31.5 -23t21 -34t7.5 -41.5q0 -37 -18 -65t-45.5 -47t-61.5 -28.5t-66 -9.5q-46 0 -87.5 11.5t-81 29.5t-77 39t-75 40t-76 32.5t-78.5 16.5v14q49 0 88 25t66.5 64.5t42.5 88.5t16 96z
M927 727q16 14 34 14q12 0 21 -7t9 -22q0 -9 -5.5 -18.5t-18.5 -15.5l-156 -80h-28z" />
    <glyph glyph-name="Acircumflex" unicode="&#xc2;" 
d="M685 222l63.5 -14.5t63.5 -7.5q18 0 33 6v283zM845 189q-12 -4 -25 -5.5t-26 -1.5q-35 0 -66 6.5l-60 12.5q-37 -50 -83 -96t-98.5 -81t-111.5 -55.5t-122 -20.5q-40 0 -82.5 11.5t-78 34.5t-58 57.5t-22.5 80.5q0 54 23.5 98t61.5 75t87 47.5t100 16.5q25 0 53.5 -7
t51.5 -22t38.5 -37t15.5 -52q0 -37 -16 -65.5t-41.5 -48.5t-59 -31t-67.5 -11v15q30 0 58.5 9t50.5 26t35.5 41.5t13.5 57.5q0 27 -12.5 47.5t-32.5 34t-44 20t-48 6.5q-45 0 -88.5 -15t-77 -43t-54.5 -67t-21 -87q0 -43 19 -76t50 -55.5t69 -34t76 -11.5q60 0 116.5 20
t107.5 53t95 76.5t80 91.5l-29 4t-30 2q-34 0 -68 -16l-7 14q23 12 49.5 17t51.5 5q13 0 25.5 -1t24.5 -3l210 351l14 -4v-349q0 -50 -12.5 -100.5t-38 -94.5t-63 -76.5t-86.5 -44.5q58 -11 111 -35l105 -49t104 -44t109 -19q30 0 59 7.5t51 23t35.5 38.5t13.5 53
q0 37 -22.5 63.5t-60.5 26.5q-28 0 -50 -19l-10 12q13 11 28 17t32 6q22 0 40 -8.5t31.5 -23t21 -34t7.5 -41.5q0 -37 -18 -65t-45.5 -47t-61.5 -28.5t-66 -9.5q-46 0 -87.5 11.5t-81 29.5t-77 39t-75 40t-76 32.5t-78.5 16.5v14q49 0 88 25t66.5 64.5t42.5 88.5t16 96z
M849 697h24l134 -121h-31l-115 60l-115 -60h-30z" />
    <glyph glyph-name="Atilde" unicode="&#xc3;" 
d="M685 222l63.5 -14.5t63.5 -7.5q18 0 33 6v283zM845 189q-12 -4 -25 -5.5t-26 -1.5q-35 0 -66 6.5l-60 12.5q-37 -50 -83 -96t-98.5 -81t-111.5 -55.5t-122 -20.5q-40 0 -82.5 11.5t-78 34.5t-58 57.5t-22.5 80.5q0 54 23.5 98t61.5 75t87 47.5t100 16.5q25 0 53.5 -7
t51.5 -22t38.5 -37t15.5 -52q0 -37 -16 -65.5t-41.5 -48.5t-59 -31t-67.5 -11v15q30 0 58.5 9t50.5 26t35.5 41.5t13.5 57.5q0 27 -12.5 47.5t-32.5 34t-44 20t-48 6.5q-45 0 -88.5 -15t-77 -43t-54.5 -67t-21 -87q0 -43 19 -76t50 -55.5t69 -34t76 -11.5q60 0 116.5 20
t107.5 53t95 76.5t80 91.5l-29 4t-30 2q-34 0 -68 -16l-7 14q23 12 49.5 17t51.5 5q13 0 25.5 -1t24.5 -3l210 351l14 -4v-349q0 -50 -12.5 -100.5t-38 -94.5t-63 -76.5t-86.5 -44.5q58 -11 111 -35l105 -49t104 -44t109 -19q30 0 59 7.5t51 23t35.5 38.5t13.5 53
q0 37 -22.5 63.5t-60.5 26.5q-28 0 -50 -19l-10 12q13 11 28 17t32 6q22 0 40 -8.5t31.5 -23t21 -34t7.5 -41.5q0 -37 -18 -65t-45.5 -47t-61.5 -28.5t-66 -9.5q-46 0 -87.5 11.5t-81 29.5t-77 39t-75 40t-76 32.5t-78.5 16.5v14q49 0 88 25t66.5 64.5t42.5 88.5t16 96z
M798 686q18 0 36 -6.5t35 -15t33.5 -15t33.5 -6.5t32 10.5t15 29.5h18q0 -34 -21.5 -60t-56.5 -26q-18 0 -36 6.5t-36 14.5t-35.5 14.5t-33.5 6.5q-17 0 -31 -10t-16 -28h-17q0 37 21 61t59 24z" />
    <glyph glyph-name="Adieresis" unicode="&#xc4;" 
d="M685 222l63.5 -14.5t63.5 -7.5q18 0 33 6v283zM845 189q-12 -4 -25 -5.5t-26 -1.5q-35 0 -66 6.5l-60 12.5q-37 -50 -83 -96t-98.5 -81t-111.5 -55.5t-122 -20.5q-40 0 -82.5 11.5t-78 34.5t-58 57.5t-22.5 80.5q0 54 23.5 98t61.5 75t87 47.5t100 16.5q25 0 53.5 -7
t51.5 -22t38.5 -37t15.5 -52q0 -37 -16 -65.5t-41.5 -48.5t-59 -31t-67.5 -11v15q30 0 58.5 9t50.5 26t35.5 41.5t13.5 57.5q0 27 -12.5 47.5t-32.5 34t-44 20t-48 6.5q-45 0 -88.5 -15t-77 -43t-54.5 -67t-21 -87q0 -43 19 -76t50 -55.5t69 -34t76 -11.5q60 0 116.5 20
t107.5 53t95 76.5t80 91.5l-29 4t-30 2q-34 0 -68 -16l-7 14q23 12 49.5 17t51.5 5q13 0 25.5 -1t24.5 -3l210 351l14 -4v-349q0 -50 -12.5 -100.5t-38 -94.5t-63 -76.5t-86.5 -44.5q58 -11 111 -35l105 -49t104 -44t109 -19q30 0 59 7.5t51 23t35.5 38.5t13.5 53
q0 37 -22.5 63.5t-60.5 26.5q-28 0 -50 -19l-10 12q13 11 28 17t32 6q22 0 40 -8.5t31.5 -23t21 -34t7.5 -41.5q0 -37 -18 -65t-45.5 -47t-61.5 -28.5t-66 -9.5q-46 0 -87.5 11.5t-81 29.5t-77 39t-75 40t-76 32.5t-78.5 16.5v14q49 0 88 25t66.5 64.5t42.5 88.5t16 96z
M822 669q15 0 25.5 -10.5t10.5 -25.5q0 -14 -10.5 -25t-25.5 -11t-25.5 11t-10.5 25q0 15 10.5 25.5t25.5 10.5zM915 669q15 0 25.5 -10.5t10.5 -25.5q0 -14 -10.5 -25t-25.5 -11t-25.5 11t-10.5 25q0 15 10.5 25.5t25.5 10.5z" />
    <glyph glyph-name="Aring" unicode="&#xc5;" 
d="M685 222l63.5 -14.5t63.5 -7.5q18 0 33 6v283zM845 189q-12 -4 -25 -5.5t-26 -1.5q-35 0 -66 6.5l-60 12.5q-37 -50 -83 -96t-98.5 -81t-111.5 -55.5t-122 -20.5q-40 0 -82.5 11.5t-78 34.5t-58 57.5t-22.5 80.5q0 54 23.5 98t61.5 75t87 47.5t100 16.5q25 0 53.5 -7
t51.5 -22t38.5 -37t15.5 -52q0 -37 -16 -65.5t-41.5 -48.5t-59 -31t-67.5 -11v15q30 0 58.5 9t50.5 26t35.5 41.5t13.5 57.5q0 27 -12.5 47.5t-32.5 34t-44 20t-48 6.5q-45 0 -88.5 -15t-77 -43t-54.5 -67t-21 -87q0 -43 19 -76t50 -55.5t69 -34t76 -11.5q60 0 116.5 20
t107.5 53t95 76.5t80 91.5l-29 4t-30 2q-34 0 -68 -16l-7 14q23 12 49.5 17t51.5 5q13 0 25.5 -1t24.5 -3l210 351l14 -4v-349q0 -50 -12.5 -100.5t-38 -94.5t-63 -76.5t-86.5 -44.5q58 -11 111 -35l105 -49t104 -44t109 -19q30 0 59 7.5t51 23t35.5 38.5t13.5 53
q0 37 -22.5 63.5t-60.5 26.5q-28 0 -50 -19l-10 12q13 11 28 17t32 6q22 0 40 -8.5t31.5 -23t21 -34t7.5 -41.5q0 -37 -18 -65t-45.5 -47t-61.5 -28.5t-66 -9.5q-46 0 -87.5 11.5t-81 29.5t-77 39t-75 40t-76 32.5t-78.5 16.5v14q49 0 88 25t66.5 64.5t42.5 88.5t16 96z
M888 722q-21 0 -35.5 -15t-14.5 -35q0 -21 14.5 -35.5t35.5 -14.5q20 0 35 14.5t15 35.5q0 20 -15 35t-35 15zM888 597q-31 0 -53 22t-22 53t22 53t53 22t53 -22t22 -53t-22 -53t-53 -22z" />
    <glyph glyph-name="AE" unicode="&#xc6;" horiz-adv-x="1286" 
d="M673 221q32 -7 63.5 -15t63.5 -8q18 0 33 6v284zM1133 261q-4 19 -14.5 34.5t-25.5 26.5t-33.5 16.5t-37.5 5.5q-42 0 -75 -25.5t-50 -63.5l236 6v0zM891 240q-5 -14 -7.5 -29t-2.5 -31q0 -29 10 -57t28 -50t43.5 -35.5t56.5 -13.5q39 0 73.5 17.5t54.5 51.5l13 -7
q-23 -40 -64 -63.5t-87 -23.5q-50 0 -90.5 22.5t-61.5 61.5q-23 -63 -67 -111.5t-109 -64.5q58 -11 111 -35.5l105 -49.5t104 -44t109 -19q30 0 59 8t51 23.5t35.5 38.5t13.5 53q0 36 -22.5 63t-60.5 27q-28 0 -50 -19l-10 12q27 22 60 22q44 0 72 -31t28 -75q0 -37 -18 -65
t-45.5 -47t-61.5 -28.5t-66 -9.5q-46 0 -87.5 11.5t-81 29.5t-77 39t-75 40t-76 32.5t-78.5 16.5v14q49 0 88 25t66.5 64.5t42.5 88t16 96.5q-12 -4 -25 -5.5t-26 -1.5q-35 0 -66 6l-60 12q-37 -50 -83 -96t-98.5 -81t-111.5 -55.5t-122 -20.5q-40 0 -82.5 11.5t-78 35
t-58 58t-22.5 80.5q0 54 23.5 98t61.5 74.5t87 47t100 16.5q25 0 53.5 -7t51.5 -22t38.5 -37t15.5 -52q0 -37 -16 -65.5t-41.5 -48.5t-59 -31t-67.5 -11v16q30 0 58.5 9t50.5 25.5t35.5 41.5t13.5 58q0 27 -12.5 47.5t-32.5 33.5t-44 19.5t-48 6.5q-45 0 -88.5 -15t-77 -43
t-54.5 -66.5t-21 -86.5q0 -43 19 -76t50 -55.5t69 -34t76 -11.5q60 0 116.5 19.5t107.5 52.5t95 76.5t80 91.5q-29 6 -59 6q-37 0 -68 -15l-7 13q23 13 49.5 18t51.5 5q13 0 25.5 -1.5t24.5 -3.5l210 351l14 -4v-285q26 34 64 54.5t84 20.5q24 0 47 -7t43 -19.5t35 -31
t23 -41.5h8v-16l-294 -6v0z" />
    <glyph glyph-name="Ccedilla" unicode="&#xc7;" horiz-adv-x="654" 
d="M604 372q5 12 9.5 24.5t4.5 26.5q0 40 -23 70.5t-57 51.5t-74 31.5t-73 10.5q-75 0 -133.5 -28.5t-98 -75t-60.5 -106t-21 -120.5q0 -58 19 -114.5t55.5 -101.5t90 -72.5t122.5 -27.5q41 0 82.5 14t74.5 39t54 60t21 78q0 17 -6.5 36.5t-18.5 32.5l9 12q17 -11 31 -35
t14 -46q0 -50 -23.5 -88.5t-61.5 -65t-85 -40.5t-94 -14q-83 0 -146.5 29.5t-106 77t-64 108t-21.5 122.5q0 64 24 125.5t70.5 110t115 78.5t157.5 30q36 0 74 -8.5t72.5 -25.5t62.5 -41.5t46 -56.5l15 38h17l-56 -139h-18v0zM299 -120q29 -7 50.5 -30t21.5 -55
q0 -19 -8 -34.5t-20.5 -26.5t-29.5 -17t-35 -6q-7 0 -16.5 1t-18.5 4.5t-15 9.5t-6 16q0 11 8 17t19 6q9 0 15 -3t11 -8q5 -4 10.5 -7t14.5 -3q14 0 25.5 10.5t11.5 24.5t-7.5 25t-19.5 18t-25.5 10.5t-25.5 3.5h-17l88 104l11 -10l-42 -50v0z" />
    <glyph glyph-name="Egrave" unicode="&#xc8;" horiz-adv-x="613" 
d="M423 285q-28 0 -46.5 -20.5t-18.5 -47.5t12 -49.5t33 -41.5t48.5 -36t58.5 -32q11 20 16 42.5t5 47.5q0 27 -7 51.5t-21 43.5t-34 30.5t-46 11.5zM237 387q18 -20 35 -28t31 -8q12 0 19.5 4.5t7.5 11.5q0 8 -12.5 14.5t-41.5 7.5h-4q-9 0 -18 -0.5t-17 -1.5zM323 477
q15 -13 33 -13q20 0 33.5 16t13.5 36q0 16 -7.5 28.5t-19.5 20t-26.5 11.5t-28.5 4q-49 0 -81.5 -32.5t-32.5 -81.5q0 -37 19 -66q11 2 22.5 3.5t25.5 1.5q39 -1 56 -12t17 -25q0 -13 -13 -23.5t-34 -10.5q-19 0 -41.5 11t-45.5 37q-33 -9 -59 -27.5t-44 -44t-27.5 -57
t-9.5 -65.5q0 -49 18.5 -91.5t50 -74.5t74 -50.5t91.5 -18.5q54 0 104 19.5t84 62.5q-31 16 -59.5 33.5t-50.5 38.5t-35 47t-13 59q0 37 25.5 62.5t63.5 25.5q30 0 54 -12.5t41 -33.5t26.5 -47.5t9.5 -54.5q0 -29 -8 -55t-22 -49l77 -40t73 -48.5t54.5 -65t21.5 -89.5
q0 -26 -10.5 -48t-28 -38.5t-41 -26t-48.5 -9.5q-17 0 -33 5.5t-29 16t-21 24t-8 30.5q0 5 1 11t3 11l15 -6q-3 -8 -3 -16q0 -14 7 -24.5t18.5 -17.5t24.5 -10.5t25 -3.5q22 0 42.5 7.5t36 21.5t24.5 33.5t9 42.5q0 46 -22.5 79.5t-56.5 58.5t-73.5 44l-73.5 36
q-38 -48 -96 -72.5t-120 -24.5q-49 0 -97.5 16.5t-87 47.5t-62.5 74t-24 97q0 40 13.5 77t37.5 67t56.5 52.5t70.5 33.5q-25 34 -25 74q0 31 12.5 54.5t33.5 39.5t47.5 24t54.5 8q18 0 36 -5.5t32 -16t23 -26t9 -34.5q0 -29 -20.5 -47t-48.5 -18q-24 0 -44 18l11 11v0z
M387 608h-28l-156 80q-13 6 -18.5 15.5t-5.5 18.5q0 15 9 22t21 7q18 0 34 -14z" />
    <glyph glyph-name="Eacute" unicode="&#xc9;" horiz-adv-x="613" 
d="M423 285q-28 0 -46.5 -20.5t-18.5 -47.5t12 -49.5t33 -41.5t48.5 -36t58.5 -32q11 20 16 42.5t5 47.5q0 27 -7 51.5t-21 43.5t-34 30.5t-46 11.5zM237 387q18 -20 35 -28t31 -8q12 0 19.5 4.5t7.5 11.5q0 8 -12.5 14.5t-41.5 7.5h-4q-9 0 -18 -0.5t-17 -1.5zM323 477
q15 -13 33 -13q20 0 33.5 16t13.5 36q0 16 -7.5 28.5t-19.5 20t-26.5 11.5t-28.5 4q-49 0 -81.5 -32.5t-32.5 -81.5q0 -37 19 -66q11 2 22.5 3.5t25.5 1.5q39 -1 56 -12t17 -25q0 -13 -13 -23.5t-34 -10.5q-19 0 -41.5 11t-45.5 37q-33 -9 -59 -27.5t-44 -44t-27.5 -57
t-9.5 -65.5q0 -49 18.5 -91.5t50 -74.5t74 -50.5t91.5 -18.5q54 0 104 19.5t84 62.5q-31 16 -59.5 33.5t-50.5 38.5t-35 47t-13 59q0 37 25.5 62.5t63.5 25.5q30 0 54 -12.5t41 -33.5t26.5 -47.5t9.5 -54.5q0 -29 -8 -55t-22 -49l77 -40t73 -48.5t54.5 -65t21.5 -89.5
q0 -26 -10.5 -48t-28 -38.5t-41 -26t-48.5 -9.5q-17 0 -33 5.5t-29 16t-21 24t-8 30.5q0 5 1 11t3 11l15 -6q-3 -8 -3 -16q0 -14 7 -24.5t18.5 -17.5t24.5 -10.5t25 -3.5q22 0 42.5 7.5t36 21.5t24.5 33.5t9 42.5q0 46 -22.5 79.5t-56.5 58.5t-73.5 44l-73.5 36
q-38 -48 -96 -72.5t-120 -24.5q-49 0 -97.5 16.5t-87 47.5t-62.5 74t-24 97q0 40 13.5 77t37.5 67t56.5 52.5t70.5 33.5q-25 34 -25 74q0 31 12.5 54.5t33.5 39.5t47.5 24t54.5 8q18 0 36 -5.5t32 -16t23 -26t9 -34.5q0 -29 -20.5 -47t-48.5 -18q-24 0 -44 18l11 11v0z
M398 737q16 14 34 14q12 0 21 -7t9 -22q0 -9 -5.5 -18.5t-18.5 -15.5l-156 -80h-28z" />
    <glyph glyph-name="Ecircumflex" unicode="&#xca;" horiz-adv-x="613" 
d="M423 285q-28 0 -46.5 -20.5t-18.5 -47.5t12 -49.5t33 -41.5t48.5 -36t58.5 -32q11 20 16 42.5t5 47.5q0 27 -7 51.5t-21 43.5t-34 30.5t-46 11.5zM237 387q18 -20 35 -28t31 -8q12 0 19.5 4.5t7.5 11.5q0 8 -12.5 14.5t-41.5 7.5h-4q-9 0 -18 -0.5t-17 -1.5zM323 477
q15 -13 33 -13q20 0 33.5 16t13.5 36q0 16 -7.5 28.5t-19.5 20t-26.5 11.5t-28.5 4q-49 0 -81.5 -32.5t-32.5 -81.5q0 -37 19 -66q11 2 22.5 3.5t25.5 1.5q39 -1 56 -12t17 -25q0 -13 -13 -23.5t-34 -10.5q-19 0 -41.5 11t-45.5 37q-33 -9 -59 -27.5t-44 -44t-27.5 -57
t-9.5 -65.5q0 -49 18.5 -91.5t50 -74.5t74 -50.5t91.5 -18.5q54 0 104 19.5t84 62.5q-31 16 -59.5 33.5t-50.5 38.5t-35 47t-13 59q0 37 25.5 62.5t63.5 25.5q30 0 54 -12.5t41 -33.5t26.5 -47.5t9.5 -54.5q0 -29 -8 -55t-22 -49l77 -40t73 -48.5t54.5 -65t21.5 -89.5
q0 -26 -10.5 -48t-28 -38.5t-41 -26t-48.5 -9.5q-17 0 -33 5.5t-29 16t-21 24t-8 30.5q0 5 1 11t3 11l15 -6q-3 -8 -3 -16q0 -14 7 -24.5t18.5 -17.5t24.5 -10.5t25 -3.5q22 0 42.5 7.5t36 21.5t24.5 33.5t9 42.5q0 46 -22.5 79.5t-56.5 58.5t-73.5 44l-73.5 36
q-38 -48 -96 -72.5t-120 -24.5q-49 0 -97.5 16.5t-87 47.5t-62.5 74t-24 97q0 40 13.5 77t37.5 67t56.5 52.5t70.5 33.5q-25 34 -25 74q0 31 12.5 54.5t33.5 39.5t47.5 24t54.5 8q18 0 36 -5.5t32 -16t23 -26t9 -34.5q0 -29 -20.5 -47t-48.5 -18q-24 0 -44 18l11 11v0z
M294 720h24l134 -121h-31l-115 60l-115 -60h-30z" />
    <glyph glyph-name="Edieresis" unicode="&#xcb;" horiz-adv-x="613" 
d="M423 285q-28 0 -46.5 -20.5t-18.5 -47.5t12 -49.5t33 -41.5t48.5 -36t58.5 -32q11 20 16 42.5t5 47.5q0 27 -7 51.5t-21 43.5t-34 30.5t-46 11.5zM237 387q18 -20 35 -28t31 -8q12 0 19.5 4.5t7.5 11.5q0 8 -12.5 14.5t-41.5 7.5h-4q-9 0 -18 -0.5t-17 -1.5zM323 477
q15 -13 33 -13q20 0 33.5 16t13.5 36q0 16 -7.5 28.5t-19.5 20t-26.5 11.5t-28.5 4q-49 0 -81.5 -32.5t-32.5 -81.5q0 -37 19 -66q11 2 22.5 3.5t25.5 1.5q39 -1 56 -12t17 -25q0 -13 -13 -23.5t-34 -10.5q-19 0 -41.5 11t-45.5 37q-33 -9 -59 -27.5t-44 -44t-27.5 -57
t-9.5 -65.5q0 -49 18.5 -91.5t50 -74.5t74 -50.5t91.5 -18.5q54 0 104 19.5t84 62.5q-31 16 -59.5 33.5t-50.5 38.5t-35 47t-13 59q0 37 25.5 62.5t63.5 25.5q30 0 54 -12.5t41 -33.5t26.5 -47.5t9.5 -54.5q0 -29 -8 -55t-22 -49l77 -40t73 -48.5t54.5 -65t21.5 -89.5
q0 -26 -10.5 -48t-28 -38.5t-41 -26t-48.5 -9.5q-17 0 -33 5.5t-29 16t-21 24t-8 30.5q0 5 1 11t3 11l15 -6q-3 -8 -3 -16q0 -14 7 -24.5t18.5 -17.5t24.5 -10.5t25 -3.5q22 0 42.5 7.5t36 21.5t24.5 33.5t9 42.5q0 46 -22.5 79.5t-56.5 58.5t-73.5 44l-73.5 36
q-38 -48 -96 -72.5t-120 -24.5q-49 0 -97.5 16.5t-87 47.5t-62.5 74t-24 97q0 40 13.5 77t37.5 67t56.5 52.5t70.5 33.5q-25 34 -25 74q0 31 12.5 54.5t33.5 39.5t47.5 24t54.5 8q18 0 36 -5.5t32 -16t23 -26t9 -34.5q0 -29 -20.5 -47t-48.5 -18q-24 0 -44 18l11 11v0z
M280 688q15 0 25.5 -10.5t10.5 -25.5q0 -14 -10.5 -25t-25.5 -11t-25.5 11t-10.5 25q0 15 10.5 25.5t25.5 10.5zM373 688q15 0 25.5 -10.5t10.5 -25.5q0 -14 -10.5 -25t-25.5 -11t-25.5 11t-10.5 25q0 15 10.5 25.5t25.5 10.5z" />
    <glyph glyph-name="Igrave" unicode="&#xcc;" horiz-adv-x="382" 
d="M86 -60q-33 0 -59.5 20.5t-26.5 55.5q0 20 9.5 35.5t25.5 26.5l9 -13q-11 -8 -18.5 -19.5t-7.5 -25.5q0 -28 20.5 -46t47.5 -18q44 0 75 28t52.5 68.5t34.5 85.5l22 78l18 72q19 79 52 142t89 122l-18.5 -4t-19.5 -2q-29 0 -52.5 4t-46.5 9q-20 4 -40 8.5t-41 4.5
q-26 0 -49 -7t-40 -20t-27.5 -33t-10.5 -45q0 -33 22 -58t56 -25q27 0 49.5 16t30.5 42l15 -5q-11 -35 -37.5 -51.5t-55.5 -16.5q-19 0 -37 6.5t-32 18.5t-22.5 30.5t-8.5 42.5q0 32 14.5 56t38 40.5t53.5 24.5t61 8q32 0 58 -5t49 -10q20 -5 39.5 -8t41.5 -3q15 0 28.5 4
t26.5 11l8 -13q-29 -18 -47.5 -38.5t-34.5 -53.5q-15 -32 -26.5 -72t-23.5 -87l-20 -79q-7 -29 -17 -62.5t-24 -67t-32.5 -64.5t-43.5 -55t-56.5 -38.5t-70.5 -14.5zM353 613h-28l-156 80q-13 6 -18.5 15.5t-5.5 18.5q0 15 9 22t21 7q18 0 34 -14z" />
    <glyph glyph-name="Iacute" unicode="&#xcd;" horiz-adv-x="382" 
d="M86 -60q-33 0 -59.5 20.5t-26.5 55.5q0 20 9.5 35.5t25.5 26.5l9 -13q-11 -8 -18.5 -19.5t-7.5 -25.5q0 -28 20.5 -46t47.5 -18q44 0 75 28t52.5 68.5t34.5 85.5l22 78l18 72q19 79 52 142t89 122l-18.5 -4t-19.5 -2q-29 0 -52.5 4t-46.5 9q-20 4 -40 8.5t-41 4.5
q-26 0 -49 -7t-40 -20t-27.5 -33t-10.5 -45q0 -33 22 -58t56 -25q27 0 49.5 16t30.5 42l15 -5q-11 -35 -37.5 -51.5t-55.5 -16.5q-19 0 -37 6.5t-32 18.5t-22.5 30.5t-8.5 42.5q0 32 14.5 56t38 40.5t53.5 24.5t61 8q32 0 58 -5t49 -10q20 -5 39.5 -8t41.5 -3q15 0 28.5 4
t26.5 11l8 -13q-29 -18 -47.5 -38.5t-34.5 -53.5q-15 -32 -26.5 -72t-23.5 -87l-20 -79q-7 -29 -17 -62.5t-24 -67t-32.5 -64.5t-43.5 -55t-56.5 -38.5t-70.5 -14.5zM355 742q16 14 34 14q12 0 21 -7t9 -22q0 -9 -5.5 -18.5t-18.5 -15.5l-156 -80h-28z" />
    <glyph glyph-name="Icircumflex" unicode="&#xce;" horiz-adv-x="382" 
d="M86 -60q-33 0 -59.5 20.5t-26.5 55.5q0 20 9.5 35.5t25.5 26.5l9 -13q-11 -8 -18.5 -19.5t-7.5 -25.5q0 -28 20.5 -46t47.5 -18q44 0 75 28t52.5 68.5t34.5 85.5l22 78l18 72q19 79 52 142t89 122l-18.5 -4t-19.5 -2q-29 0 -52.5 4t-46.5 9q-20 4 -40 8.5t-41 4.5
q-26 0 -49 -7t-40 -20t-27.5 -33t-10.5 -45q0 -33 22 -58t56 -25q27 0 49.5 16t30.5 42l15 -5q-11 -35 -37.5 -51.5t-55.5 -16.5q-19 0 -37 6.5t-32 18.5t-22.5 30.5t-8.5 42.5q0 32 14.5 56t38 40.5t53.5 24.5t61 8q32 0 58 -5t49 -10q20 -5 39.5 -8t41.5 -3q15 0 28.5 4
t26.5 11l8 -13q-29 -18 -47.5 -38.5t-34.5 -53.5q-15 -32 -26.5 -72t-23.5 -87l-20 -79q-7 -29 -17 -62.5t-24 -67t-32.5 -64.5t-43.5 -55t-56.5 -38.5t-70.5 -14.5zM278 728h24l134 -121h-31l-115 60l-115 -60h-30z" />
    <glyph glyph-name="Idieresis" unicode="&#xcf;" horiz-adv-x="382" 
d="M86 -60q-33 0 -59.5 20.5t-26.5 55.5q0 20 9.5 35.5t25.5 26.5l9 -13q-11 -8 -18.5 -19.5t-7.5 -25.5q0 -28 20.5 -46t47.5 -18q44 0 75 28t52.5 68.5t34.5 85.5l22 78l18 72q19 79 52 142t89 122l-18.5 -4t-19.5 -2q-29 0 -52.5 4t-46.5 9q-20 4 -40 8.5t-41 4.5
q-26 0 -49 -7t-40 -20t-27.5 -33t-10.5 -45q0 -33 22 -58t56 -25q27 0 49.5 16t30.5 42l15 -5q-11 -35 -37.5 -51.5t-55.5 -16.5q-19 0 -37 6.5t-32 18.5t-22.5 30.5t-8.5 42.5q0 32 14.5 56t38 40.5t53.5 24.5t61 8q32 0 58 -5t49 -10q20 -5 39.5 -8t41.5 -3q15 0 28.5 4
t26.5 11l8 -13q-29 -18 -47.5 -38.5t-34.5 -53.5q-15 -32 -26.5 -72t-23.5 -87l-20 -79q-7 -29 -17 -62.5t-24 -67t-32.5 -64.5t-43.5 -55t-56.5 -38.5t-70.5 -14.5zM310 679q15 0 25.5 -10.5t10.5 -25.5q0 -14 -10.5 -25t-25.5 -11t-25.5 11t-10.5 25q0 15 10.5 25.5
t25.5 10.5zM403 679q15 0 25.5 -10.5t10.5 -25.5q0 -14 -10.5 -25t-25.5 -11t-25.5 11t-10.5 25q0 15 10.5 25.5t25.5 10.5z" />
    <glyph glyph-name="Eth" unicode="&#xd0;" horiz-adv-x="827" 
d="M409 208l-10 -33h-81l-62 -192q44 -11 89.5 -14t90.5 -3q69 0 130.5 25.5t108 69.5t73.5 104.5t27 131.5q0 60 -22.5 115.5t-73.5 96.5q-39 32 -96 51t-132 24l-122 -376h80zM155 -36q23 0 40.5 13t24.5 34l54 164h-65l10 33h65l123 377q-75 -2 -139.5 -20.5
t-112.5 -50.5q-49 -32 -77 -75t-28 -93q0 -20 7.5 -39t20.5 -34t31 -24.5t39 -9.5q24 0 46 10.5t38 30.5l12 -10q-18 -22 -43 -34t-53 -12q-27 0 -49.5 9.5t-39 26t-26 39t-9.5 48.5q0 54 32 101t89 82q56 35 129 54.5t158 19.5q96 0 166.5 -22t118.5 -60q57 -45 83.5 -104
t26.5 -123q0 -68 -28.5 -132.5t-82.5 -115.5q-48 -45 -113 -71.5t-146 -26.5h-335l5 15h28z" />
    <glyph glyph-name="Ntilde" unicode="&#xd1;" horiz-adv-x="977" 
d="M135 -119q49 0 89.5 31t73.5 75t58 93l42 85l188 393q-13 -6 -26.5 -8.5t-27.5 -2.5q-32 0 -63.5 4t-63.5 4t-62.5 -9.5t-55 -28.5t-39.5 -46t-15 -61q0 -21 7.5 -42t21 -37.5t32 -27t41.5 -10.5q32 0 59 18l8 -13q-30 -21 -69 -21q-26 0 -48.5 10t-39 26.5t-26.5 39
t-10 48.5q0 41 19 74t49 56.5t68 36t76 12.5q34 0 67.5 -3.5t67.5 -3.5q16 0 29 4.5t27 11.5l197 -564l111 331q11 33 23.5 66t28.5 63.5t36.5 58t48.5 51.5l20 -18q-30 -22 -51.5 -47.5t-38 -54t-29 -59.5t-23.5 -65l-134 -400h-15l-200 571l-184 -393q-18 -38 -42.5 -85
t-56.5 -88.5t-72 -69.5t-89 -28q-45 0 -80.5 25.5t-61.5 60.5l12 9q23 -30 53.5 -51t69.5 -21zM735 696q18 0 36 -6.5t35 -15t33.5 -15t33.5 -6.5t32 10.5t15 29.5h18q0 -34 -21.5 -60t-56.5 -26q-18 0 -36 6.5t-36 14.5t-35.5 14.5t-33.5 6.5q-17 0 -31 -10t-16 -28h-17
q0 37 21 61t59 24z" />
    <glyph glyph-name="Ograve" unicode="&#xd2;" horiz-adv-x="789" 
d="M400 580q-62 0 -119 -21t-100.5 -59t-69 -91.5t-25.5 -117.5q0 -77 22.5 -137.5t64 -103t99.5 -65t130 -22.5q63 0 118 20.5t96 58.5t65 91.5t24 119.5q0 72 -22 132t-61.5 103.5t-96 67.5t-125.5 24zM407 598q69 0 132.5 -22t112 -63.5t77 -100.5t28.5 -132
q0 -75 -30 -137t-80 -106t-114.5 -68.5t-134.5 -24.5q-71 0 -137 24t-117 67.5t-81.5 105.5t-30.5 137q0 72 30.5 131t82.5 101t119.5 65t142.5 23zM471 621h-28l-156 80q-13 6 -18.5 15.5t-5.5 18.5q0 15 9 22t21 7q18 0 34 -14z" />
    <glyph glyph-name="Oacute" unicode="&#xd3;" horiz-adv-x="789" 
d="M400 580q-62 0 -119 -21t-100.5 -59t-69 -91.5t-25.5 -117.5q0 -77 22.5 -137.5t64 -103t99.5 -65t130 -22.5q63 0 118 20.5t96 58.5t65 91.5t24 119.5q0 72 -22 132t-61.5 103.5t-96 67.5t-125.5 24zM407 598q69 0 132.5 -22t112 -63.5t77 -100.5t28.5 -132
q0 -75 -30 -137t-80 -106t-114.5 -68.5t-134.5 -24.5q-71 0 -137 24t-117 67.5t-81.5 105.5t-30.5 137q0 72 30.5 131t82.5 101t119.5 65t142.5 23zM497 745q16 14 34 14q12 0 21 -7t9 -22q0 -9 -5.5 -18.5t-18.5 -15.5l-156 -80h-28z" />
    <glyph glyph-name="Ocircumflex" unicode="&#xd4;" horiz-adv-x="789" 
d="M400 580q-62 0 -119 -21t-100.5 -59t-69 -91.5t-25.5 -117.5q0 -77 22.5 -137.5t64 -103t99.5 -65t130 -22.5q63 0 118 20.5t96 58.5t65 91.5t24 119.5q0 72 -22 132t-61.5 103.5t-96 67.5t-125.5 24zM407 598q69 0 132.5 -22t112 -63.5t77 -100.5t28.5 -132
q0 -75 -30 -137t-80 -106t-114.5 -68.5t-134.5 -24.5q-71 0 -137 24t-117 67.5t-81.5 105.5t-30.5 137q0 72 30.5 131t82.5 101t119.5 65t142.5 23zM410 730h24l134 -121h-31l-115 60l-115 -60h-30z" />
    <glyph glyph-name="Otilde" unicode="&#xd5;" horiz-adv-x="789" 
d="M400 580q-62 0 -119 -21t-100.5 -59t-69 -91.5t-25.5 -117.5q0 -77 22.5 -137.5t64 -103t99.5 -65t130 -22.5q63 0 118 20.5t96 58.5t65 91.5t24 119.5q0 72 -22 132t-61.5 103.5t-96 67.5t-125.5 24zM407 598q69 0 132.5 -22t112 -63.5t77 -100.5t28.5 -132
q0 -75 -30 -137t-80 -106t-114.5 -68.5t-134.5 -24.5q-71 0 -137 24t-117 67.5t-81.5 105.5t-30.5 137q0 72 30.5 131t82.5 101t119.5 65t142.5 23zM360 710q18 0 36 -6.5t35 -15t33.5 -15t33.5 -6.5t32 10.5t15 29.5h18q0 -34 -21.5 -60t-56.5 -26q-18 0 -36 6.5t-36 14.5
t-35.5 14.5t-33.5 6.5q-17 0 -31 -10t-16 -28h-17q0 37 21 61t59 24z" />
    <glyph glyph-name="Odieresis" unicode="&#xd6;" horiz-adv-x="789" 
d="M400 580q-62 0 -119 -21t-100.5 -59t-69 -91.5t-25.5 -117.5q0 -77 22.5 -137.5t64 -103t99.5 -65t130 -22.5q63 0 118 20.5t96 58.5t65 91.5t24 119.5q0 72 -22 132t-61.5 103.5t-96 67.5t-125.5 24zM407 598q69 0 132.5 -22t112 -63.5t77 -100.5t28.5 -132
q0 -75 -30 -137t-80 -106t-114.5 -68.5t-134.5 -24.5q-71 0 -137 24t-117 67.5t-81.5 105.5t-30.5 137q0 72 30.5 131t82.5 101t119.5 65t142.5 23zM379 692q15 0 25.5 -10.5t10.5 -25.5q0 -14 -10.5 -25t-25.5 -11t-25.5 11t-10.5 25q0 15 10.5 25.5t25.5 10.5zM472 692
q15 0 25.5 -10.5t10.5 -25.5q0 -14 -10.5 -25t-25.5 -11t-25.5 11t-10.5 25q0 15 10.5 25.5t25.5 10.5z" />
    <glyph glyph-name="multiply" unicode="&#xd7;" horiz-adv-x="323" 
d="M161 309l125 125l37 -36l-125 -125l125 -125l-37 -37l-125 125l-125 -125l-36 37l125 125l-125 125l36 36z" />
    <glyph glyph-name="Oslash" unicode="&#xd8;" horiz-adv-x="789" 
d="M610 499q-40 38 -93 59t-117 21q-62 0 -119 -21t-100.5 -59t-69 -91.5t-25.5 -118.5q0 -73 21 -132t59 -101zM180 42q42 -39 97.5 -59.5t124.5 -20.5q63 0 118 20.5t96 58.5t65 91.5t24 119.5q0 71 -21 129.5t-60 102.5zM407 597q64 0 122.5 -19t105.5 -54l63 63l15 -14
l-62 -62q49 -42 77.5 -100t28.5 -132q0 -75 -30 -137.5t-80 -106.5t-114.5 -68.5t-134.5 -24.5q-66 0 -127 20.5t-111 58.5l-70 -69l-14 15l68 67q-51 45 -81.5 106t-30.5 136q0 72 30.5 131.5t82.5 101.5t119.5 65t142.5 23z" />
    <glyph glyph-name="Ugrave" unicode="&#xd9;" horiz-adv-x="795" 
d="M434 588q-15 0 -34 -9t-33 -21q8 -2 15.5 -3t15.5 -1q19 0 34 8t15 18q0 8 -13 8zM434 604q12 0 21 -6.5t9 -17.5q0 -17 -18 -29t-48 -12q-24 0 -49 3q-19 -19 -36.5 -44t-34.5 -54q-35 -63 -57.5 -140t-22.5 -151q0 -27 6.5 -59t21.5 -59.5t38.5 -45.5t57.5 -18
q52 0 92.5 26.5t72 66.5t54.5 86.5t41 86.5l157 358h51l-129 -452q-8 -27 -14 -56t-6 -58q0 -10 1.5 -21.5t6 -21.5t13 -16.5t21.5 -6.5q16 0 31.5 12.5t28.5 30.5t22.5 37.5t14.5 32.5l15 -6q-6 -19 -18 -42t-28 -42.5t-36 -32.5t-43 -13q-42 0 -60.5 28t-18.5 66
q0 34 7.5 67.5t17.5 65.5l104 347l-124 -283q-19 -44 -44 -94t-58 -92.5t-76.5 -71t-99.5 -28.5q-43 0 -75 17t-53.5 45.5t-32 65t-10.5 75.5q0 33 8 71t21.5 76.5t32 76.5t40.5 73q18 29 38 54.5t40 45.5q-23 3 -42.5 7l-38.5 8t-38 7t-40 3q-23 0 -45.5 -8.5t-41.5 -23
t-30.5 -34t-11.5 -42.5q0 -32 23.5 -53.5t55.5 -21.5q31 0 54.5 21.5t23.5 53.5h16q0 -19 -7.5 -35.5t-20.5 -29t-30 -19.5t-36 -7t-36 7t-30 19.5t-20.5 29t-7.5 35.5q0 33 16 58.5t40.5 42.5t55 25.5t59.5 8.5q42 0 78 -11.5t74 -22.5q18 15 41 28t46 13zM630 603h-28
l-156 80q-13 6 -18.5 15.5t-5.5 18.5q0 15 9 22t21 7q18 0 34 -14z" />
    <glyph glyph-name="Uacute" unicode="&#xda;" horiz-adv-x="795" 
d="M434 588q-15 0 -34 -9t-33 -21q8 -2 15.5 -3t15.5 -1q19 0 34 8t15 18q0 8 -13 8zM434 604q12 0 21 -6.5t9 -17.5q0 -17 -18 -29t-48 -12q-24 0 -49 3q-19 -19 -36.5 -44t-34.5 -54q-35 -63 -57.5 -140t-22.5 -151q0 -27 6.5 -59t21.5 -59.5t38.5 -45.5t57.5 -18
q52 0 92.5 26.5t72 66.5t54.5 86.5t41 86.5l157 358h51l-129 -452q-8 -27 -14 -56t-6 -58q0 -10 1.5 -21.5t6 -21.5t13 -16.5t21.5 -6.5q16 0 31.5 12.5t28.5 30.5t22.5 37.5t14.5 32.5l15 -6q-6 -19 -18 -42t-28 -42.5t-36 -32.5t-43 -13q-42 0 -60.5 28t-18.5 66
q0 34 7.5 67.5t17.5 65.5l104 347l-124 -283q-19 -44 -44 -94t-58 -92.5t-76.5 -71t-99.5 -28.5q-43 0 -75 17t-53.5 45.5t-32 65t-10.5 75.5q0 33 8 71t21.5 76.5t32 76.5t40.5 73q18 29 38 54.5t40 45.5q-23 3 -42.5 7l-38.5 8t-38 7t-40 3q-23 0 -45.5 -8.5t-41.5 -23
t-30.5 -34t-11.5 -42.5q0 -32 23.5 -53.5t55.5 -21.5q31 0 54.5 21.5t23.5 53.5h16q0 -19 -7.5 -35.5t-20.5 -29t-30 -19.5t-36 -7t-36 7t-30 19.5t-20.5 29t-7.5 35.5q0 33 16 58.5t40.5 42.5t55 25.5t59.5 8.5q42 0 78 -11.5t74 -22.5q18 15 41 28t46 13zM648 733
q16 14 34 14q12 0 21 -7t9 -22q0 -9 -5.5 -18.5t-18.5 -15.5l-156 -80h-28z" />
    <glyph glyph-name="Ucircumflex" unicode="&#xdb;" horiz-adv-x="795" 
d="M434 588q-15 0 -34 -9t-33 -21q8 -2 15.5 -3t15.5 -1q19 0 34 8t15 18q0 8 -13 8zM434 604q12 0 21 -6.5t9 -17.5q0 -17 -18 -29t-48 -12q-24 0 -49 3q-19 -19 -36.5 -44t-34.5 -54q-35 -63 -57.5 -140t-22.5 -151q0 -27 6.5 -59t21.5 -59.5t38.5 -45.5t57.5 -18
q52 0 92.5 26.5t72 66.5t54.5 86.5t41 86.5l157 358h51l-129 -452q-8 -27 -14 -56t-6 -58q0 -10 1.5 -21.5t6 -21.5t13 -16.5t21.5 -6.5q16 0 31.5 12.5t28.5 30.5t22.5 37.5t14.5 32.5l15 -6q-6 -19 -18 -42t-28 -42.5t-36 -32.5t-43 -13q-42 0 -60.5 28t-18.5 66
q0 34 7.5 67.5t17.5 65.5l104 347l-124 -283q-19 -44 -44 -94t-58 -92.5t-76.5 -71t-99.5 -28.5q-43 0 -75 17t-53.5 45.5t-32 65t-10.5 75.5q0 33 8 71t21.5 76.5t32 76.5t40.5 73q18 29 38 54.5t40 45.5q-23 3 -42.5 7l-38.5 8t-38 7t-40 3q-23 0 -45.5 -8.5t-41.5 -23
t-30.5 -34t-11.5 -42.5q0 -32 23.5 -53.5t55.5 -21.5q31 0 54.5 21.5t23.5 53.5h16q0 -19 -7.5 -35.5t-20.5 -29t-30 -19.5t-36 -7t-36 7t-30 19.5t-20.5 29t-7.5 35.5q0 33 16 58.5t40.5 42.5t55 25.5t59.5 8.5q42 0 78 -11.5t74 -22.5q18 15 41 28t46 13zM567 728h24
l134 -121h-31l-115 60l-115 -60h-30z" />
    <glyph glyph-name="Udieresis" unicode="&#xdc;" horiz-adv-x="795" 
d="M434 588q-15 0 -34 -9t-33 -21q8 -2 15.5 -3t15.5 -1q19 0 34 8t15 18q0 8 -13 8zM434 604q12 0 21 -6.5t9 -17.5q0 -17 -18 -29t-48 -12q-24 0 -49 3q-19 -19 -36.5 -44t-34.5 -54q-35 -63 -57.5 -140t-22.5 -151q0 -27 6.5 -59t21.5 -59.5t38.5 -45.5t57.5 -18
q52 0 92.5 26.5t72 66.5t54.5 86.5t41 86.5l157 358h51l-129 -452q-8 -27 -14 -56t-6 -58q0 -10 1.5 -21.5t6 -21.5t13 -16.5t21.5 -6.5q16 0 31.5 12.5t28.5 30.5t22.5 37.5t14.5 32.5l15 -6q-6 -19 -18 -42t-28 -42.5t-36 -32.5t-43 -13q-42 0 -60.5 28t-18.5 66
q0 34 7.5 67.5t17.5 65.5l104 347l-124 -283q-19 -44 -44 -94t-58 -92.5t-76.5 -71t-99.5 -28.5q-43 0 -75 17t-53.5 45.5t-32 65t-10.5 75.5q0 33 8 71t21.5 76.5t32 76.5t40.5 73q18 29 38 54.5t40 45.5q-23 3 -42.5 7l-38.5 8t-38 7t-40 3q-23 0 -45.5 -8.5t-41.5 -23
t-30.5 -34t-11.5 -42.5q0 -32 23.5 -53.5t55.5 -21.5q31 0 54.5 21.5t23.5 53.5h16q0 -19 -7.5 -35.5t-20.5 -29t-30 -19.5t-36 -7t-36 7t-30 19.5t-20.5 29t-7.5 35.5q0 33 16 58.5t40.5 42.5t55 25.5t59.5 8.5q42 0 78 -11.5t74 -22.5q18 15 41 28t46 13zM521 681
q15 0 25.5 -10.5t10.5 -25.5q0 -14 -10.5 -25t-25.5 -11t-25.5 11t-10.5 25q0 15 10.5 25.5t25.5 10.5zM614 681q15 0 25.5 -10.5t10.5 -25.5q0 -14 -10.5 -25t-25.5 -11t-25.5 11t-10.5 25q0 15 10.5 25.5t25.5 10.5z" />
    <glyph glyph-name="Yacute" unicode="&#xdd;" horiz-adv-x="617" 
d="M401 22q-2 -10 -2 -16q0 -20 12 -30t31 -10h28l-5 -15h-226l5 15h11q34 0 56.5 13t31.5 47l71 261q0 56 -12 104t-39 92q-12 19 -28 36.5t-35 30.5t-40.5 21t-45.5 8q-29 0 -56 -9.5t-48 -26.5t-33.5 -42t-12.5 -56q0 -41 27 -69.5t69 -28.5q14 0 28 2.5t26 10.5l8 -13
q-14 -10 -30.5 -14t-33.5 -4q-24 0 -46.5 8t-40 22.5t-28.5 35t-11 46.5q0 38 18.5 67.5t48 49.5t65 30t68.5 10q50 0 91.5 -19.5t71 -52.5t46 -76.5t16.5 -91.5q0 -28 -3 -55l39 54l68 89.5t69.5 77t72 53.5t75.5 20q37 0 63 -15.5t26 -52.5q0 -14 -8 -25.5t-19 -19.5
l-9 13q8 5 13.5 13t5.5 19q0 23 -18.5 34.5t-43.5 11.5q-27 0 -54.5 -15t-53 -37t-47.5 -46l-38 -43l-121 -145zM610 717q16 14 34 14q12 0 21 -7t9 -22q0 -9 -5.5 -18.5t-18.5 -15.5l-156 -80h-28z" />
    <glyph glyph-name="Thorn" unicode="&#xde;" horiz-adv-x="676" 
d="M110 -111q-33 0 -59.5 21t-26.5 56q0 19 9.5 35t25.5 26l9 -12q-11 -8 -18.5 -19.5t-7.5 -25.5q0 -28 20.5 -46.5t47.5 -18.5q44 0 75 28.5t52 69t34.5 85.5t22.5 78l32 120q20 79 52.5 142.5t89.5 122.5q-10 -3 -19.5 -5t-18.5 -2q-29 0 -53 4t-46 9q-20 5 -40.5 9.5
t-41.5 4.5q-25 0 -48 -7t-40 -20.5t-27.5 -33t-10.5 -45.5q0 -16 5.5 -31t16 -26.5t24.5 -18.5t31 -7q28 0 50.5 16t30.5 42l15 -4q-11 -35 -37.5 -51.5t-56.5 -16.5q-18 0 -36 6.5t-32 18.5t-22.5 30t-8.5 42q0 32 14.5 56.5t38 40.5t53.5 24t61 8q32 0 58 -5t49 -10
q20 -4 39 -7t41 -3q15 0 28.5 4t27.5 11l7 -14q-62 -36 -88 -106q56 -2 98 -15.5t71 -34.5q39 -27 57 -64t18 -75q0 -45 -20 -82.5t-53 -64t-74.5 -41t-83.5 -14.5q-15 0 -30 2.5t-29 6.5l3 15q12 -2 24 -3.5t23 -1.5q37 0 71.5 12t61.5 34.5t43 54.5t16 71q0 43 -17 76.5
t-45.5 56t-65 35t-75.5 14.5q-10 -28 -19 -59.5t-18 -67.5q-2 -10 -6.5 -27.5t-10 -36t-10 -36t-7.5 -27.5q-11 -44 -28 -96.5t-45.5 -98t-70 -77t-100.5 -31.5z" />
    <glyph glyph-name="germandbls" unicode="&#xdf;" horiz-adv-x="562" 
d="M393 272q-46 -24 -79.5 -65.5t-33.5 -96.5q0 -49 26 -72.5t58 -23.5q19 0 38 8t34 23t24 37t9 49q0 44 -18.5 82.5t-57.5 58.5zM155 240q33 28 72 45l18 59q9 30 27 58t42 50t54 35t63 13q21 0 40.5 -5t35.5 -15.5t25.5 -26.5t9.5 -38q0 -28 -20 -48.5t-48 -20.5
q-26 0 -47 19l11 11q17 -15 36 -15q20 0 32 16.5t12 36.5q0 18 -8 31t-20.5 22t-29 13.5t-33.5 4.5q-30 0 -52 -13.5t-38 -34.5t-27 -47t-18 -50l-12 -41q19 4 43 4q19 0 38 -2.5t38 -8.5q33 16 74 25t89 10l-5 -15q-77 -3 -138 -28q45 -20 72 -59.5t27 -88.5
q0 -35 -12.5 -62.5t-33 -46t-46 -28t-50.5 -9.5q-51 0 -83 34t-32 86q0 28 9 53t25 46.5t36.5 39t43.5 31.5q-27 8 -52 8q-23 0 -48 -5l-86 -279q-9 -28 -24.5 -64t-38 -68.5t-52 -54.5t-65.5 -22h-9l1 15q31 0 54.5 23t41 55t29 65.5t17.5 54.5l79 257q-16 -7 -29.5 -16
t-27.5 -20l-10 11v0z" />
    <glyph glyph-name="agrave" unicode="&#xe0;" horiz-adv-x="442" 
d="M442 94q-6 -17 -14.5 -34t-20.5 -30.5t-28 -22.5t-35 -9q-16 0 -28 7.5t-19.5 19t-11.5 26t-4 29.5q-20 -37 -54 -60t-77 -23q-29 0 -51 10.5t-37 28.5t-22.5 42t-7.5 51q0 42 15.5 82t43 71.5t64.5 50.5t81 19q32 0 59 -19t38 -50l18 61h44l-61 -201q-5 -15 -7.5 -33
t-2.5 -34q0 -8 2 -17.5t6 -17.5t11 -13.5t17 -5.5q13 0 24.5 8t20 20t14.5 25t10 24l13 -5v0zM324 254q-6 30 -28.5 55t-55.5 25q-38 0 -67 -19.5t-49 -49.5t-30.5 -66t-10.5 -69q0 -18 3.5 -38t12 -37.5t23 -28.5t37.5 -11q41 0 69 27t46.5 64.5t30 78.5zM325 360h-28
l-156 80q-13 6 -18.5 15.5t-5.5 18.5q0 15 9 22t21 7q18 0 34 -14z" />
    <glyph glyph-name="aacute" unicode="&#xe1;" horiz-adv-x="442" 
d="M442 94q-6 -17 -14.5 -34t-20.5 -30.5t-28 -22.5t-35 -9q-16 0 -28 7.5t-19.5 19t-11.5 26t-4 29.5q-20 -37 -54 -60t-77 -23q-29 0 -51 10.5t-37 28.5t-22.5 42t-7.5 51q0 42 15.5 82t43 71.5t64.5 50.5t81 19q32 0 59 -19t38 -50l18 61h44l-61 -201q-5 -15 -7.5 -33
t-2.5 -34q0 -8 2 -17.5t6 -17.5t11 -13.5t17 -5.5q13 0 24.5 8t20 20t14.5 25t10 24l13 -5v0zM324 254q-6 30 -28.5 55t-55.5 25q-38 0 -67 -19.5t-49 -49.5t-30.5 -66t-10.5 -69q0 -18 3.5 -38t12 -37.5t23 -28.5t37.5 -11q41 0 69 27t46.5 64.5t30 78.5zM316 495
q16 14 34 14q12 0 21 -7t9 -22q0 -9 -5.5 -18.5t-18.5 -15.5l-156 -80h-28z" />
    <glyph glyph-name="acircumflex" unicode="&#xe2;" horiz-adv-x="442" 
d="M442 94q-6 -17 -14.5 -34t-20.5 -30.5t-28 -22.5t-35 -9q-16 0 -28 7.5t-19.5 19t-11.5 26t-4 29.5q-20 -37 -54 -60t-77 -23q-29 0 -51 10.5t-37 28.5t-22.5 42t-7.5 51q0 42 15.5 82t43 71.5t64.5 50.5t81 19q32 0 59 -19t38 -50l18 61h44l-61 -201q-5 -15 -7.5 -33
t-2.5 -34q0 -8 2 -17.5t6 -17.5t11 -13.5t17 -5.5q13 0 24.5 8t20 20t14.5 25t10 24l13 -5v0zM324 254q-6 30 -28.5 55t-55.5 25q-38 0 -67 -19.5t-49 -49.5t-30.5 -66t-10.5 -69q0 -18 3.5 -38t12 -37.5t23 -28.5t37.5 -11q41 0 69 27t46.5 64.5t30 78.5zM244 487h24
l134 -121h-31l-115 60l-115 -60h-30z" />
    <glyph glyph-name="atilde" unicode="&#xe3;" horiz-adv-x="442" 
d="M442 94q-6 -17 -14.5 -34t-20.5 -30.5t-28 -22.5t-35 -9q-16 0 -28 7.5t-19.5 19t-11.5 26t-4 29.5q-20 -37 -54 -60t-77 -23q-29 0 -51 10.5t-37 28.5t-22.5 42t-7.5 51q0 42 15.5 82t43 71.5t64.5 50.5t81 19q32 0 59 -19t38 -50l18 61h44l-61 -201q-5 -15 -7.5 -33
t-2.5 -34q0 -8 2 -17.5t6 -17.5t11 -13.5t17 -5.5q13 0 24.5 8t20 20t14.5 25t10 24l13 -5v0zM324 254q-6 30 -28.5 55t-55.5 25q-38 0 -67 -19.5t-49 -49.5t-30.5 -66t-10.5 -69q0 -18 3.5 -38t12 -37.5t23 -28.5t37.5 -11q41 0 69 27t46.5 64.5t30 78.5zM198 465
q18 0 36 -6.5t35 -15t33.5 -15t33.5 -6.5t32 10.5t15 29.5h18q0 -34 -21.5 -60t-56.5 -26q-18 0 -36 6.5t-36 14.5t-35.5 14.5t-33.5 6.5q-17 0 -31 -10t-16 -28h-17q0 37 21 61t59 24z" />
    <glyph glyph-name="adieresis" unicode="&#xe4;" horiz-adv-x="442" 
d="M442 94q-6 -17 -14.5 -34t-20.5 -30.5t-28 -22.5t-35 -9q-16 0 -28 7.5t-19.5 19t-11.5 26t-4 29.5q-20 -37 -54 -60t-77 -23q-29 0 -51 10.5t-37 28.5t-22.5 42t-7.5 51q0 42 15.5 82t43 71.5t64.5 50.5t81 19q32 0 59 -19t38 -50l18 61h44l-61 -201q-5 -15 -7.5 -33
t-2.5 -34q0 -8 2 -17.5t6 -17.5t11 -13.5t17 -5.5q13 0 24.5 8t20 20t14.5 25t10 24l13 -5v0zM324 254q-6 30 -28.5 55t-55.5 25q-38 0 -67 -19.5t-49 -49.5t-30.5 -66t-10.5 -69q0 -18 3.5 -38t12 -37.5t23 -28.5t37.5 -11q41 0 69 27t46.5 64.5t30 78.5zM216 448
q15 0 25.5 -10.5t10.5 -25.5q0 -14 -10.5 -25t-25.5 -11t-25.5 11t-10.5 25q0 15 10.5 25.5t25.5 10.5zM309 448q15 0 25.5 -10.5t10.5 -25.5q0 -14 -10.5 -25t-25.5 -11t-25.5 11t-10.5 25q0 15 10.5 25.5t25.5 10.5z" />
    <glyph glyph-name="aring" unicode="&#xe5;" horiz-adv-x="442" 
d="M442 94q-6 -17 -14.5 -34t-20.5 -30.5t-28 -22.5t-35 -9q-16 0 -28 7.5t-19.5 19t-11.5 26t-4 29.5q-20 -37 -54 -60t-77 -23q-29 0 -51 10.5t-37 28.5t-22.5 42t-7.5 51q0 42 15.5 82t43 71.5t64.5 50.5t81 19q32 0 59 -19t38 -50l18 61h44l-61 -201q-5 -15 -7.5 -33
t-2.5 -34q0 -8 2 -17.5t6 -17.5t11 -13.5t17 -5.5q13 0 24.5 8t20 20t14.5 25t10 24l13 -5v0zM324 254q-6 30 -28.5 55t-55.5 25q-38 0 -67 -19.5t-49 -49.5t-30.5 -66t-10.5 -69q0 -18 3.5 -38t12 -37.5t23 -28.5t37.5 -11q41 0 69 27t46.5 64.5t30 78.5zM260 489
q20 0 35 -15t15 -35q0 -21 -15 -35.5t-35 -14.5q-21 0 -35.5 14.5t-14.5 35.5q0 20 14.5 35t35.5 15zM260 514q31 0 53 -22t22 -53t-22 -53t-53 -22t-53 22t-22 53t22 53t53 22zM260 489q20 0 35 -15t15 -35q0 -21 -15 -35.5t-35 -14.5q-21 0 -35.5 14.5t-14.5 35.5
q0 20 14.5 35t35.5 15zM260 514q31 0 53 -22t22 -53t-22 -53t-53 -22t-53 22t-22 53t22 53t53 22z" />
    <glyph glyph-name="ae" unicode="&#xe6;" horiz-adv-x="643" 
d="M325 257q-2 33 -21.5 55t-53.5 22q-40 0 -71 -20.5t-52 -52t-32 -69t-11 -72.5q0 -45 18 -75.5t57 -30.5q21 0 42.5 13t39.5 32.5t31.5 42t19.5 42.5l33 113v0zM591 257q-7 40 -37.5 61.5t-68.5 21.5q-42 0 -72 -26t-46 -62zM307 135q-8 -23 -22.5 -47.5t-34 -44.5
t-43 -33t-49.5 -13q-33 0 -57 10.5t-39 28.5t-22.5 42t-7.5 51q0 38 14 77.5t40.5 72t64 53.5t84.5 21q35 0 61 -16t39 -50l16 56h52l-5 -16q43 31 94 31q48 0 88 -26t55 -74l7 1l1 -16l-281 -7q-11 -31 -11 -63q0 -31 8 -58.5t24 -48.5t41 -33t58 -12q39 0 73.5 17.5
t54.5 51.5l13 -8q-23 -39 -64 -63t-87 -24q-31 0 -59.5 10t-51 28t-37 44t-17.5 58z" />
    <glyph glyph-name="ccedilla" unicode="&#xe7;" horiz-adv-x="363" 
d="M334 69q-22 -39 -61.5 -61.5t-84.5 -22.5q-31 0 -59.5 10.5t-50 30t-34 46.5t-12.5 59q0 45 19 84t50 68t71.5 46t84.5 17q16 0 34.5 -3.5t34.5 -12t26.5 -22t10.5 -32.5q0 -13 -7.5 -23.5t-21.5 -10.5q-9 0 -15.5 6t-6.5 16q0 11 6.5 16.5t6.5 13.5q0 11 -7.5 18.5
t-18 11.5t-22.5 5.5t-20 1.5q-39 0 -70.5 -15t-54.5 -41t-35.5 -60t-12.5 -71q0 -29 8 -53.5t24 -43.5t39 -29.5t53 -10.5q35 0 65 20.5t47 49.5zM156 -58q29 -7 50.5 -30t21.5 -55q0 -19 -8 -34.5t-20.5 -26.5t-29.5 -17t-35 -6q-7 0 -16.5 1t-18.5 4.5t-15 9.5t-6 16
q0 11 8 17t19 6q9 0 15 -3t11 -8q5 -4 10.5 -7t14.5 -3q14 0 25.5 10.5t11.5 24.5t-7.5 25t-19.5 18t-25.5 10.5t-25.5 3.5h-17l88 104l11 -10l-42 -50v0z" />
    <glyph glyph-name="egrave" unicode="&#xe8;" horiz-adv-x="378" 
d="M85 237q-10 -27 -10 -59q0 -29 9.5 -57t27.5 -50t43.5 -35.5t56.5 -13.5q39 0 73.5 17.5t54.5 51.5l14 -8q-23 -39 -64.5 -63t-86.5 -24q-35 0 -66 11.5t-54.5 32.5t-37 50.5t-13.5 65.5q0 40 14.5 76.5t40 64.5t60 45t75.5 17q24 0 47.5 -7t43 -19.5t34.5 -31t23 -42.5
l8 1v-16l-293 -7v0zM326 258q-3 20 -14 35.5t-26 26t-33.5 16t-37.5 5.5q-42 0 -74.5 -25.5t-49.5 -62.5l235 5v0zM265 382h-28l-156 80q-13 6 -18.5 15.5t-5.5 18.5q0 15 9 22t21 7q18 0 34 -14z" />
    <glyph glyph-name="eacute" unicode="&#xe9;" horiz-adv-x="378" 
d="M85 237q-10 -27 -10 -59q0 -29 9.5 -57t27.5 -50t43.5 -35.5t56.5 -13.5q39 0 73.5 17.5t54.5 51.5l14 -8q-23 -39 -64.5 -63t-86.5 -24q-35 0 -66 11.5t-54.5 32.5t-37 50.5t-13.5 65.5q0 40 14.5 76.5t40 64.5t60 45t75.5 17q24 0 47.5 -7t43 -19.5t34.5 -31t23 -42.5
l8 1v-16l-293 -7v0zM326 258q-3 20 -14 35.5t-26 26t-33.5 16t-37.5 5.5q-42 0 -74.5 -25.5t-49.5 -62.5l235 5v0zM275 501q16 14 34 14q12 0 21 -7t9 -22q0 -9 -5.5 -18.5t-18.5 -15.5l-156 -80h-28z" />
    <glyph glyph-name="ecircumflex" unicode="&#xea;" horiz-adv-x="378" 
d="M85 237q-10 -27 -10 -59q0 -29 9.5 -57t27.5 -50t43.5 -35.5t56.5 -13.5q39 0 73.5 17.5t54.5 51.5l14 -8q-23 -39 -64.5 -63t-86.5 -24q-35 0 -66 11.5t-54.5 32.5t-37 50.5t-13.5 65.5q0 40 14.5 76.5t40 64.5t60 45t75.5 17q24 0 47.5 -7t43 -19.5t34.5 -31t23 -42.5
l8 1v-16l-293 -7v0zM326 258q-3 20 -14 35.5t-26 26t-33.5 16t-37.5 5.5q-42 0 -74.5 -25.5t-49.5 -62.5l235 5v0zM211 496h24l134 -121h-31l-115 60l-115 -60h-30z" />
    <glyph glyph-name="edieresis" unicode="&#xeb;" horiz-adv-x="378" 
d="M85 237q-10 -27 -10 -59q0 -29 9.5 -57t27.5 -50t43.5 -35.5t56.5 -13.5q39 0 73.5 17.5t54.5 51.5l14 -8q-23 -39 -64.5 -63t-86.5 -24q-35 0 -66 11.5t-54.5 32.5t-37 50.5t-13.5 65.5q0 40 14.5 76.5t40 64.5t60 45t75.5 17q24 0 47.5 -7t43 -19.5t34.5 -31t23 -42.5
l8 1v-16l-293 -7v0zM326 258q-3 20 -14 35.5t-26 26t-33.5 16t-37.5 5.5q-42 0 -74.5 -25.5t-49.5 -62.5l235 5v0zM183 451q15 0 25.5 -10.5t10.5 -25.5q0 -14 -10.5 -25t-25.5 -11t-25.5 11t-10.5 25q0 15 10.5 25.5t25.5 10.5zM276 451q15 0 25.5 -10.5t10.5 -25.5
q0 -14 -10.5 -25t-25.5 -11t-25.5 11t-10.5 25q0 15 10.5 25.5t25.5 10.5z" />
    <glyph glyph-name="igrave" unicode="&#xec;" horiz-adv-x="238" 
d="M100 97l-4.5 -16.5t-2.5 -19.5q0 -13 6 -23t23 -10q26 0 43 20.5t26 41.5l15 -6q-6 -15 -16 -29.5t-22.5 -26.5t-27.5 -19.5t-31 -7.5q-32 0 -46.5 19t-14.5 44q0 14 5 31l59 196q2 5 3 11t1 11q0 12 -6.5 20t-21.5 8h-22v16q30 0 61 2.5t59 16.5l7 -14l-13 -6zM205 388
h-28l-156 80q-13 6 -18.5 15.5t-5.5 18.5q0 15 9 22t21 7q18 0 34 -14z" />
    <glyph glyph-name="iacute" unicode="&#xed;" horiz-adv-x="238" 
d="M100 97l-4.5 -16.5t-2.5 -19.5q0 -13 6 -23t23 -10q26 0 43 20.5t26 41.5l15 -6q-6 -15 -16 -29.5t-22.5 -26.5t-27.5 -19.5t-31 -7.5q-32 0 -46.5 19t-14.5 44q0 14 5 31l59 196q2 5 3 11t1 11q0 12 -6.5 20t-21.5 8h-22v16q30 0 61 2.5t59 16.5l7 -14l-13 -6zM221 513
q16 14 34 14q12 0 21 -7t9 -22q0 -9 -5.5 -18.5t-18.5 -15.5l-156 -80h-28z" />
    <glyph glyph-name="icircumflex" unicode="&#xee;" horiz-adv-x="238" 
d="M100 97l-4.5 -16.5t-2.5 -19.5q0 -13 6 -23t23 -10q26 0 43 20.5t26 41.5l15 -6q-6 -15 -16 -29.5t-22.5 -26.5t-27.5 -19.5t-31 -7.5q-32 0 -46.5 19t-14.5 44q0 14 5 31l59 196q2 5 3 11t1 11q0 12 -6.5 20t-21.5 8h-22v16q30 0 61 2.5t59 16.5l7 -14l-13 -6zM148 505
h24l134 -121h-31l-115 60l-115 -60h-30z" />
    <glyph glyph-name="idieresis" unicode="&#xef;" horiz-adv-x="238" 
d="M100 97l-4.5 -16.5t-2.5 -19.5q0 -13 6 -23t23 -10q26 0 43 20.5t26 41.5l15 -6q-6 -15 -16 -29.5t-22.5 -26.5t-27.5 -19.5t-31 -7.5q-32 0 -46.5 19t-14.5 44q0 14 5 31l59 196q2 5 3 11t1 11q0 12 -6.5 20t-21.5 8h-22v16q30 0 61 2.5t59 16.5l7 -14l-13 -6zM123 462
q15 0 25.5 -10.5t10.5 -25.5q0 -14 -10.5 -25t-25.5 -11t-25.5 11t-10.5 25q0 15 10.5 25.5t25.5 10.5zM216 462q15 0 25.5 -10.5t10.5 -25.5q0 -14 -10.5 -25t-25.5 -11t-25.5 11t-10.5 25q0 15 10.5 25.5t25.5 10.5z" />
    <glyph glyph-name="eth" unicode="&#xf0;" horiz-adv-x="436" 
d="M340 280q-19 31 -48.5 47t-64.5 16q-38 0 -65.5 -19t-45.5 -47.5t-26.5 -63.5t-8.5 -67q0 -58 32.5 -97t92.5 -39q34 0 61.5 17t47 43.5t29.5 58.5t10 63q0 44 -14 88zM320 330q-35 67 -93 116q-26 -11 -49 -22t-42 -18l-5 -6l-33 31l9 12q5 -3 14.5 -6t15.5 -3
q14 0 33.5 7t41.5 16q-44 34 -95 50l3 15q67 -13 125 -50q25 10 50.5 18t49.5 8q8 0 15 -0.5t13 -1.5l-2 -15q-8 1 -14.5 1.5t-12.5 0.5q-17 0 -38.5 -6.5t-44.5 -15.5q64 -46 103.5 -114t39.5 -149q0 -42 -16 -79t-43 -65.5t-63 -45t-76 -16.5q-37 0 -68.5 14t-55 38
t-37 56t-13.5 68q0 40 15.5 74.5t42 60t61.5 40.5t74 15q51 0 95 -28z" />
    <glyph glyph-name="ntilde" unicode="&#xf1;" horiz-adv-x="575" 
d="M159 292q4 9 4 23q0 11 -5.5 19t-21.5 8h-23v16q30 0 61.5 2.5t58.5 16.5l7 -14l-13 -6l-22 -74q23 32 54.5 53.5t72.5 21.5q22 0 42 -8t35.5 -22t24.5 -33t9 -41q0 -23 -5.5 -46.5t-13.5 -47.5q-7 -24 -13 -48.5t-6 -50.5q0 -18 9 -32.5t30 -14.5t40 11t34 28.5t26 38
t17 38.5l14 -4q-6 -21 -17.5 -43.5t-28.5 -41t-39 -30.5t-49 -12q-33 0 -59.5 19t-26.5 54q0 22 5.5 44t12.5 45q7 24 13 48t6 48q0 32 -14.5 55.5t-50.5 23.5q-32 0 -57 -14.5t-43.5 -36.5t-31.5 -48.5t-20 -50.5l-37 -120q-2 -5 -3 -11t-1 -11q0 -14 9.5 -21t23.5 -7h18
l-5 -16h-180l5 16h14q29 0 46 10t26 39l68 227v0zM272 477q18 0 36 -6.5t35 -15t33.5 -15t33.5 -6.5t32 10.5t15 29.5h18q0 -34 -21.5 -60t-56.5 -26q-18 0 -36 6.5t-36 14.5t-35.5 14.5t-33.5 6.5q-17 0 -31 -10t-16 -28h-17q0 37 21 61t59 24z" />
    <glyph glyph-name="ograve" unicode="&#xf2;" horiz-adv-x="457" 
d="M223 -7q-37 0 -69 14t-55.5 38t-37 56t-13.5 68q0 40 15.5 74.5t42.5 60t62.5 40.5t74.5 15q37 0 69.5 -14t56.5 -38t38 -56.5t14 -69.5q0 -41 -16 -75t-43.5 -59.5t-63.5 -39.5t-75 -14zM245 344q-38 0 -66 -18.5t-46 -47.5t-27 -64t-9 -68q0 -58 34 -96.5t93 -38.5
q34 0 61 18t46 46t29 61t10 63q0 28 -8.5 54t-24.5 46.5t-39 32.5t-53 12zM319 365h-28l-156 80q-13 6 -18.5 15.5t-5.5 18.5q0 15 9 22t21 7q18 0 34 -14z" />
    <glyph glyph-name="oacute" unicode="&#xf3;" horiz-adv-x="457" 
d="M223 -7q-37 0 -69 14t-55.5 38t-37 56t-13.5 68q0 40 15.5 74.5t42.5 60t62.5 40.5t74.5 15q37 0 69.5 -14t56.5 -38t38 -56.5t14 -69.5q0 -41 -16 -75t-43.5 -59.5t-63.5 -39.5t-75 -14zM245 344q-38 0 -66 -18.5t-46 -47.5t-27 -64t-9 -68q0 -58 34 -96.5t93 -38.5
q34 0 61 18t46 46t29 61t10 63q0 28 -8.5 54t-24.5 46.5t-39 32.5t-53 12zM322 502q16 14 34 14q12 0 21 -7t9 -22q0 -9 -5.5 -18.5t-18.5 -15.5l-156 -80h-28z" />
    <glyph glyph-name="ocircumflex" unicode="&#xf4;" horiz-adv-x="457" 
d="M223 -7q-37 0 -69 14t-55.5 38t-37 56t-13.5 68q0 40 15.5 74.5t42.5 60t62.5 40.5t74.5 15q37 0 69.5 -14t56.5 -38t38 -56.5t14 -69.5q0 -41 -16 -75t-43.5 -59.5t-63.5 -39.5t-75 -14zM245 344q-38 0 -66 -18.5t-46 -47.5t-27 -64t-9 -68q0 -58 34 -96.5t93 -38.5
q34 0 61 18t46 46t29 61t10 63q0 28 -8.5 54t-24.5 46.5t-39 32.5t-53 12zM245 486h24l134 -121h-31l-115 60l-115 -60h-30z" />
    <glyph glyph-name="otilde" unicode="&#xf5;" horiz-adv-x="457" 
d="M223 -7q-37 0 -69 14t-55.5 38t-37 56t-13.5 68q0 40 15.5 74.5t42.5 60t62.5 40.5t74.5 15q37 0 69.5 -14t56.5 -38t38 -56.5t14 -69.5q0 -41 -16 -75t-43.5 -59.5t-63.5 -39.5t-75 -14zM245 344q-38 0 -66 -18.5t-46 -47.5t-27 -64t-9 -68q0 -58 34 -96.5t93 -38.5
q34 0 61 18t46 46t29 61t10 63q0 28 -8.5 54t-24.5 46.5t-39 32.5t-53 12zM188 466q18 0 36 -6.5t35 -15t33.5 -15t33.5 -6.5t32 10.5t15 29.5h18q0 -34 -21.5 -60t-56.5 -26q-18 0 -36 6.5t-36 14.5t-35.5 14.5t-33.5 6.5q-17 0 -31 -10t-16 -28h-17q0 37 21 61t59 24z" />
    <glyph glyph-name="odieresis" unicode="&#xf6;" horiz-adv-x="457" 
d="M223 -7q-37 0 -69 14t-55.5 38t-37 56t-13.5 68q0 40 15.5 74.5t42.5 60t62.5 40.5t74.5 15q37 0 69.5 -14t56.5 -38t38 -56.5t14 -69.5q0 -41 -16 -75t-43.5 -59.5t-63.5 -39.5t-75 -14zM245 344q-38 0 -66 -18.5t-46 -47.5t-27 -64t-9 -68q0 -58 34 -96.5t93 -38.5
q34 0 61 18t46 46t29 61t10 63q0 28 -8.5 54t-24.5 46.5t-39 32.5t-53 12zM203 451q15 0 25.5 -10.5t10.5 -25.5q0 -14 -10.5 -25t-25.5 -11t-25.5 11t-10.5 25q0 15 10.5 25.5t25.5 10.5zM296 451q15 0 25.5 -10.5t10.5 -25.5q0 -14 -10.5 -25t-25.5 -11t-25.5 11t-10.5 25
q0 15 10.5 25.5t25.5 10.5z" />
    <glyph glyph-name="divide" unicode="&#xf7;" horiz-adv-x="367" 
d="M184 211q22 0 37 -15.5t15 -37.5t-15 -37t-37 -15t-37.5 15t-15.5 37t15.5 37.5t37.5 15.5zM367 299v-52h-367v52h367zM184 440q22 0 37 -15.5t15 -37.5t-15 -37t-37 -15t-37.5 15t-15.5 37t15.5 37.5t37.5 15.5z" />
    <glyph glyph-name="oslash" unicode="&#xf8;" horiz-adv-x="457" 
d="M126 54q17 -20 41.5 -32t56.5 -12q34 0 61 18.5t46 46.5t29 61t10 62q0 42 -19 78zM340 294q-16 22 -39.5 35.5t-55.5 13.5q-38 0 -66 -18.5t-46 -47.5t-27 -64t-9 -68q0 -43 18 -73zM223 -8q-34 0 -63 12t-52 32l-36 -35l-14 15l35 34q-21 23 -33 53.5t-12 64.5
q0 40 15.5 74.5t42.5 60t62.5 40.5t74.5 15q33 0 63.5 -12t53.5 -32l36 35l15 -14l-36 -36q21 -24 33.5 -54t12.5 -65q0 -41 -16 -75t-43.5 -59.5t-63.5 -39.5t-75 -14z" />
    <glyph glyph-name="ugrave" unicode="&#xf9;" horiz-adv-x="511" 
d="M47 257q0 -14 7 -30l-13 -7q-9 18 -9 37q0 21 7.5 39t20.5 31.5t31.5 21.5t41.5 8q32 0 52.5 -21t20.5 -54q0 -26 -8 -50.5t-18 -50.5q-9 -25 -17.5 -52t-8.5 -53q0 -31 15 -47.5t39 -16.5q22 0 42 14.5t37 35.5t30.5 45.5t22.5 44.5l93 199h50l-77 -253q-2 -8 -4.5 -17
t-2.5 -17q0 -14 5.5 -25t21.5 -11q26 0 44 21t27 42l14 -6q-6 -14 -16 -28.5t-23.5 -26.5t-29 -19.5t-31.5 -7.5q-27 0 -42.5 14.5t-15.5 41.5q0 17 5 37l52 170l-55 -119q-11 -24 -26.5 -51t-34.5 -49.5t-41.5 -37t-47.5 -14.5q-41 0 -68 24.5t-27 64.5q0 26 8 54t18 54
t18.5 51t8.5 50q0 23 -12.5 34t-29.5 11q-15 0 -28.5 -7t-23.5 -18.5t-16 -26t-6 -29.5zM381 365h-28l-156 80q-13 6 -18.5 15.5t-5.5 18.5q0 15 9 22t21 7q18 0 34 -14z" />
    <glyph glyph-name="uacute" unicode="&#xfa;" horiz-adv-x="511" 
d="M47 257q0 -14 7 -30l-13 -7q-9 18 -9 37q0 21 7.5 39t20.5 31.5t31.5 21.5t41.5 8q32 0 52.5 -21t20.5 -54q0 -26 -8 -50.5t-18 -50.5q-9 -25 -17.5 -52t-8.5 -53q0 -31 15 -47.5t39 -16.5q22 0 42 14.5t37 35.5t30.5 45.5t22.5 44.5l93 199h50l-77 -253q-2 -8 -4.5 -17
t-2.5 -17q0 -14 5.5 -25t21.5 -11q26 0 44 21t27 42l14 -6q-6 -14 -16 -28.5t-23.5 -26.5t-29 -19.5t-31.5 -7.5q-27 0 -42.5 14.5t-15.5 41.5q0 17 5 37l52 170l-55 -119q-11 -24 -26.5 -51t-34.5 -49.5t-41.5 -37t-47.5 -14.5q-41 0 -68 24.5t-27 64.5q0 26 8 54t18 54
t18.5 51t8.5 50q0 23 -12.5 34t-29.5 11q-15 0 -28.5 -7t-23.5 -18.5t-16 -26t-6 -29.5zM354 493q16 14 34 14q12 0 21 -7t9 -22q0 -9 -5.5 -18.5t-18.5 -15.5l-156 -80h-28z" />
    <glyph glyph-name="ucircumflex" unicode="&#xfb;" horiz-adv-x="511" 
d="M47 257q0 -14 7 -30l-13 -7q-9 18 -9 37q0 21 7.5 39t20.5 31.5t31.5 21.5t41.5 8q32 0 52.5 -21t20.5 -54q0 -26 -8 -50.5t-18 -50.5q-9 -25 -17.5 -52t-8.5 -53q0 -31 15 -47.5t39 -16.5q22 0 42 14.5t37 35.5t30.5 45.5t22.5 44.5l93 199h50l-77 -253q-2 -8 -4.5 -17
t-2.5 -17q0 -14 5.5 -25t21.5 -11q26 0 44 21t27 42l14 -6q-6 -14 -16 -28.5t-23.5 -26.5t-29 -19.5t-31.5 -7.5q-27 0 -42.5 14.5t-15.5 41.5q0 17 5 37l52 170l-55 -119q-11 -24 -26.5 -51t-34.5 -49.5t-41.5 -37t-47.5 -14.5q-41 0 -68 24.5t-27 64.5q0 26 8 54t18 54
t18.5 51t8.5 50q0 23 -12.5 34t-29.5 11q-15 0 -28.5 -7t-23.5 -18.5t-16 -26t-6 -29.5zM304 494h24l134 -121h-31l-115 60l-115 -60h-30z" />
    <glyph glyph-name="udieresis" unicode="&#xfc;" horiz-adv-x="511" 
d="M47 257q0 -14 7 -30l-13 -7q-9 18 -9 37q0 21 7.5 39t20.5 31.5t31.5 21.5t41.5 8q32 0 52.5 -21t20.5 -54q0 -26 -8 -50.5t-18 -50.5q-9 -25 -17.5 -52t-8.5 -53q0 -31 15 -47.5t39 -16.5q22 0 42 14.5t37 35.5t30.5 45.5t22.5 44.5l93 199h50l-77 -253q-2 -8 -4.5 -17
t-2.5 -17q0 -14 5.5 -25t21.5 -11q26 0 44 21t27 42l14 -6q-6 -14 -16 -28.5t-23.5 -26.5t-29 -19.5t-31.5 -7.5q-27 0 -42.5 14.5t-15.5 41.5q0 17 5 37l52 170l-55 -119q-11 -24 -26.5 -51t-34.5 -49.5t-41.5 -37t-47.5 -14.5q-41 0 -68 24.5t-27 64.5q0 26 8 54t18 54
t18.5 51t8.5 50q0 23 -12.5 34t-29.5 11q-15 0 -28.5 -7t-23.5 -18.5t-16 -26t-6 -29.5zM273 450q15 0 25.5 -10.5t10.5 -25.5q0 -14 -10.5 -25t-25.5 -11t-25.5 11t-10.5 25q0 15 10.5 25.5t25.5 10.5zM366 450q15 0 25.5 -10.5t10.5 -25.5q0 -14 -10.5 -25t-25.5 -11
t-25.5 11t-10.5 25q0 15 10.5 25.5t25.5 10.5z" />
    <glyph glyph-name="yacute" unicode="&#xfd;" horiz-adv-x="674" 
d="M653 287q0 30 -20 46t-49 16q-30 0 -55 -13.5t-52 -42.5q-51 -54 -92 -117l-83 -128l-38.5 -59t-47.5 -67t-56 -66.5t-63 -58t-69 -41t-74 -15.5q-26 0 -50.5 8.5t-43 24.5t-29.5 38.5t-11 50.5q0 25 9.5 47.5t26.5 39.5t39 27.5t48 10.5q23 0 42 -10t33 -28l-13 -9
q-22 32 -62 32q-44 0 -71 -30t-27 -72q0 -24 9.5 -44.5t25.5 -36t37.5 -24t44.5 -8.5q42 0 82.5 26t75 61.5t61.5 73.5l44 62l39 57l-91 226q-12 29 -24.5 47t-35.5 18q-21 0 -32.5 -19.5t-11.5 -37.5q0 -27 19 -46l-11 -11q-24 24 -24 57t20.5 56.5t55.5 23.5
q33 0 55.5 -24.5t34.5 -53.5l74 -188l60.5 92t69 91t77.5 69.5t87 27.5q16 0 31.5 -5t28 -14t20 -22.5t7.5 -30.5q0 -28 -17.5 -50t-46.5 -23q-19 2 -34 12l9 13q12 -9 26 -9q21 0 31.5 15t10.5 35zM427 484q16 14 34 14q12 0 21 -7t9 -22q0 -9 -5.5 -18.5t-18.5 -15.5
l-156 -80h-28z" />
    <glyph glyph-name="thorn" unicode="&#xfe;" horiz-adv-x="452" 
d="M134 102q7 -30 25.5 -53.5t54.5 -23.5q41 0 71 22t49.5 55.5t29 72.5t9.5 73q0 16 -2.5 34t-9.5 33t-19.5 25t-33.5 10q-18 0 -35.5 -6.5t-33.5 -17.5t-30 -25.5t-24 -29.5l-51 -169v0zM198 312q25 25 56 40.5t67 15.5q28 0 48.5 -10.5t33.5 -28.5t19 -41t6 -48
q0 -42 -14.5 -84.5t-41 -76.5t-64 -55.5t-83.5 -21.5q-41 0 -64.5 20.5t-35.5 51.5l-42 -136q-10 -33 -28 -63t-43.5 -52.5t-57 -36t-68.5 -13.5q-21 0 -40 7t-33.5 20t-23.5 31t-9 40q0 33 21.5 58.5t54.5 32.5l2 -16q-25 -5 -40.5 -24t-15.5 -45q0 -36 24 -62t62 -26
q31 0 55 12.5t42 32.5t30 45.5t20 52.5l145 478q8 25 23.5 46.5t36 37t45.5 24t51 8.5q14 0 28.5 -4t26.5 -12t20 -20.5t8 -28.5q0 -23 -16.5 -39t-39.5 -16h-6.5t-6.5 1l4 15q2 0 4.5 -0.5t4.5 -0.5q17 0 27 12.5t10 28.5q0 26 -21 37t-43 11t-39.5 -9.5t-31.5 -24.5
t-23.5 -34t-15.5 -37l-28 -93v0z" />
    <glyph glyph-name="ydieresis" unicode="&#xff;" horiz-adv-x="674" 
d="M653 287q0 30 -20 46t-49 16q-30 0 -55 -13.5t-52 -42.5q-51 -54 -92 -117l-83 -128l-38.5 -59t-47.5 -67t-56 -66.5t-63 -58t-69 -41t-74 -15.5q-26 0 -50.5 8.5t-43 24.5t-29.5 38.5t-11 50.5q0 25 9.5 47.5t26.5 39.5t39 27.5t48 10.5q23 0 42 -10t33 -28l-13 -9
q-22 32 -62 32q-44 0 -71 -30t-27 -72q0 -24 9.5 -44.5t25.5 -36t37.5 -24t44.5 -8.5q42 0 82.5 26t75 61.5t61.5 73.5l44 62l39 57l-91 226q-12 29 -24.5 47t-35.5 18q-21 0 -32.5 -19.5t-11.5 -37.5q0 -27 19 -46l-11 -11q-24 24 -24 57t20.5 56.5t55.5 23.5
q33 0 55.5 -24.5t34.5 -53.5l74 -188l60.5 92t69 91t77.5 69.5t87 27.5q16 0 31.5 -5t28 -14t20 -22.5t7.5 -30.5q0 -28 -17.5 -50t-46.5 -23q-19 2 -34 12l9 13q12 -9 26 -9q21 0 31.5 15t10.5 35zM302 415q15 0 25.5 -10.5t10.5 -25.5q0 -14 -10.5 -25t-25.5 -11t-25.5 11
t-10.5 25q0 15 10.5 25.5t25.5 10.5zM395 415q15 0 25.5 -10.5t10.5 -25.5q0 -14 -10.5 -25t-25.5 -11t-25.5 11t-10.5 25q0 15 10.5 25.5t25.5 10.5z" />
    <glyph glyph-name="Abreve" unicode="&#x102;" 
d="M685 222l63.5 -14.5t63.5 -7.5q18 0 33 6v283zM845 189q-12 -4 -25 -5.5t-26 -1.5q-35 0 -66 6.5l-60 12.5q-37 -50 -83 -96t-98.5 -81t-111.5 -55.5t-122 -20.5q-40 0 -82.5 11.5t-78 34.5t-58 57.5t-22.5 80.5q0 54 23.5 98t61.5 75t87 47.5t100 16.5q25 0 53.5 -7
t51.5 -22t38.5 -37t15.5 -52q0 -37 -16 -65.5t-41.5 -48.5t-59 -31t-67.5 -11v15q30 0 58.5 9t50.5 26t35.5 41.5t13.5 57.5q0 27 -12.5 47.5t-32.5 34t-44 20t-48 6.5q-45 0 -88.5 -15t-77 -43t-54.5 -67t-21 -87q0 -43 19 -76t50 -55.5t69 -34t76 -11.5q60 0 116.5 20
t107.5 53t95 76.5t80 91.5l-29 4t-30 2q-34 0 -68 -16l-7 14q23 12 49.5 17t51.5 5q13 0 25.5 -1t24.5 -3l210 351l14 -4v-349q0 -50 -12.5 -100.5t-38 -94.5t-63 -76.5t-86.5 -44.5q58 -11 111 -35l105 -49t104 -44t109 -19q30 0 59 7.5t51 23t35.5 38.5t13.5 53
q0 37 -22.5 63.5t-60.5 26.5q-28 0 -50 -19l-10 12q13 11 28 17t32 6q22 0 40 -8.5t31.5 -23t21 -34t7.5 -41.5q0 -37 -18 -65t-45.5 -47t-61.5 -28.5t-66 -9.5q-46 0 -87.5 11.5t-81 29.5t-77 39t-75 40t-76 32.5t-78.5 16.5v14q49 0 88 25t66.5 64.5t42.5 88.5t16 96z
M1009 705q-12 -47 -49.5 -77.5t-86.5 -30.5t-86.5 30.5t-50.5 77.5l14 7q21 -29 54 -44t69 -15q35 0 68 15t55 44zM1009 705q-12 -47 -49.5 -77.5t-86.5 -30.5t-86.5 30.5t-50.5 77.5l14 7q21 -29 54 -44t69 -15q35 0 68 15t55 44z" />
    <glyph glyph-name="abreve" unicode="&#x103;" horiz-adv-x="442" 
d="M442 94q-6 -17 -14.5 -34t-20.5 -30.5t-28 -22.5t-35 -9q-16 0 -28 7.5t-19.5 19t-11.5 26t-4 29.5q-20 -37 -54 -60t-77 -23q-29 0 -51 10.5t-37 28.5t-22.5 42t-7.5 51q0 42 15.5 82t43 71.5t64.5 50.5t81 19q32 0 59 -19t38 -50l18 61h44l-61 -201q-5 -15 -7.5 -33
t-2.5 -34q0 -8 2 -17.5t6 -17.5t11 -13.5t17 -5.5q13 0 24.5 8t20 20t14.5 25t10 24l13 -5v0zM324 254q-6 30 -28.5 55t-55.5 25q-38 0 -67 -19.5t-49 -49.5t-30.5 -66t-10.5 -69q0 -18 3.5 -38t12 -37.5t23 -28.5t37.5 -11q41 0 69 27t46.5 64.5t30 78.5zM398 487
q-12 -47 -49.5 -77.5t-86.5 -30.5t-86.5 30.5t-50.5 77.5l14 7q21 -29 54 -44t69 -15q35 0 68 15t55 44zM398 487q-12 -47 -49.5 -77.5t-86.5 -30.5t-86.5 30.5t-50.5 77.5l14 7q21 -29 54 -44t69 -15q35 0 68 15t55 44z" />
    <glyph glyph-name="Aogonek" unicode="&#x104;" 
d="M685 222l63.5 -14.5t63.5 -7.5q18 0 33 6v283zM845 189q-12 -4 -25 -5.5t-26 -1.5q-35 0 -66 6.5l-60 12.5q-37 -50 -83 -96t-98.5 -81t-111.5 -55.5t-122 -20.5q-40 0 -82.5 11.5t-78 34.5t-58 57.5t-22.5 80.5q0 54 23.5 98t61.5 75t87 47.5t100 16.5q25 0 53.5 -7
t51.5 -22t38.5 -37t15.5 -52q0 -37 -16 -65.5t-41.5 -48.5t-59 -31t-67.5 -11v15q30 0 58.5 9t50.5 26t35.5 41.5t13.5 57.5q0 27 -12.5 47.5t-32.5 34t-44 20t-48 6.5q-45 0 -88.5 -15t-77 -43t-54.5 -67t-21 -87q0 -43 19 -76t50 -55.5t69 -34t76 -11.5q60 0 116.5 20
t107.5 53t95 76.5t80 91.5l-29 4t-30 2q-34 0 -68 -16l-7 14q23 12 49.5 17t51.5 5q13 0 25.5 -1t24.5 -3l210 351l14 -4v-349q0 -50 -12.5 -100.5t-38 -94.5t-63 -76.5t-86.5 -44.5q58 -11 111 -35l105 -49t104 -44t109 -19q30 0 59 7.5t51 23t35.5 38.5t13.5 53
q0 37 -22.5 63.5t-60.5 26.5q-28 0 -50 -19l-10 12q13 11 28 17t32 6q22 0 40 -8.5t31.5 -23t21 -34t7.5 -41.5q0 -37 -18 -65t-45.5 -47t-61.5 -28.5t-66 -9.5q-46 0 -87.5 11.5t-81 29.5t-77 39t-75 40t-76 32.5t-78.5 16.5v14q49 0 88 25t66.5 64.5t42.5 88.5t16 96z
M1299 -389q-16 -17 -38.5 -24.5t-45.5 -7.5q-32 0 -56 19t-24 59q0 21 7.5 40.5t20.5 36t29.5 29t34.5 20.5l7 -13q-27 -16 -46 -38.5t-19 -56.5q0 -26 17 -42t44 -16q19 0 35.5 7.5t33.5 16.5v-30zM1299 -389q-16 -17 -38.5 -24.5t-45.5 -7.5q-32 0 -56 19t-24 59
q0 21 7.5 40.5t20.5 36t29.5 29t34.5 20.5l7 -13q-27 -16 -46 -38.5t-19 -56.5q0 -26 17 -42t44 -16q19 0 35.5 7.5t33.5 16.5v-30z" />
    <glyph glyph-name="aogonek" unicode="&#x105;" horiz-adv-x="442" 
d="M442 94q-6 -17 -14.5 -34t-20.5 -30.5t-28 -22.5t-35 -9q-16 0 -28 7.5t-19.5 19t-11.5 26t-4 29.5q-20 -37 -54 -60t-77 -23q-29 0 -51 10.5t-37 28.5t-22.5 42t-7.5 51q0 42 15.5 82t43 71.5t64.5 50.5t81 19q32 0 59 -19t38 -50l18 61h44l-61 -201q-5 -15 -7.5 -33
t-2.5 -34q0 -8 2 -17.5t6 -17.5t11 -13.5t17 -5.5q13 0 24.5 8t20 20t14.5 25t10 24l13 -5v0zM324 254q-6 30 -28.5 55t-55.5 25q-38 0 -67 -19.5t-49 -49.5t-30.5 -66t-10.5 -69q0 -18 3.5 -38t12 -37.5t23 -28.5t37.5 -11q41 0 69 27t46.5 64.5t30 78.5zM451 -148
q-16 -17 -38.5 -24.5t-45.5 -7.5q-32 0 -56 19t-24 59q0 21 7.5 40.5t20.5 36t29.5 29t34.5 20.5l7 -13q-27 -16 -46 -38.5t-19 -56.5q0 -26 17 -42t44 -16q19 0 35.5 7.5t33.5 16.5v-30zM451 -148q-16 -17 -38.5 -24.5t-45.5 -7.5q-32 0 -56 19t-24 59q0 21 7.5 40.5
t20.5 36t29.5 29t34.5 20.5l7 -13q-27 -16 -46 -38.5t-19 -56.5q0 -26 17 -42t44 -16q19 0 35.5 7.5t33.5 16.5v-30z" />
    <glyph glyph-name="Cacute" unicode="&#x106;" horiz-adv-x="654" 
d="M604 372q5 12 9.5 24.5t4.5 26.5q0 40 -23 70.5t-57 51.5t-74 31.5t-73 10.5q-75 0 -133.5 -28.5t-98 -75t-60.5 -106t-21 -120.5q0 -58 19 -114.5t55.5 -101.5t90 -72.5t122.5 -27.5q41 0 82.5 14t74.5 39t54 60t21 78q0 17 -6.5 36.5t-18.5 32.5l9 12q17 -11 31 -35
t14 -46q0 -50 -23.5 -88.5t-61.5 -65t-85 -40.5t-94 -14q-83 0 -146.5 29.5t-106 77t-64 108t-21.5 122.5q0 64 24 125.5t70.5 110t115 78.5t157.5 30q36 0 74 -8.5t72.5 -25.5t62.5 -41.5t46 -56.5l15 38h17l-56 -139h-18v0zM498 752q16 14 34 14q12 0 21 -7t9 -22
q0 -9 -5.5 -18.5t-18.5 -15.5l-156 -80h-28z" />
    <glyph glyph-name="cacute" unicode="&#x107;" horiz-adv-x="363" 
d="M334 69q-22 -39 -61.5 -61.5t-84.5 -22.5q-31 0 -59.5 10.5t-50 30t-34 46.5t-12.5 59q0 45 19 84t50 68t71.5 46t84.5 17q16 0 34.5 -3.5t34.5 -12t26.5 -22t10.5 -32.5q0 -13 -7.5 -23.5t-21.5 -10.5q-9 0 -15.5 6t-6.5 16q0 11 6.5 16.5t6.5 13.5q0 11 -7.5 18.5
t-18 11.5t-22.5 5.5t-20 1.5q-39 0 -70.5 -15t-54.5 -41t-35.5 -60t-12.5 -71q0 -29 8 -53.5t24 -43.5t39 -29.5t53 -10.5q35 0 65 20.5t47 49.5zM323 490q16 14 34 14q12 0 21 -7t9 -22q0 -9 -5.5 -18.5t-18.5 -15.5l-156 -80h-28z" />
    <glyph glyph-name="Ccaron" unicode="&#x10c;" horiz-adv-x="654" 
d="M604 372q5 12 9.5 24.5t4.5 26.5q0 40 -23 70.5t-57 51.5t-74 31.5t-73 10.5q-75 0 -133.5 -28.5t-98 -75t-60.5 -106t-21 -120.5q0 -58 19 -114.5t55.5 -101.5t90 -72.5t122.5 -27.5q41 0 82.5 14t74.5 39t54 60t21 78q0 17 -6.5 36.5t-18.5 32.5l9 12q17 -11 31 -35
t14 -46q0 -50 -23.5 -88.5t-61.5 -65t-85 -40.5t-94 -14q-83 0 -146.5 29.5t-106 77t-64 108t-21.5 122.5q0 64 24 125.5t70.5 110t115 78.5t157.5 30q36 0 74 -8.5t72.5 -25.5t62.5 -41.5t46 -56.5l15 38h17l-56 -139h-18v0zM316 759l105 -68l105 68h31l-124 -131h-24
l-123 131h30zM316 759l105 -68l105 68h31l-124 -131h-24l-123 131h30z" />
    <glyph glyph-name="ccaron" unicode="&#x10d;" horiz-adv-x="363" 
d="M334 69q-22 -39 -61.5 -61.5t-84.5 -22.5q-31 0 -59.5 10.5t-50 30t-34 46.5t-12.5 59q0 45 19 84t50 68t71.5 46t84.5 17q16 0 34.5 -3.5t34.5 -12t26.5 -22t10.5 -32.5q0 -13 -7.5 -23.5t-21.5 -10.5q-9 0 -15.5 6t-6.5 16q0 11 6.5 16.5t6.5 13.5q0 11 -7.5 18.5
t-18 11.5t-22.5 5.5t-20 1.5q-39 0 -70.5 -15t-54.5 -41t-35.5 -60t-12.5 -71q0 -29 8 -53.5t24 -43.5t39 -29.5t53 -10.5q35 0 65 20.5t47 49.5zM164 499l105 -68l105 68h31l-124 -131h-24l-123 131h30zM164 499l105 -68l105 68h31l-124 -131h-24l-123 131h30z" />
    <glyph glyph-name="Dcaron" unicode="&#x10e;" horiz-adv-x="827" 
d="M256 -16q44 -11 89.5 -14t90.5 -3q69 0 130.5 25.5t108 70t73.5 105t27 131.5q0 60 -22.5 115t-73.5 97q-39 32 -96 51t-132 23l-195 -601v0zM155 -34q23 0 40.5 13t24.5 33l187 574q-75 -1 -139.5 -19.5t-112.5 -50.5q-49 -32 -77 -75.5t-28 -93.5q0 -20 7.5 -39
t20.5 -34t31 -24t39 -9q24 0 46 10.5t38 29.5l12 -9q-18 -22 -43 -34.5t-53 -12.5q-27 0 -49.5 9.5t-39 26t-26 39.5t-9.5 49q0 54 32 100.5t89 81.5q56 35 129 55t158 20q96 0 166.5 -22t118.5 -60q57 -45 83.5 -104.5t26.5 -123.5q0 -67 -28.5 -132t-82.5 -115
q-48 -45 -113 -71.5t-146 -26.5h-335l5 15h28zM413 754l105 -68l105 68h31l-124 -131h-24l-123 131h30zM413 754l105 -68l105 68h31l-124 -131h-24l-123 131h30z" />
    <glyph glyph-name="dcaron" unicode="&#x10f;" horiz-adv-x="459" 
d="M319 488q31 0 61.5 2.5t58.5 16.5l7 -13l-13 -6l-120 -394q-7 -23 -21.5 -41t-33.5 -31.5t-41 -20.5t-45 -7q-31 0 -57 13t-44.5 34t-28.5 48.5t-10 56.5q0 39 13 77t37 68.5t58 49t76 18.5q38 0 65.5 -21t40.5 -56l12.5 37l17 52t15 51t6.5 33q0 13 -17.5 15.5
t-36.5 2.5v15zM314 253q-8 33 -30.5 60.5t-59.5 27.5q-38 0 -64.5 -19.5t-44 -49t-25.5 -65t-8 -66.5q0 -20 4 -42.5t14 -42t26.5 -32t40.5 -12.5q33 0 60 22t36 53l51 166v0zM439 441q34 3 61.5 24t35.5 56q-8 -7 -23 -7t-27 10t-12 26t12 26t27 10q17 0 29 -12.5t12 -29.5
q0 -25 -10 -46.5t-26.5 -37t-38 -24.5t-45.5 -10l5 15v0z" />
    <glyph glyph-name="Dcroat" unicode="&#x110;" horiz-adv-x="827" 
d="M409 208l-10 -33h-81l-62 -192q44 -11 89.5 -14t90.5 -3q69 0 130.5 25.5t108 69.5t73.5 104.5t27 131.5q0 60 -22.5 115.5t-73.5 96.5q-39 32 -96 51t-132 24l-122 -376h80zM155 -36q23 0 40.5 13t24.5 34l54 164h-65l10 33h65l123 377q-75 -2 -139.5 -20.5
t-112.5 -50.5q-49 -32 -77 -75t-28 -93q0 -20 7.5 -39t20.5 -34t31 -24.5t39 -9.5q24 0 46 10.5t38 30.5l12 -10q-18 -22 -43 -34t-53 -12q-27 0 -49.5 9.5t-39 26t-26 39t-9.5 48.5q0 54 32 101t89 82q56 35 129 54.5t158 19.5q96 0 166.5 -22t118.5 -60q57 -45 83.5 -104
t26.5 -123q0 -68 -28.5 -132.5t-82.5 -115.5q-48 -45 -113 -71.5t-146 -26.5h-335l5 15h28z" />
    <glyph glyph-name="dcroat" unicode="&#x111;" horiz-adv-x="398" 
d="M470 425l-10 -28h-204l10 28h204zM319 488q31 0 61.5 2.5t58.5 16.5l7 -13l-13 -6l-120 -394q-7 -23 -21.5 -41t-33.5 -31.5t-41 -20.5t-45 -7q-31 0 -57 13t-44.5 34t-28.5 48.5t-10 56.5q0 39 13 77t37 68.5t58 49t76 18.5q38 0 65.5 -21t40.5 -56l12.5 37l17 52t15 51
t6.5 33q0 13 -17.5 15.5t-36.5 2.5v15zM314 253q-8 33 -30.5 60.5t-59.5 27.5q-38 0 -64.5 -19.5t-44 -49t-25.5 -65t-8 -66.5q0 -20 4 -42.5t14 -42t26.5 -32t40.5 -12.5q33 0 60 22t36 53l51 166v0z" />
    <glyph glyph-name="Eogonek" unicode="&#x118;" horiz-adv-x="613" 
d="M423 285q-28 0 -46.5 -20.5t-18.5 -47.5t12 -49.5t33 -41.5t48.5 -36t58.5 -32q11 20 16 42.5t5 47.5q0 27 -7 51.5t-21 43.5t-34 30.5t-46 11.5zM237 387q18 -20 35 -28t31 -8q12 0 19.5 4.5t7.5 11.5q0 8 -12.5 14.5t-41.5 7.5h-4q-9 0 -18 -0.5t-17 -1.5zM323 477
q15 -13 33 -13q20 0 33.5 16t13.5 36q0 16 -7.5 28.5t-19.5 20t-26.5 11.5t-28.5 4q-49 0 -81.5 -32.5t-32.5 -81.5q0 -37 19 -66q11 2 22.5 3.5t25.5 1.5q39 -1 56 -12t17 -25q0 -13 -13 -23.5t-34 -10.5q-19 0 -41.5 11t-45.5 37q-33 -9 -59 -27.5t-44 -44t-27.5 -57
t-9.5 -65.5q0 -49 18.5 -91.5t50 -74.5t74 -50.5t91.5 -18.5q54 0 104 19.5t84 62.5q-31 16 -59.5 33.5t-50.5 38.5t-35 47t-13 59q0 37 25.5 62.5t63.5 25.5q30 0 54 -12.5t41 -33.5t26.5 -47.5t9.5 -54.5q0 -29 -8 -55t-22 -49l77 -40t73 -48.5t54.5 -65t21.5 -89.5
q0 -26 -10.5 -48t-28 -38.5t-41 -26t-48.5 -9.5q-17 0 -33 5.5t-29 16t-21 24t-8 30.5q0 5 1 11t3 11l15 -6q-3 -8 -3 -16q0 -14 7 -24.5t18.5 -17.5t24.5 -10.5t25 -3.5q22 0 42.5 7.5t36 21.5t24.5 33.5t9 42.5q0 46 -22.5 79.5t-56.5 58.5t-73.5 44l-73.5 36
q-38 -48 -96 -72.5t-120 -24.5q-49 0 -97.5 16.5t-87 47.5t-62.5 74t-24 97q0 40 13.5 77t37.5 67t56.5 52.5t70.5 33.5q-25 34 -25 74q0 31 12.5 54.5t33.5 39.5t47.5 24t54.5 8q18 0 36 -5.5t32 -16t23 -26t9 -34.5q0 -29 -20.5 -47t-48.5 -18q-24 0 -44 18l11 11v0z
M767 -450q-16 -17 -38.5 -24.5t-45.5 -7.5q-32 0 -56 19t-24 59q0 21 7.5 40.5t20.5 36t29.5 29t34.5 20.5l7 -13q-27 -16 -46 -38.5t-19 -56.5q0 -26 17 -42t44 -16q19 0 35.5 7.5t33.5 16.5v-30zM767 -450q-16 -17 -38.5 -24.5t-45.5 -7.5q-32 0 -56 19t-24 59
q0 21 7.5 40.5t20.5 36t29.5 29t34.5 20.5l7 -13q-27 -16 -46 -38.5t-19 -56.5q0 -26 17 -42t44 -16q19 0 35.5 7.5t33.5 16.5v-30z" />
    <glyph glyph-name="eogonek" unicode="&#x119;" horiz-adv-x="378" 
d="M85 237q-10 -27 -10 -59q0 -29 9.5 -57t27.5 -50t43.5 -35.5t56.5 -13.5q39 0 73.5 17.5t54.5 51.5l14 -8q-23 -39 -64.5 -63t-86.5 -24q-35 0 -66 11.5t-54.5 32.5t-37 50.5t-13.5 65.5q0 40 14.5 76.5t40 64.5t60 45t75.5 17q24 0 47.5 -7t43 -19.5t34.5 -31t23 -42.5
l8 1v-16l-293 -7v0zM326 258q-3 20 -14 35.5t-26 26t-33.5 16t-37.5 5.5q-42 0 -74.5 -25.5t-49.5 -62.5l235 5v0zM365 -132q-16 -17 -38.5 -24.5t-45.5 -7.5q-32 0 -56 19t-24 59q0 21 7.5 40.5t20.5 36t29.5 29t34.5 20.5l7 -13q-27 -16 -46 -38.5t-19 -56.5q0 -26 17 -42
t44 -16q19 0 35.5 7.5t33.5 16.5v-30zM365 -132q-16 -17 -38.5 -24.5t-45.5 -7.5q-32 0 -56 19t-24 59q0 21 7.5 40.5t20.5 36t29.5 29t34.5 20.5l7 -13q-27 -16 -46 -38.5t-19 -56.5q0 -26 17 -42t44 -16q19 0 35.5 7.5t33.5 16.5v-30z" />
    <glyph glyph-name="Ecaron" unicode="&#x11a;" horiz-adv-x="613" 
d="M423 285q-28 0 -46.5 -20.5t-18.5 -47.5t12 -49.5t33 -41.5t48.5 -36t58.5 -32q11 20 16 42.5t5 47.5q0 27 -7 51.5t-21 43.5t-34 30.5t-46 11.5zM237 387q18 -20 35 -28t31 -8q12 0 19.5 4.5t7.5 11.5q0 8 -12.5 14.5t-41.5 7.5h-4q-9 0 -18 -0.5t-17 -1.5zM323 477
q15 -13 33 -13q20 0 33.5 16t13.5 36q0 16 -7.5 28.5t-19.5 20t-26.5 11.5t-28.5 4q-49 0 -81.5 -32.5t-32.5 -81.5q0 -37 19 -66q11 2 22.5 3.5t25.5 1.5q39 -1 56 -12t17 -25q0 -13 -13 -23.5t-34 -10.5q-19 0 -41.5 11t-45.5 37q-33 -9 -59 -27.5t-44 -44t-27.5 -57
t-9.5 -65.5q0 -49 18.5 -91.5t50 -74.5t74 -50.5t91.5 -18.5q54 0 104 19.5t84 62.5q-31 16 -59.5 33.5t-50.5 38.5t-35 47t-13 59q0 37 25.5 62.5t63.5 25.5q30 0 54 -12.5t41 -33.5t26.5 -47.5t9.5 -54.5q0 -29 -8 -55t-22 -49l77 -40t73 -48.5t54.5 -65t21.5 -89.5
q0 -26 -10.5 -48t-28 -38.5t-41 -26t-48.5 -9.5q-17 0 -33 5.5t-29 16t-21 24t-8 30.5q0 5 1 11t3 11l15 -6q-3 -8 -3 -16q0 -14 7 -24.5t18.5 -17.5t24.5 -10.5t25 -3.5q22 0 42.5 7.5t36 21.5t24.5 33.5t9 42.5q0 46 -22.5 79.5t-56.5 58.5t-73.5 44l-73.5 36
q-38 -48 -96 -72.5t-120 -24.5q-49 0 -97.5 16.5t-87 47.5t-62.5 74t-24 97q0 40 13.5 77t37.5 67t56.5 52.5t70.5 33.5q-25 34 -25 74q0 31 12.5 54.5t33.5 39.5t47.5 24t54.5 8q18 0 36 -5.5t32 -16t23 -26t9 -34.5q0 -29 -20.5 -47t-48.5 -18q-24 0 -44 18l11 11v0z
M245 749l105 -68l105 68h31l-124 -131h-24l-123 131h30zM245 749l105 -68l105 68h31l-124 -131h-24l-123 131h30z" />
    <glyph glyph-name="ecaron" unicode="&#x11b;" horiz-adv-x="378" 
d="M85 237q-10 -27 -10 -59q0 -29 9.5 -57t27.5 -50t43.5 -35.5t56.5 -13.5q39 0 73.5 17.5t54.5 51.5l14 -8q-23 -39 -64.5 -63t-86.5 -24q-35 0 -66 11.5t-54.5 32.5t-37 50.5t-13.5 65.5q0 40 14.5 76.5t40 64.5t60 45t75.5 17q24 0 47.5 -7t43 -19.5t34.5 -31t23 -42.5
l8 1v-16l-293 -7v0zM326 258q-3 20 -14 35.5t-26 26t-33.5 16t-37.5 5.5q-42 0 -74.5 -25.5t-49.5 -62.5l235 5v0zM115 505l105 -68l105 68h31l-124 -131h-24l-123 131h30zM115 505l105 -68l105 68h31l-124 -131h-24l-123 131h30z" />
    <glyph glyph-name="dotlessi" unicode="&#x131;" horiz-adv-x="238" 
d="M100 97l-4.5 -16.5t-2.5 -19.5q0 -13 6 -23t23 -10q26 0 43 20.5t26 41.5l15 -6q-6 -15 -16 -29.5t-22.5 -26.5t-27.5 -19.5t-31 -7.5q-32 0 -46.5 19t-14.5 44q0 14 5 31l59 196q2 5 3 11t1 11q0 12 -6.5 20t-21.5 8h-22v16q30 0 61 2.5t59 16.5l7 -14l-13 -6z" />
    <glyph glyph-name="Lacute" unicode="&#x139;" horiz-adv-x="440" 
d="M95 -6q-33 0 -54.5 -11t-21.5 -25q0 -11 13.5 -16.5t25.5 -5.5q27 0 51 12.5t47 35.5q-17 5 -33 7.5t-28 2.5zM597 589q27 0 52.5 -7.5t45.5 -21.5t32 -35.5t12 -49.5q0 -18 -7 -35t-18.5 -30.5t-27.5 -21.5t-34 -8q-21 0 -40 11.5t-30 29.5l13 8q8 -15 24 -24.5t33 -9.5
q15 0 26.5 7.5t20 19.5t13 26t4.5 27q0 24 -10.5 42.5t-28 31t-38.5 19.5t-42 7q-44 0 -79.5 -21t-63.5 -53.5t-48.5 -71.5t-33.5 -75q-4 -11 -7.5 -22t-8.5 -23l-27 -77.5t-33 -83t-40 -80.5t-49 -70q41 -12 80.5 -29.5t78.5 -37.5l77 -41.5l76 -41.5l44.5 -25t46 -24
t47.5 -18t48 -7q23 0 44.5 7t38.5 20.5t27 33.5t10 46q0 15 -5 30.5t-15 28t-23.5 20.5t-30.5 8q-10 0 -15 -1l-4 15q5 1 9.5 1.5t9.5 0.5q20 0 36.5 -9t28 -23.5t18 -33t6.5 -37.5q0 -29 -11.5 -52t-30 -39t-43 -24.5t-50.5 -8.5q-44 0 -85 8t-79.5 22.5t-75 33t-72.5 39.5
q-51 30 -101.5 63.5t-106.5 52.5q-27 -26 -59.5 -41t-70.5 -15q-8 0 -17.5 2t-18 6.5t-14 11.5t-5.5 17q0 17 12.5 28.5t29.5 18t35.5 9.5t30.5 3q16 0 33 -2.5t34 -6.5q37 47 58 101.5t39 110.5q19 62 43.5 127.5t61 119.5t89.5 88.5t131 34.5zM681 747q16 14 34 14
q12 0 21 -7t9 -22q0 -9 -5.5 -18.5t-18.5 -15.5l-156 -80h-28z" />
    <glyph glyph-name="lacute" unicode="&#x13a;" horiz-adv-x="273" 
d="M307 422q3 -1 9 -1q17 0 27 13t10 29q0 26 -20.5 37t-43.5 11q-22 0 -39.5 -9t-31 -23.5t-23.5 -33.5t-16 -39l-94 -308l-4.5 -18.5t-2.5 -18.5q0 -12 6.5 -22.5t22.5 -10.5q26 0 43 21t26 42l14 -6q-6 -14 -16 -28.5t-23 -26.5t-28 -20t-30 -8q-27 0 -44 15t-17 42
q0 17 5 37l91 299q17 57 57.5 94.5t103.5 37.5q15 0 30 -4t27 -12t19.5 -20.5t7.5 -28.5q0 -23 -17 -39.5t-40 -16.5h-6.5t-6.5 1l4 15v0zM375 666q16 14 34 14q12 0 21 -7t9 -22q0 -9 -5.5 -18.5t-18.5 -15.5l-156 -80h-28z" />
    <glyph glyph-name="Lcaron" unicode="&#x13d;" horiz-adv-x="440" 
d="M95 -6q-33 0 -54.5 -11t-21.5 -25q0 -11 13.5 -16.5t25.5 -5.5q27 0 51 12.5t47 35.5q-17 5 -33 7.5t-28 2.5zM597 589q27 0 52.5 -7.5t45.5 -21.5t32 -35.5t12 -49.5q0 -18 -7 -35t-18.5 -30.5t-27.5 -21.5t-34 -8q-21 0 -40 11.5t-30 29.5l13 8q8 -15 24 -24.5t33 -9.5
q15 0 26.5 7.5t20 19.5t13 26t4.5 27q0 24 -10.5 42.5t-28 31t-38.5 19.5t-42 7q-44 0 -79.5 -21t-63.5 -53.5t-48.5 -71.5t-33.5 -75q-4 -11 -7.5 -22t-8.5 -23l-27 -77.5t-33 -83t-40 -80.5t-49 -70q41 -12 80.5 -29.5t78.5 -37.5l77 -41.5l76 -41.5l44.5 -25t46 -24
t47.5 -18t48 -7q23 0 44.5 7t38.5 20.5t27 33.5t10 46q0 15 -5 30.5t-15 28t-23.5 20.5t-30.5 8q-10 0 -15 -1l-4 15q5 1 9.5 1.5t9.5 0.5q20 0 36.5 -9t28 -23.5t18 -33t6.5 -37.5q0 -29 -11.5 -52t-30 -39t-43 -24.5t-50.5 -8.5q-44 0 -85 8t-79.5 22.5t-75 33t-72.5 39.5
q-51 30 -101.5 63.5t-106.5 52.5q-27 -26 -59.5 -41t-70.5 -15q-8 0 -17.5 2t-18 6.5t-14 11.5t-5.5 17q0 17 12.5 28.5t29.5 18t35.5 9.5t30.5 3q16 0 33 -2.5t34 -6.5q37 47 58 101.5t39 110.5q19 62 43.5 127.5t61 119.5t89.5 88.5t131 34.5zM757 467q34 3 61.5 24
t35.5 56q-8 -7 -23 -7t-27 10t-12 26t12 26t27 10q17 0 29 -12.5t12 -29.5q0 -25 -10 -46.5t-26.5 -37t-38 -24.5t-45.5 -10l5 15v0z" />
    <glyph glyph-name="lcaron" unicode="&#x13e;" horiz-adv-x="324" 
d="M307 422q3 -1 9 -1q17 0 27 13t10 29q0 26 -20.5 37t-43.5 11q-22 0 -39.5 -9t-31 -23.5t-23.5 -33.5t-16 -39l-94 -308l-4.5 -18.5t-2.5 -18.5q0 -12 6.5 -22.5t22.5 -10.5q26 0 43 21t26 42l14 -6q-6 -14 -16 -28.5t-23 -26.5t-28 -20t-30 -8q-27 0 -44 15t-17 42
q0 17 5 37l91 299q17 57 57.5 94.5t103.5 37.5q15 0 30 -4t27 -12t19.5 -20.5t7.5 -28.5q0 -23 -17 -39.5t-40 -16.5h-6.5t-6.5 1l4 15v0zM379 438q34 3 61.5 24t35.5 56q-8 -7 -23 -7t-27 10t-12 26t12 26t27 10q17 0 29 -12.5t12 -29.5q0 -25 -10 -46.5t-26.5 -37
t-38 -24.5t-45.5 -10l5 15v0z" />
    <glyph glyph-name="Lslash" unicode="&#x141;" horiz-adv-x="540" 
d="M95 -7q-33 0 -54.5 -11t-21.5 -25q0 -11 13.5 -16.5t25.5 -5.5q27 0 51 13t47 36q-17 5 -33 7t-28 2zM597 589q27 0 52.5 -7.5t45.5 -22t32 -36t12 -49.5q0 -17 -7 -34t-18.5 -30.5t-27.5 -22t-34 -8.5q-21 0 -40 11.5t-30 30.5l13 7q8 -14 24 -23.5t33 -9.5
q15 0 26.5 7.5t20 19t13 25.5t4.5 27q0 24 -10.5 42.5t-28 31.5t-38.5 20t-42 7q-44 0 -79.5 -21t-63.5 -53.5t-48.5 -71.5t-32.5 -75l-49 -139l153 34l-7 -23l-155 -34q-21 -53 -47 -104t-61 -90q83 -25 159 -68l153 -83q22 -11 44.5 -24t46 -24t47.5 -18.5t48 -7.5
q23 0 44.5 7t38.5 20.5t27 34t10 46.5q0 15 -5 30.5t-15 28t-23.5 20.5t-30.5 8q-5 0 -15 -2l-4 15q5 2 9.5 2h9.5q20 0 36.5 -9t28 -23.5t18 -33t6.5 -36.5q0 -29 -11.5 -52t-30 -39t-43 -24.5t-50.5 -8.5q-44 0 -85 8t-79.5 22.5t-75 33t-72.5 39.5l-50.5 31l-51 31.5
t-52 29.5t-54.5 23q-27 -26 -59.5 -40.5t-70.5 -14.5q-8 0 -17.5 2t-18 6.5t-14 11t-5.5 16.5q0 17 12.5 28.5t29.5 18t35.5 9.5t30.5 3q16 0 33 -2.5t34 -6.5q30 39 49.5 83.5t35.5 90.5l-96 -21l7 23l96 21l27.5 84.5t33 87.5t42.5 82t56.5 68t74.5 46.5t96 17.5z" />
    <glyph glyph-name="lslash" unicode="&#x142;" horiz-adv-x="258" 
d="M291 421q3 -1 9 -1q17 0 27 13t10 29q0 26 -20.5 37t-43.5 11q-22 0 -39 -9t-30.5 -23.5t-23.5 -33.5t-16 -39l-45 -146l81 25l-7 -24l-81 -25l-43 -138q-2 -8 -4 -18.5t-2 -18.5q0 -12 6 -22.5t22 -10.5q26 0 43.5 21t26.5 42l14 -6q-6 -14 -16 -28.5t-23 -26.5t-28 -20
t-31 -8q-27 0 -44 15t-17 42q0 19 6 37l37 124l-59 -19l7 24l60 18l46 152q8 28 22.5 52t34.5 42t45.5 28t57.5 10q15 0 30 -4t27 -12t20 -20.5t8 -28.5q0 -23 -17.5 -39.5t-40.5 -16.5q-8 0 -12 1l3 15v0z" />
    <glyph glyph-name="Nacute" unicode="&#x143;" horiz-adv-x="977" 
d="M135 -119q49 0 89.5 31t73.5 75t58 93l42 85l188 393q-13 -6 -26.5 -8.5t-27.5 -2.5q-32 0 -63.5 4t-63.5 4t-62.5 -9.5t-55 -28.5t-39.5 -46t-15 -61q0 -21 7.5 -42t21 -37.5t32 -27t41.5 -10.5q32 0 59 18l8 -13q-30 -21 -69 -21q-26 0 -48.5 10t-39 26.5t-26.5 39
t-10 48.5q0 41 19 74t49 56.5t68 36t76 12.5q34 0 67.5 -3.5t67.5 -3.5q16 0 29 4.5t27 11.5l197 -564l111 331q11 33 23.5 66t28.5 63.5t36.5 58t48.5 51.5l20 -18q-30 -22 -51.5 -47.5t-38 -54t-29 -59.5t-23.5 -65l-134 -400h-15l-200 571l-184 -393q-18 -38 -42.5 -85
t-56.5 -88.5t-72 -69.5t-89 -28q-45 0 -80.5 25.5t-61.5 60.5l12 9q23 -30 53.5 -51t69.5 -21zM887 712q16 14 34 14q12 0 21 -7t9 -22q0 -9 -5.5 -18.5t-18.5 -15.5l-156 -80h-28z" />
    <glyph glyph-name="nacute" unicode="&#x144;" horiz-adv-x="575" 
d="M159 292q4 9 4 23q0 11 -5.5 19t-21.5 8h-23v16q30 0 61.5 2.5t58.5 16.5l7 -14l-13 -6l-22 -74q23 32 54.5 53.5t72.5 21.5q22 0 42 -8t35.5 -22t24.5 -33t9 -41q0 -23 -5.5 -46.5t-13.5 -47.5q-7 -24 -13 -48.5t-6 -50.5q0 -18 9 -32.5t30 -14.5t40 11t34 28.5t26 38
t17 38.5l14 -4q-6 -21 -17.5 -43.5t-28.5 -41t-39 -30.5t-49 -12q-33 0 -59.5 19t-26.5 54q0 22 5.5 44t12.5 45q7 24 13 48t6 48q0 32 -14.5 55.5t-50.5 23.5q-32 0 -57 -14.5t-43.5 -36.5t-31.5 -48.5t-20 -50.5l-37 -120q-2 -5 -3 -11t-1 -11q0 -14 9.5 -21t23.5 -7h18
l-5 -16h-180l5 16h14q29 0 46 10t26 39l68 227v0zM432 516q16 14 34 14q12 0 21 -7t9 -22q0 -9 -5.5 -18.5t-18.5 -15.5l-156 -80h-28z" />
    <glyph glyph-name="Ncaron" unicode="&#x147;" horiz-adv-x="977" 
d="M135 -119q49 0 89.5 31t73.5 75t58 93l42 85l188 393q-13 -6 -26.5 -8.5t-27.5 -2.5q-32 0 -63.5 4t-63.5 4t-62.5 -9.5t-55 -28.5t-39.5 -46t-15 -61q0 -21 7.5 -42t21 -37.5t32 -27t41.5 -10.5q32 0 59 18l8 -13q-30 -21 -69 -21q-26 0 -48.5 10t-39 26.5t-26.5 39
t-10 48.5q0 41 19 74t49 56.5t68 36t76 12.5q34 0 67.5 -3.5t67.5 -3.5q16 0 29 4.5t27 11.5l197 -564l111 331q11 33 23.5 66t28.5 63.5t36.5 58t48.5 51.5l20 -18q-30 -22 -51.5 -47.5t-38 -54t-29 -59.5t-23.5 -65l-134 -400h-15l-200 571l-184 -393q-18 -38 -42.5 -85
t-56.5 -88.5t-72 -69.5t-89 -28q-45 0 -80.5 25.5t-61.5 60.5l12 9q23 -30 53.5 -51t69.5 -21zM713 708l105 -68l105 68h31l-124 -131h-24l-123 131h30zM713 708l105 -68l105 68h31l-124 -131h-24l-123 131h30z" />
    <glyph glyph-name="ncaron" unicode="&#x148;" horiz-adv-x="575" 
d="M159 292q4 9 4 23q0 11 -5.5 19t-21.5 8h-23v16q30 0 61.5 2.5t58.5 16.5l7 -14l-13 -6l-22 -74q23 32 54.5 53.5t72.5 21.5q22 0 42 -8t35.5 -22t24.5 -33t9 -41q0 -23 -5.5 -46.5t-13.5 -47.5q-7 -24 -13 -48.5t-6 -50.5q0 -18 9 -32.5t30 -14.5t40 11t34 28.5t26 38
t17 38.5l14 -4q-6 -21 -17.5 -43.5t-28.5 -41t-39 -30.5t-49 -12q-33 0 -59.5 19t-26.5 54q0 22 5.5 44t12.5 45q7 24 13 48t6 48q0 32 -14.5 55.5t-50.5 23.5q-32 0 -57 -14.5t-43.5 -36.5t-31.5 -48.5t-20 -50.5l-37 -120q-2 -5 -3 -11t-1 -11q0 -14 9.5 -21t23.5 -7h18
l-5 -16h-180l5 16h14q29 0 46 10t26 39l68 227v0zM241 522l105 -68l105 68h31l-124 -131h-24l-123 131h30zM241 522l105 -68l105 68h31l-124 -131h-24l-123 131h30z" />
    <glyph glyph-name="Ohungarumlaut" unicode="&#x150;" horiz-adv-x="789" 
d="M400 580q-62 0 -119 -21t-100.5 -59t-69 -91.5t-25.5 -117.5q0 -77 22.5 -137.5t64 -103t99.5 -65t130 -22.5q63 0 118 20.5t96 58.5t65 91.5t24 119.5q0 72 -22 132t-61.5 103.5t-96 67.5t-125.5 24zM407 598q69 0 132.5 -22t112 -63.5t77 -100.5t28.5 -132
q0 -75 -30 -137t-80 -106t-114.5 -68.5t-134.5 -24.5q-71 0 -137 24t-117 67.5t-81.5 105.5t-30.5 137q0 72 30.5 131t82.5 101t119.5 65t142.5 23zM383 617h-22l30 113h60zM453 617h-22l30 113h60zM383 617h-22l30 113h60zM453 617h-22l30 113h60z" />
    <glyph glyph-name="ohungarumlaut" unicode="&#x151;" horiz-adv-x="457" 
d="M223 -7q-37 0 -69 14t-55.5 38t-37 56t-13.5 68q0 40 15.5 74.5t42.5 60t62.5 40.5t74.5 15q37 0 69.5 -14t56.5 -38t38 -56.5t14 -69.5q0 -41 -16 -75t-43.5 -59.5t-63.5 -39.5t-75 -14zM245 344q-38 0 -66 -18.5t-46 -47.5t-27 -64t-9 -68q0 -58 34 -96.5t93 -38.5
q34 0 61 18t46 46t29 61t10 63q0 28 -8.5 54t-24.5 46.5t-39 32.5t-53 12zM232 379h-22l30 113h60zM302 379h-22l30 113h60zM232 379h-22l30 113h60zM302 379h-22l30 113h60z" />
    <glyph glyph-name="OE" unicode="&#x152;" horiz-adv-x="1053" 
d="M400 579q-62 0 -119 -21t-100.5 -59t-69 -91.5t-25.5 -117.5q0 -77 22.5 -137.5t64 -103t99.5 -65t130 -22.5q63 0 118 20.5t96 58.5t65 91.5t24 119.5q0 72 -22 132t-61.5 103.5t-96 67.5t-125.5 24zM1001 261q-4 20 -14.5 35.5t-25.5 26t-33.5 16t-37.5 5.5
q-42 0 -75 -25.5t-50 -62.5l236 5v0zM407 597q67 0 129 -21t110 -60t77.5 -95t32.5 -126q26 30 62 48t79 18q24 0 47 -6.5t43 -19.5t35 -31t23 -42h8v-15l-294 -7q-5 -14 -7.5 -28.5t-2.5 -30.5q0 -29 10 -57t28 -50t43.5 -35.5t56.5 -13.5q39 0 73.5 17t54.5 52l13 -8
q-23 -39 -64 -63t-87 -24q-59 0 -104.5 31t-60.5 85q-24 -40 -57.5 -72t-74.5 -54t-87.5 -34t-94.5 -12q-71 0 -137 24t-117 67.5t-81.5 105.5t-30.5 137q0 72 30.5 131t82.5 101t119.5 65t142.5 23z" />
    <glyph glyph-name="oe" unicode="&#x153;" horiz-adv-x="722" 
d="M245 343q-38 0 -66 -18.5t-46 -47.5t-27 -64t-9 -68q0 -58 34 -96.5t93 -38.5q34 0 61 18t46 46t29 61t10 63q0 28 -8.5 54.5t-24.5 46.5t-39 32t-53 12zM670 256q-7 40 -39.5 61.5t-70.5 21.5q-43 0 -75.5 -25.5t-49.5 -62.5l235 5v0zM223 -8q-37 0 -69 14t-55.5 38
t-37 56t-13.5 68q0 40 15.5 74.5t42.5 60t62.5 40.5t74.5 15q53 0 95.5 -28t64.5 -73q24 44 66.5 71.5t96.5 27.5q24 0 47.5 -6.5t43.5 -19.5t35 -31t22 -42h8v-15l-293 -7q-9 -27 -9 -56t9 -57.5t26 -51t43 -36.5t59 -14q38 0 72.5 17t54.5 52l14 -8q-23 -39 -64.5 -63
t-86.5 -24q-51 0 -92.5 23.5t-62.5 65.5q-26 -42 -71 -66.5t-98 -24.5z" />
    <glyph glyph-name="Racute" unicode="&#x154;" horiz-adv-x="814" 
d="M405 297q4 11 7.5 22t8.5 22q-9 3 -19 3q-8 0 -16.5 -3.5t-8.5 -13.5q0 -11 8 -18t20 -12zM458 286h32l-12 14t-13 13zM306 373q0 15 -4 27l15 4q2 -8 3 -15.5t1 -15.5q0 -24 -8.5 -45t-23 -36.5t-35 -24.5t-44.5 -9q-26 0 -49 8.5t-40.5 24.5t-28 37.5t-10.5 48.5
q0 48 21 87t58 68q38 29 87.5 46t106.5 17q44 0 86.5 -10.5t85.5 -10.5q20 0 38 5t37 12l6 -14q-25 -14 -45.5 -40.5t-37.5 -61.5q-14 -29 -26.5 -63.5t-24.5 -72.5q16 -9 31 -21.5t31 -27.5q39 6 79 23.5t71.5 45t51.5 64.5t20 82q0 19 -7 32.5t-19 22.5t-27.5 13.5
t-31.5 4.5q-28 0 -54 -13l-6 15q14 7 31.5 11t36.5 4q24 0 47 -6t42 -18.5t30.5 -31.5t11.5 -46q0 -48 -26 -86t-65 -65.5t-85 -44t-86 -22.5q17 -19 39 -46.5l44 -57.5l43 -58.5l37 -49.5l68 -86t78.5 -80t92 -58.5t108.5 -22.5q22 0 47 7.5t45 22t33.5 35t13.5 46.5
t-15 49l13 8q17 -25 17 -57q0 -29 -14.5 -53.5t-37.5 -42.5t-51 -28t-55 -10q-85 0 -146.5 24.5t-109 64.5t-84.5 91l-74 105l-30.5 44l-38 53l-38.5 52.5l-32 43.5q-7 -1 -13 -1h-14h-12t-11 1l-10 -32q-15 -52 -43.5 -106t-69 -98t-91.5 -72t-112 -28q-22 0 -44.5 6
t-41 18.5t-30 31t-11.5 43.5q0 31 21 55.5t53 24.5q18 0 35 -11l-9 -13q-12 9 -26 9q-26 0 -42.5 -20.5t-16.5 -44.5q0 -22 10 -37.5t26 -25.5t35.5 -14.5t38.5 -4.5q46 0 86 23.5t71.5 59.5t54.5 78.5t35 81.5l28 87l-5 2q-35 15 -35 43q0 17 13 25t29 8q12 0 26 -3
q10 24 21.5 48.5t24.5 47.5q17 32 37 58.5t41 45.5q-17 -6 -35.5 -10.5t-43.5 -4.5q-42 0 -81.5 9t-80.5 9q-45 0 -83.5 -13t-67.5 -37q-26 -23 -42 -54t-16 -69q0 -48 31.5 -79t78.5 -31q41 0 67.5 27.5t26.5 68.5zM734 741q16 14 34 14q12 0 21 -7t9 -22q0 -9 -5.5 -18.5
t-18.5 -15.5l-156 -80h-28z" />
    <glyph glyph-name="racute" unicode="&#x155;" horiz-adv-x="411" 
d="M159 292q4 9 4 23q0 11 -5.5 19t-21.5 8h-23v16q30 0 61.5 2.5t58.5 16.5l7 -14l-13 -6l-20 -65q26 34 60 57.5t76 23.5q25 0 46.5 -14.5t21.5 -42.5q0 -19 -12 -34.5t-29 -23.5l-7 14q9 4 15 11.5t6 19.5q0 18 -14.5 30.5t-34.5 12.5q-24 0 -45.5 -9t-39.5 -24
t-32.5 -34.5t-26.5 -40.5l-53 -172q-2 -5 -3 -11t-1 -11q0 -14 9.5 -21t23.5 -7h18l-5 -16h-180l5 16h14q29 0 46 10t26 39l68 227v0zM357 527q16 14 34 14q12 0 21 -7t9 -22q0 -9 -5.5 -18.5t-18.5 -15.5l-156 -80h-28z" />
    <glyph glyph-name="Rcaron" unicode="&#x158;" horiz-adv-x="814" 
d="M405 297q4 11 7.5 22t8.5 22q-9 3 -19 3q-8 0 -16.5 -3.5t-8.5 -13.5q0 -11 8 -18t20 -12zM458 286h32l-12 14t-13 13zM306 373q0 15 -4 27l15 4q2 -8 3 -15.5t1 -15.5q0 -24 -8.5 -45t-23 -36.5t-35 -24.5t-44.5 -9q-26 0 -49 8.5t-40.5 24.5t-28 37.5t-10.5 48.5
q0 48 21 87t58 68q38 29 87.5 46t106.5 17q44 0 86.5 -10.5t85.5 -10.5q20 0 38 5t37 12l6 -14q-25 -14 -45.5 -40.5t-37.5 -61.5q-14 -29 -26.5 -63.5t-24.5 -72.5q16 -9 31 -21.5t31 -27.5q39 6 79 23.5t71.5 45t51.5 64.5t20 82q0 19 -7 32.5t-19 22.5t-27.5 13.5
t-31.5 4.5q-28 0 -54 -13l-6 15q14 7 31.5 11t36.5 4q24 0 47 -6t42 -18.5t30.5 -31.5t11.5 -46q0 -48 -26 -86t-65 -65.5t-85 -44t-86 -22.5q17 -19 39 -46.5l44 -57.5l43 -58.5l37 -49.5l68 -86t78.5 -80t92 -58.5t108.5 -22.5q22 0 47 7.5t45 22t33.5 35t13.5 46.5
t-15 49l13 8q17 -25 17 -57q0 -29 -14.5 -53.5t-37.5 -42.5t-51 -28t-55 -10q-85 0 -146.5 24.5t-109 64.5t-84.5 91l-74 105l-30.5 44l-38 53l-38.5 52.5l-32 43.5q-7 -1 -13 -1h-14h-12t-11 1l-10 -32q-15 -52 -43.5 -106t-69 -98t-91.5 -72t-112 -28q-22 0 -44.5 6
t-41 18.5t-30 31t-11.5 43.5q0 31 21 55.5t53 24.5q18 0 35 -11l-9 -13q-12 9 -26 9q-26 0 -42.5 -20.5t-16.5 -44.5q0 -22 10 -37.5t26 -25.5t35.5 -14.5t38.5 -4.5q46 0 86 23.5t71.5 59.5t54.5 78.5t35 81.5l28 87l-5 2q-35 15 -35 43q0 17 13 25t29 8q12 0 26 -3
q10 24 21.5 48.5t24.5 47.5q17 32 37 58.5t41 45.5q-17 -6 -35.5 -10.5t-43.5 -4.5q-42 0 -81.5 9t-80.5 9q-45 0 -83.5 -13t-67.5 -37q-26 -23 -42 -54t-16 -69q0 -48 31.5 -79t78.5 -31q41 0 67.5 27.5t26.5 68.5zM545 746l105 -68l105 68h31l-124 -131h-24l-123 131h30z
M545 746l105 -68l105 68h31l-124 -131h-24l-123 131h30z" />
    <glyph glyph-name="rcaron" unicode="&#x159;" horiz-adv-x="411" 
d="M159 292q4 9 4 23q0 11 -5.5 19t-21.5 8h-23v16q30 0 61.5 2.5t58.5 16.5l7 -14l-13 -6l-20 -65q26 34 60 57.5t76 23.5q25 0 46.5 -14.5t21.5 -42.5q0 -19 -12 -34.5t-29 -23.5l-7 14q9 4 15 11.5t6 19.5q0 18 -14.5 30.5t-34.5 12.5q-24 0 -45.5 -9t-39.5 -24
t-32.5 -34.5t-26.5 -40.5l-53 -172q-2 -5 -3 -11t-1 -11q0 -14 9.5 -21t23.5 -7h18l-5 -16h-180l5 16h14q29 0 46 10t26 39l68 227v0zM176 529l105 -68l105 68h31l-124 -131h-24l-123 131h30zM176 529l105 -68l105 68h31l-124 -131h-24l-123 131h30z" />
    <glyph glyph-name="Sacute" unicode="&#x15a;" horiz-adv-x="513" 
d="M516 435q18 15 18 37q0 25 -12 44.5t-30.5 33t-41 21t-44.5 7.5q-23 0 -46.5 -6.5t-42 -19.5t-30 -32.5t-11.5 -45.5q0 -21 7.5 -39t19.5 -33.5t26.5 -29l28.5 -26.5q24 -21 45 -42t37 -45t25 -52t9 -62q0 -46 -20.5 -83t-53.5 -63.5t-75 -40.5t-84 -14q-32 0 -63 7.5
t-59 22.5t-51 37t-38 51l-16 -40l-14 6l61 155l14 -5q-6 -15 -9.5 -29.5t-3.5 -30.5q0 -36 15.5 -65t40.5 -50t57.5 -32.5t65.5 -11.5q36 0 70.5 13t60.5 36t42 54.5t16 69.5q0 25 -7 46.5t-19 40t-28 35t-34 32.5l-37 33t-35.5 36.5t-27 41.5t-10.5 49q0 36 15 63.5
t40 46.5t56 29t63 10q44 0 84.5 -19t65.5 -55l13 32l14 -6l-37 -95q-6 -17 -20 -29l-10 12v0zM506 744q16 14 34 14q12 0 21 -7t9 -22q0 -9 -5.5 -18.5t-18.5 -15.5l-156 -80h-28z" />
    <glyph glyph-name="sacute" unicode="&#x15b;" horiz-adv-x="307" 
d="M24 85q0 11 7 21.5t20 10.5q9 0 14.5 -7t5.5 -15t-7 -17q-7 -5 -7 -13q0 -15 8.5 -26t21 -18.5t27 -11t27.5 -3.5q16 0 34 5t32.5 15.5t24 26t9.5 36.5q0 15 -6 27t-15.5 22t-21 18t-23.5 15l-29.5 18.5t-25.5 21.5t-17.5 28t-6.5 37q0 22 10.5 40t27 30.5t37.5 19
t41 6.5q15 0 31.5 -4.5t31 -13.5t23.5 -22t9 -31q0 -8 -3.5 -14.5t-11.5 -6.5t-12.5 7t-4.5 15t2 12q-8 19 -25.5 30t-40.5 11q-15 0 -30 -4.5t-26.5 -13t-19 -21t-7.5 -29.5q0 -23 17 -36.5t34 -23.5l33 -22.5t31 -25.5t23 -31.5t9 -38.5q0 -27 -11.5 -49t-31 -37.5
t-44 -24t-49.5 -8.5q-20 0 -40.5 6.5t-37 18.5t-27 29.5t-10.5 40.5zM292 511q16 14 34 14q12 0 21 -7t9 -22q0 -9 -5.5 -18.5t-18.5 -15.5l-156 -80h-28z" />
    <glyph glyph-name="Scedilla" unicode="&#x15e;" horiz-adv-x="513" 
d="M516 435q18 15 18 37q0 25 -12 44.5t-30.5 33t-41 21t-44.5 7.5q-23 0 -46.5 -6.5t-42 -19.5t-30 -32.5t-11.5 -45.5q0 -21 7.5 -39t19.5 -33.5t26.5 -29l28.5 -26.5q24 -21 45 -42t37 -45t25 -52t9 -62q0 -46 -20.5 -83t-53.5 -63.5t-75 -40.5t-84 -14q-32 0 -63 7.5
t-59 22.5t-51 37t-38 51l-16 -40l-14 6l61 155l14 -5q-6 -15 -9.5 -29.5t-3.5 -30.5q0 -36 15.5 -65t40.5 -50t57.5 -32.5t65.5 -11.5q36 0 70.5 13t60.5 36t42 54.5t16 69.5q0 25 -7 46.5t-19 40t-28 35t-34 32.5l-37 33t-35.5 36.5t-27 41.5t-10.5 49q0 36 15 63.5
t40 46.5t56 29t63 10q44 0 84.5 -19t65.5 -55l13 32l14 -6l-37 -95q-6 -17 -20 -29l-10 12v0zM236 -97q29 -7 50.5 -30t21.5 -55q0 -19 -8 -34.5t-20.5 -26.5t-29.5 -17t-35 -6q-7 0 -16.5 1t-18.5 4.5t-15 9.5t-6 16q0 11 8 17t19 6q9 0 15 -3t11 -8q5 -4 10.5 -7t14.5 -3
q14 0 25.5 10.5t11.5 24.5t-7.5 25t-19.5 18t-25.5 10.5t-25.5 3.5h-17l88 104l11 -10l-42 -50v0z" />
    <glyph glyph-name="scedilla" unicode="&#x15f;" horiz-adv-x="307" 
d="M24 85q0 11 7 21.5t20 10.5q9 0 14.5 -7t5.5 -15t-7 -17q-7 -5 -7 -13q0 -15 8.5 -26t21 -18.5t27 -11t27.5 -3.5q16 0 34 5t32.5 15.5t24 26t9.5 36.5q0 15 -6 27t-15.5 22t-21 18t-23.5 15l-29.5 18.5t-25.5 21.5t-17.5 28t-6.5 37q0 22 10.5 40t27 30.5t37.5 19
t41 6.5q15 0 31.5 -4.5t31 -13.5t23.5 -22t9 -31q0 -8 -3.5 -14.5t-11.5 -6.5t-12.5 7t-4.5 15t2 12q-8 19 -25.5 30t-40.5 11q-15 0 -30 -4.5t-26.5 -13t-19 -21t-7.5 -29.5q0 -23 17 -36.5t34 -23.5l33 -22.5t31 -25.5t23 -31.5t9 -38.5q0 -27 -11.5 -49t-31 -37.5
t-44 -24t-49.5 -8.5q-20 0 -40.5 6.5t-37 18.5t-27 29.5t-10.5 40.5zM127 -52q29 -7 50.5 -30t21.5 -55q0 -19 -8 -34.5t-20.5 -26.5t-29.5 -17t-35 -6q-7 0 -16.5 1t-18.5 4.5t-15 9.5t-6 16q0 11 8 17t19 6q9 0 15 -3t11 -8q5 -4 10.5 -7t14.5 -3q14 0 25.5 10.5
t11.5 24.5t-7.5 25t-19.5 18t-25.5 10.5t-25.5 3.5h-17l88 104l11 -10l-42 -50v0z" />
    <glyph glyph-name="Scaron" unicode="&#x160;" horiz-adv-x="513" 
d="M516 435q18 15 18 37q0 25 -12 44.5t-30.5 33t-41 21t-44.5 7.5q-23 0 -46.5 -6.5t-42 -19.5t-30 -32.5t-11.5 -45.5q0 -21 7.5 -39t19.5 -33.5t26.5 -29l28.5 -26.5q24 -21 45 -42t37 -45t25 -52t9 -62q0 -46 -20.5 -83t-53.5 -63.5t-75 -40.5t-84 -14q-32 0 -63 7.5
t-59 22.5t-51 37t-38 51l-16 -40l-14 6l61 155l14 -5q-6 -15 -9.5 -29.5t-3.5 -30.5q0 -36 15.5 -65t40.5 -50t57.5 -32.5t65.5 -11.5q36 0 70.5 13t60.5 36t42 54.5t16 69.5q0 25 -7 46.5t-19 40t-28 35t-34 32.5l-37 33t-35.5 36.5t-27 41.5t-10.5 49q0 36 15 63.5
t40 46.5t56 29t63 10q44 0 84.5 -19t65.5 -55l13 32l14 -6l-37 -95q-6 -17 -20 -29l-10 12v0zM317 743l105 -68l105 68h31l-124 -131h-24l-123 131h30zM317 743l105 -68l105 68h31l-124 -131h-24l-123 131h30z" />
    <glyph glyph-name="scaron" unicode="&#x161;" horiz-adv-x="307" 
d="M24 85q0 11 7 21.5t20 10.5q9 0 14.5 -7t5.5 -15t-7 -17q-7 -5 -7 -13q0 -15 8.5 -26t21 -18.5t27 -11t27.5 -3.5q16 0 34 5t32.5 15.5t24 26t9.5 36.5q0 15 -6 27t-15.5 22t-21 18t-23.5 15l-29.5 18.5t-25.5 21.5t-17.5 28t-6.5 37q0 22 10.5 40t27 30.5t37.5 19
t41 6.5q15 0 31.5 -4.5t31 -13.5t23.5 -22t9 -31q0 -8 -3.5 -14.5t-11.5 -6.5t-12.5 7t-4.5 15t2 12q-8 19 -25.5 30t-40.5 11q-15 0 -30 -4.5t-26.5 -13t-19 -21t-7.5 -29.5q0 -23 17 -36.5t34 -23.5l33 -22.5t31 -25.5t23 -31.5t9 -38.5q0 -27 -11.5 -49t-31 -37.5
t-44 -24t-49.5 -8.5q-20 0 -40.5 6.5t-37 18.5t-27 29.5t-10.5 40.5zM120 524l105 -68l105 68h31l-124 -131h-24l-123 131h30zM120 524l105 -68l105 68h31l-124 -131h-24l-123 131h30z" />
    <glyph glyph-name="Tcedilla" unicode="&#x162;" horiz-adv-x="622" 
d="M410 339q14 -28 14 -58q0 -36 -17 -64.5t-43.5 -48t-59 -29.5t-64.5 -10q-42 0 -81 15t-69 42t-48 64t-18 81q0 60 27.5 109.5t71.5 84.5t99 54t110 19q72 0 120.5 -4.5t88 -10.5t76 -10.5t83.5 -4.5q10 0 27.5 3.5t26.5 9.5l8 -18q-44 -19 -74 -53.5t-51 -76.5
t-34.5 -88l-24.5 -87q-4 -16 -8 -30l-8 -28q-15 -51 -42.5 -99.5t-66 -86t-87.5 -60t-108 -22.5q-18 0 -37.5 5.5t-35.5 16.5t-26.5 27t-10.5 37q0 17 8 33l14 -8q-6 -11 -6 -25q0 -17 9 -30t23 -21.5t30.5 -13t31.5 -4.5q51 0 89.5 18.5t67 50t49 72.5t35.5 85
q5 14 9.5 28.5l9.5 30.5q13 42 28 86t35 84.5t46.5 76t63.5 61.5q-23 -3 -49 -3q-44 0 -94.5 5.5t-98.5 12.5q-38 5 -71.5 9t-56.5 4q-53 0 -101 -14t-85 -42t-59 -70.5t-22 -99.5q0 -42 15.5 -78.5t42.5 -63t63.5 -41.5t78.5 -15q27 0 54.5 10.5t50 28.5t36.5 42.5t14 53.5
q0 28 -13 51l14 7v0zM290 -217q34 3 61.5 24t35.5 56q-8 -7 -23 -7t-27 10t-12 26t12 26t27 10q17 0 29 -12.5t12 -29.5q0 -25 -10 -46.5t-26.5 -37t-38 -24.5t-45.5 -10l5 15v0z" />
    <glyph glyph-name="tcommaaccent" unicode="&#x163;" horiz-adv-x="501" 
d="M248 358l75.5 9.5t75.5 4.5q16 0 34 -3t33 -10.5t25 -21.5t10 -35q0 -26 -20.5 -41.5t-45.5 -15.5v15q18 0 33 11t17 32q0 16 -11 25.5t-26 14.5t-32 6t-29 1q-35 0 -70 -4l-75 -9l-48 -176l-12 -43.5t-6 -45.5q0 -32 16 -49.5t51 -17.5q48 0 88.5 25.5t57.5 73.5l14 -5
q-9 -26 -26.5 -47t-40 -35.5t-48.5 -22.5t-53 -8q-19 0 -37.5 6t-33.5 17t-24 27t-9 37q0 25 5 48.5t12 47.5l47 163q-54 -7 -109 -21q-13 -4 -26 -6l-27 -4l-1 16q33 2 69 14t68.5 31.5t59.5 44.5t44 54l14 -7q-13 -23 -22.5 -46.5t-16.5 -49.5zM143 -179q34 3 61.5 24
t35.5 56q-8 -7 -23 -7t-27 10t-12 26t12 26t27 10q17 0 29 -12.5t12 -29.5q0 -25 -10 -46.5t-26.5 -37t-38 -24.5t-45.5 -10l5 15v0z" />
    <glyph glyph-name="Tcaron" unicode="&#x164;" horiz-adv-x="622" 
d="M410 339q14 -28 14 -58q0 -36 -17 -64.5t-43.5 -48t-59 -29.5t-64.5 -10q-42 0 -81 15t-69 42t-48 64t-18 81q0 60 27.5 109.5t71.5 84.5t99 54t110 19q72 0 120.5 -4.5t88 -10.5t76 -10.5t83.5 -4.5q10 0 27.5 3.5t26.5 9.5l8 -18q-44 -19 -74 -53.5t-51 -76.5
t-34.5 -88l-24.5 -87q-4 -16 -8 -30l-8 -28q-15 -51 -42.5 -99.5t-66 -86t-87.5 -60t-108 -22.5q-18 0 -37.5 5.5t-35.5 16.5t-26.5 27t-10.5 37q0 17 8 33l14 -8q-6 -11 -6 -25q0 -17 9 -30t23 -21.5t30.5 -13t31.5 -4.5q51 0 89.5 18.5t67 50t49 72.5t35.5 85
q5 14 9.5 28.5l9.5 30.5q13 42 28 86t35 84.5t46.5 76t63.5 61.5q-23 -3 -49 -3q-44 0 -94.5 5.5t-98.5 12.5q-38 5 -71.5 9t-56.5 4q-53 0 -101 -14t-85 -42t-59 -70.5t-22 -99.5q0 -42 15.5 -78.5t42.5 -63t63.5 -41.5t78.5 -15q27 0 54.5 10.5t50 28.5t36.5 42.5t14 53.5
q0 28 -13 51l14 7v0zM423 743l105 -68l105 68h31l-124 -131h-24l-123 131h30zM423 743l105 -68l105 68h31l-124 -131h-24l-123 131h30z" />
    <glyph glyph-name="tcaron" unicode="&#x165;" horiz-adv-x="526" 
d="M248 358l75.5 9.5t75.5 4.5q16 0 34 -3t33 -10.5t25 -21.5t10 -35q0 -26 -20.5 -41.5t-45.5 -15.5v15q18 0 33 11t17 32q0 16 -11 25.5t-26 14.5t-32 6t-29 1q-35 0 -70 -4l-75 -9l-48 -176l-12 -43.5t-6 -45.5q0 -32 16 -49.5t51 -17.5q48 0 88.5 25.5t57.5 73.5l14 -5
q-9 -26 -26.5 -47t-40 -35.5t-48.5 -22.5t-53 -8q-19 0 -37.5 6t-33.5 17t-24 27t-9 37q0 25 5 48.5t12 47.5l47 163q-54 -7 -109 -21q-13 -4 -26 -6l-27 -4l-1 16q33 2 69 14t68.5 31.5t59.5 44.5t44 54l14 -7q-13 -23 -22.5 -46.5t-16.5 -49.5zM312 433q34 3 61.5 24
t35.5 56q-8 -7 -23 -7t-27 10t-12 26t12 26t27 10q17 0 29 -12.5t12 -29.5q0 -25 -10 -46.5t-26.5 -37t-38 -24.5t-45.5 -10l5 15v0z" />
    <glyph glyph-name="Uring" unicode="&#x16e;" horiz-adv-x="795" 
d="M434 588q-15 0 -34 -9t-33 -21q8 -2 15.5 -3t15.5 -1q19 0 34 8t15 18q0 8 -13 8zM434 604q12 0 21 -6.5t9 -17.5q0 -17 -18 -29t-48 -12q-24 0 -49 3q-19 -19 -36.5 -44t-34.5 -54q-35 -63 -57.5 -140t-22.5 -151q0 -27 6.5 -59t21.5 -59.5t38.5 -45.5t57.5 -18
q52 0 92.5 26.5t72 66.5t54.5 86.5t41 86.5l157 358h51l-129 -452q-8 -27 -14 -56t-6 -58q0 -10 1.5 -21.5t6 -21.5t13 -16.5t21.5 -6.5q16 0 31.5 12.5t28.5 30.5t22.5 37.5t14.5 32.5l15 -6q-6 -19 -18 -42t-28 -42.5t-36 -32.5t-43 -13q-42 0 -60.5 28t-18.5 66
q0 34 7.5 67.5t17.5 65.5l104 347l-124 -283q-19 -44 -44 -94t-58 -92.5t-76.5 -71t-99.5 -28.5q-43 0 -75 17t-53.5 45.5t-32 65t-10.5 75.5q0 33 8 71t21.5 76.5t32 76.5t40.5 73q18 29 38 54.5t40 45.5q-23 3 -42.5 7l-38.5 8t-38 7t-40 3q-23 0 -45.5 -8.5t-41.5 -23
t-30.5 -34t-11.5 -42.5q0 -32 23.5 -53.5t55.5 -21.5q31 0 54.5 21.5t23.5 53.5h16q0 -19 -7.5 -35.5t-20.5 -29t-30 -19.5t-36 -7t-36 7t-30 19.5t-20.5 29t-7.5 35.5q0 33 16 58.5t40.5 42.5t55 25.5t59.5 8.5q42 0 78 -11.5t74 -22.5q18 15 41 28t46 13zM582 724
q20 0 35 -15t15 -35q0 -21 -15 -35.5t-35 -14.5q-21 0 -35.5 14.5t-14.5 35.5q0 20 14.5 35t35.5 15zM582 749q31 0 53 -22t22 -53t-22 -53t-53 -22t-53 22t-22 53t22 53t53 22zM582 724q20 0 35 -15t15 -35q0 -21 -15 -35.5t-35 -14.5q-21 0 -35.5 14.5t-14.5 35.5
q0 20 14.5 35t35.5 15zM582 749q31 0 53 -22t22 -53t-22 -53t-53 -22t-53 22t-22 53t22 53t53 22z" />
    <glyph glyph-name="uring" unicode="&#x16f;" horiz-adv-x="511" 
d="M47 257q0 -14 7 -30l-13 -7q-9 18 -9 37q0 21 7.5 39t20.5 31.5t31.5 21.5t41.5 8q32 0 52.5 -21t20.5 -54q0 -26 -8 -50.5t-18 -50.5q-9 -25 -17.5 -52t-8.5 -53q0 -31 15 -47.5t39 -16.5q22 0 42 14.5t37 35.5t30.5 45.5t22.5 44.5l93 199h50l-77 -253q-2 -8 -4.5 -17
t-2.5 -17q0 -14 5.5 -25t21.5 -11q26 0 44 21t27 42l14 -6q-6 -14 -16 -28.5t-23.5 -26.5t-29 -19.5t-31.5 -7.5q-27 0 -42.5 14.5t-15.5 41.5q0 17 5 37l52 170l-55 -119q-11 -24 -26.5 -51t-34.5 -49.5t-41.5 -37t-47.5 -14.5q-41 0 -68 24.5t-27 64.5q0 26 8 54t18 54
t18.5 51t8.5 50q0 23 -12.5 34t-29.5 11q-15 0 -28.5 -7t-23.5 -18.5t-16 -26t-6 -29.5zM321 472q20 0 35 -15t15 -35q0 -21 -15 -35.5t-35 -14.5q-21 0 -35.5 14.5t-14.5 35.5q0 20 14.5 35t35.5 15zM321 497q31 0 53 -22t22 -53t-22 -53t-53 -22t-53 22t-22 53t22 53
t53 22zM321 472q20 0 35 -15t15 -35q0 -21 -15 -35.5t-35 -14.5q-21 0 -35.5 14.5t-14.5 35.5q0 20 14.5 35t35.5 15zM321 497q31 0 53 -22t22 -53t-22 -53t-53 -22t-53 22t-22 53t22 53t53 22z" />
    <glyph glyph-name="Uhungarumlaut" unicode="&#x170;" horiz-adv-x="795" 
d="M434 588q-15 0 -34 -9t-33 -21q8 -2 15.5 -3t15.5 -1q19 0 34 8t15 18q0 8 -13 8zM434 604q12 0 21 -6.5t9 -17.5q0 -17 -18 -29t-48 -12q-24 0 -49 3q-19 -19 -36.5 -44t-34.5 -54q-35 -63 -57.5 -140t-22.5 -151q0 -27 6.5 -59t21.5 -59.5t38.5 -45.5t57.5 -18
q52 0 92.5 26.5t72 66.5t54.5 86.5t41 86.5l157 358h51l-129 -452q-8 -27 -14 -56t-6 -58q0 -10 1.5 -21.5t6 -21.5t13 -16.5t21.5 -6.5q16 0 31.5 12.5t28.5 30.5t22.5 37.5t14.5 32.5l15 -6q-6 -19 -18 -42t-28 -42.5t-36 -32.5t-43 -13q-42 0 -60.5 28t-18.5 66
q0 34 7.5 67.5t17.5 65.5l104 347l-124 -283q-19 -44 -44 -94t-58 -92.5t-76.5 -71t-99.5 -28.5q-43 0 -75 17t-53.5 45.5t-32 65t-10.5 75.5q0 33 8 71t21.5 76.5t32 76.5t40.5 73q18 29 38 54.5t40 45.5q-23 3 -42.5 7l-38.5 8t-38 7t-40 3q-23 0 -45.5 -8.5t-41.5 -23
t-30.5 -34t-11.5 -42.5q0 -32 23.5 -53.5t55.5 -21.5q31 0 54.5 21.5t23.5 53.5h16q0 -19 -7.5 -35.5t-20.5 -29t-30 -19.5t-36 -7t-36 7t-30 19.5t-20.5 29t-7.5 35.5q0 33 16 58.5t40.5 42.5t55 25.5t59.5 8.5q42 0 78 -11.5t74 -22.5q18 15 41 28t46 13zM527 602h-22
l30 113h60zM597 602h-22l30 113h60zM527 602h-22l30 113h60zM597 602h-22l30 113h60z" />
    <glyph glyph-name="uhungarumlaut" unicode="&#x171;" horiz-adv-x="511" 
d="M47 257q0 -14 7 -30l-13 -7q-9 18 -9 37q0 21 7.5 39t20.5 31.5t31.5 21.5t41.5 8q32 0 52.5 -21t20.5 -54q0 -26 -8 -50.5t-18 -50.5q-9 -25 -17.5 -52t-8.5 -53q0 -31 15 -47.5t39 -16.5q22 0 42 14.5t37 35.5t30.5 45.5t22.5 44.5l93 199h50l-77 -253q-2 -8 -4.5 -17
t-2.5 -17q0 -14 5.5 -25t21.5 -11q26 0 44 21t27 42l14 -6q-6 -14 -16 -28.5t-23.5 -26.5t-29 -19.5t-31.5 -7.5q-27 0 -42.5 14.5t-15.5 41.5q0 17 5 37l52 170l-55 -119q-11 -24 -26.5 -51t-34.5 -49.5t-41.5 -37t-47.5 -14.5q-41 0 -68 24.5t-27 64.5q0 26 8 54t18 54
t18.5 51t8.5 50q0 23 -12.5 34t-29.5 11q-15 0 -28.5 -7t-23.5 -18.5t-16 -26t-6 -29.5zM282 363h-22l30 113h60zM352 363h-22l30 113h60zM282 363h-22l30 113h60zM352 363h-22l30 113h60z" />
    <glyph glyph-name="Ydieresis" unicode="&#x178;" horiz-adv-x="617" 
d="M401 22q-2 -10 -2 -16q0 -20 12 -30t31 -10h28l-5 -15h-226l5 15h11q34 0 56.5 13t31.5 47l71 261q0 56 -12 104t-39 92q-12 19 -28 36.5t-35 30.5t-40.5 21t-45.5 8q-29 0 -56 -9.5t-48 -26.5t-33.5 -42t-12.5 -56q0 -41 27 -69.5t69 -28.5q14 0 28 2.5t26 10.5l8 -13
q-14 -10 -30.5 -14t-33.5 -4q-24 0 -46.5 8t-40 22.5t-28.5 35t-11 46.5q0 38 18.5 67.5t48 49.5t65 30t68.5 10q50 0 91.5 -19.5t71 -52.5t46 -76.5t16.5 -91.5q0 -28 -3 -55l39 54l68 89.5t69.5 77t72 53.5t75.5 20q37 0 63 -15.5t26 -52.5q0 -14 -8 -25.5t-19 -19.5
l-9 13q8 5 13.5 13t5.5 19q0 23 -18.5 34.5t-43.5 11.5q-27 0 -54.5 -15t-53 -37t-47.5 -46l-38 -43l-121 -145zM469 653q15 0 25.5 -10.5t10.5 -25.5q0 -14 -10.5 -25t-25.5 -11t-25.5 11t-10.5 25q0 15 10.5 25.5t25.5 10.5zM562 653q15 0 25.5 -10.5t10.5 -25.5
q0 -14 -10.5 -25t-25.5 -11t-25.5 11t-10.5 25q0 15 10.5 25.5t25.5 10.5z" />
    <glyph glyph-name="Zacute" unicode="&#x179;" horiz-adv-x="626" 
d="M555 435q29 32 64 62t72 54q-4 0 -8 -0.5t-11.5 -0.5h-18.5h-29q-41 0 -82 3.5l-82.5 7l-82.5 7t-83 3.5t-83.5 -12.5t-75.5 -37t-55 -60.5t-21 -83q0 -27 10.5 -51.5t28.5 -42.5t42 -29t52 -11q42 0 74.5 20.5t47.5 58.5l15 -5q-19 -48 -58.5 -71t-84.5 -23
q-29 0 -56.5 9.5t-49.5 28t-35 46t-13 63.5q0 56 27.5 99.5t71 73t95.5 45t102 15.5q63 0 121 -7t110 -15q40 -6 75 -10.5t64 -4.5q18 0 34 3t33 8l5 -14q-24 -7 -43 -20t-36 -29.5t-33 -36l-33 -38.5l-303 -337q-31 -35 -66 -67t-77 -54q16 2 30.5 3.5t29.5 1.5
q61 0 113.5 -18.5t99 -46t87.5 -60l77.5 -60t69 -46t63.5 -18.5q36 0 63 10t45.5 27t28 39t9.5 47q0 46 -22.5 75t-64.5 29q-9 0 -18 -3l-4 15q6 2 12 3t12 1q27 0 48.5 -10.5t36.5 -27.5t23 -38.5t8 -44.5q0 -26 -11 -51t-33.5 -44.5t-56.5 -31t-80 -11.5q-43 0 -84 17.5
t-82 43.5t-84.5 57t-91 57t-101.5 43.5t-116 17.5q-31 0 -63.5 -4.5t-68.5 -15.5l-4 15q65 17 112 56t91 89zM617 744q16 14 34 14q12 0 21 -7t9 -22q0 -9 -5.5 -18.5t-18.5 -15.5l-156 -80h-28z" />
    <glyph glyph-name="zacute" unicode="&#x17a;" horiz-adv-x="541" 
d="M116 41q-5 1 -11 1.5t-18 0.5q-5 0 -15.5 -1t-21.5 -4t-19.5 -8t-8.5 -12q0 -6 7.5 -9.5t14.5 -3.5q21 0 37.5 9.5t34.5 26.5zM191 58l-3.5 -3.5l-3.5 -3.5q51 -8 101.5 -19.5t101.5 -11.5q16 0 35.5 4.5t36.5 14.5t28 25t11 35q0 16 -10.5 26t-26.5 10q-19 0 -30 -14
l-12 10q16 19 43 19q21 0 38 -12.5t17 -35.5q0 -30 -15 -50t-38 -31.5t-50 -16.5t-52 -5q-36 0 -73 6.5t-72 15.5q-24 6 -52 12q-26 -20 -56.5 -32t-65.5 -12q-13 0 -28 7t-15 22q0 13 9 21t22 12.5t27.5 6t24.5 1.5q12 0 23.5 -0.5t23.5 -1.5l232 264q-27 0 -50.5 2t-46 5
t-45 5t-48.5 2q-15 0 -33.5 -3.5t-34 -11.5t-26.5 -21t-11 -33q0 -19 13.5 -31.5t31.5 -12.5q24 0 37 19l13 -9q-18 -26 -50 -26q-25 0 -42.5 17.5t-17.5 42.5q0 24 11 41.5t29 29.5t40.5 17.5t44.5 5.5q46 0 91.5 -10.5t92.5 -10.5q20 0 41 4t38 15l9 -12zM421 504
q16 14 34 14q12 0 21 -7t9 -22q0 -9 -5.5 -18.5t-18.5 -15.5l-156 -80h-28z" />
    <glyph glyph-name="Zdotaccent" unicode="&#x17b;" horiz-adv-x="626" 
d="M555 435q29 32 64 62t72 54q-4 0 -8 -0.5t-11.5 -0.5h-18.5h-29q-41 0 -82 3.5l-82.5 7l-82.5 7t-83 3.5t-83.5 -12.5t-75.5 -37t-55 -60.5t-21 -83q0 -27 10.5 -51.5t28.5 -42.5t42 -29t52 -11q42 0 74.5 20.5t47.5 58.5l15 -5q-19 -48 -58.5 -71t-84.5 -23
q-29 0 -56.5 9.5t-49.5 28t-35 46t-13 63.5q0 56 27.5 99.5t71 73t95.5 45t102 15.5q63 0 121 -7t110 -15q40 -6 75 -10.5t64 -4.5q18 0 34 3t33 8l5 -14q-24 -7 -43 -20t-36 -29.5t-33 -36l-33 -38.5l-303 -337q-31 -35 -66 -67t-77 -54q16 2 30.5 3.5t29.5 1.5
q61 0 113.5 -18.5t99 -46t87.5 -60l77.5 -60t69 -46t63.5 -18.5q36 0 63 10t45.5 27t28 39t9.5 47q0 46 -22.5 75t-64.5 29q-9 0 -18 -3l-4 15q6 2 12 3t12 1q27 0 48.5 -10.5t36.5 -27.5t23 -38.5t8 -44.5q0 -26 -11 -51t-33.5 -44.5t-56.5 -31t-80 -11.5q-43 0 -84 17.5
t-82 43.5t-84.5 57t-91 57t-101.5 43.5t-116 17.5q-31 0 -63.5 -4.5t-68.5 -15.5l-4 15q65 17 112 56t91 89zM488 658q0 15 11 26t26 11t26 -11t11 -26t-11 -26t-26 -11t-26 11t-11 26z" />
    <glyph glyph-name="zdotaccent" unicode="&#x17c;" horiz-adv-x="541" 
d="M116 41q-5 1 -11 1.5t-18 0.5q-5 0 -15.5 -1t-21.5 -4t-19.5 -8t-8.5 -12q0 -6 7.5 -9.5t14.5 -3.5q21 0 37.5 9.5t34.5 26.5zM191 58l-3.5 -3.5l-3.5 -3.5q51 -8 101.5 -19.5t101.5 -11.5q16 0 35.5 4.5t36.5 14.5t28 25t11 35q0 16 -10.5 26t-26.5 10q-19 0 -30 -14
l-12 10q16 19 43 19q21 0 38 -12.5t17 -35.5q0 -30 -15 -50t-38 -31.5t-50 -16.5t-52 -5q-36 0 -73 6.5t-72 15.5q-24 6 -52 12q-26 -20 -56.5 -32t-65.5 -12q-13 0 -28 7t-15 22q0 13 9 21t22 12.5t27.5 6t24.5 1.5q12 0 23.5 -0.5t23.5 -1.5l232 264q-27 0 -50.5 2t-46 5
t-45 5t-48.5 2q-15 0 -33.5 -3.5t-34 -11.5t-26.5 -21t-11 -33q0 -19 13.5 -31.5t31.5 -12.5q24 0 37 19l13 -9q-18 -26 -50 -26q-25 0 -42.5 17.5t-17.5 42.5q0 24 11 41.5t29 29.5t40.5 17.5t44.5 5.5q46 0 91.5 -10.5t92.5 -10.5q20 0 41 4t38 15l9 -12zM282 408
q0 15 11 26t26 11t26 -11t11 -26t-11 -26t-26 -11t-26 11t-11 26z" />
    <glyph glyph-name="Zcaron" unicode="&#x17d;" horiz-adv-x="626" 
d="M555 435q29 32 64 62t72 54q-4 0 -8 -0.5t-11.5 -0.5h-18.5h-29q-41 0 -82 3.5l-82.5 7l-82.5 7t-83 3.5t-83.5 -12.5t-75.5 -37t-55 -60.5t-21 -83q0 -27 10.5 -51.5t28.5 -42.5t42 -29t52 -11q42 0 74.5 20.5t47.5 58.5l15 -5q-19 -48 -58.5 -71t-84.5 -23
q-29 0 -56.5 9.5t-49.5 28t-35 46t-13 63.5q0 56 27.5 99.5t71 73t95.5 45t102 15.5q63 0 121 -7t110 -15q40 -6 75 -10.5t64 -4.5q18 0 34 3t33 8l5 -14q-24 -7 -43 -20t-36 -29.5t-33 -36l-33 -38.5l-303 -337q-31 -35 -66 -67t-77 -54q16 2 30.5 3.5t29.5 1.5
q61 0 113.5 -18.5t99 -46t87.5 -60l77.5 -60t69 -46t63.5 -18.5q36 0 63 10t45.5 27t28 39t9.5 47q0 46 -22.5 75t-64.5 29q-9 0 -18 -3l-4 15q6 2 12 3t12 1q27 0 48.5 -10.5t36.5 -27.5t23 -38.5t8 -44.5q0 -26 -11 -51t-33.5 -44.5t-56.5 -31t-80 -11.5q-43 0 -84 17.5
t-82 43.5t-84.5 57t-91 57t-101.5 43.5t-116 17.5q-31 0 -63.5 -4.5t-68.5 -15.5l-4 15q65 17 112 56t91 89zM343 756l105 -68l105 68h31l-124 -131h-24l-123 131h30zM343 756l105 -68l105 68h31l-124 -131h-24l-123 131h30z" />
    <glyph glyph-name="zcaron" unicode="&#x17e;" horiz-adv-x="541" 
d="M116 41q-5 1 -11 1.5t-18 0.5q-5 0 -15.5 -1t-21.5 -4t-19.5 -8t-8.5 -12q0 -6 7.5 -9.5t14.5 -3.5q21 0 37.5 9.5t34.5 26.5zM191 58l-3.5 -3.5l-3.5 -3.5q51 -8 101.5 -19.5t101.5 -11.5q16 0 35.5 4.5t36.5 14.5t28 25t11 35q0 16 -10.5 26t-26.5 10q-19 0 -30 -14
l-12 10q16 19 43 19q21 0 38 -12.5t17 -35.5q0 -30 -15 -50t-38 -31.5t-50 -16.5t-52 -5q-36 0 -73 6.5t-72 15.5q-24 6 -52 12q-26 -20 -56.5 -32t-65.5 -12q-13 0 -28 7t-15 22q0 13 9 21t22 12.5t27.5 6t24.5 1.5q12 0 23.5 -0.5t23.5 -1.5l232 264q-27 0 -50.5 2t-46 5
t-45 5t-48.5 2q-15 0 -33.5 -3.5t-34 -11.5t-26.5 -21t-11 -33q0 -19 13.5 -31.5t31.5 -12.5q24 0 37 19l13 -9q-18 -26 -50 -26q-25 0 -42.5 17.5t-17.5 42.5q0 24 11 41.5t29 29.5t40.5 17.5t44.5 5.5q46 0 91.5 -10.5t92.5 -10.5q20 0 41 4t38 15l9 -12zM218 502l105 -68
l105 68h31l-124 -131h-24l-123 131h30zM218 502l105 -68l105 68h31l-124 -131h-24l-123 131h30z" />
    <glyph glyph-name="florin" unicode="&#x192;" horiz-adv-x="613" 
d="M287 362q-85 -68 -144 -158t-94 -192h28q29 99 83 187.5t130 159.5l-3 3v0zM139 325q-8 37 -19.5 72t-26.5 69l10 5q37 -66 60 -138q20 20 28.5 44t8.5 51q0 33 -14.5 57t-37 40t-51.5 23.5t-57 7.5q-5 0 -8.5 -0.5t-8.5 -0.5q-1 -8 -1 -17v-17q0 -28 6.5 -59.5t20.5 -60
t36 -49.5t54 -27zM506 558q-30 0 -69 -6.5t-73.5 -22t-58 -41.5t-23.5 -66q0 -22 12 -37q36 26 74.5 47t80.5 37l5 -10q-38 -19 -73 -42.5t-67 -51.5q16 -11 35.5 -15.5t40.5 -4.5q39 0 71.5 19.5t58 49.5t42.5 66t25 69q-20 4 -40 6.5t-41 2.5zM506 579q26 0 51 -2t51 -8
q-8 -42 -25 -86t-44.5 -80t-65.5 -59t-88 -23q-23 0 -46 7t-41 23q-60 -56 -105.5 -122.5t-76.5 -141.5q25 44 59.5 81.5t76.5 65t90 43t101 15.5q32 0 62.5 -10.5t54.5 -30.5t38.5 -48t14.5 -62q0 -30 -11.5 -56.5t-31 -46t-45.5 -30.5t-56 -11q-26 0 -49.5 8.5t-41.5 24.5
t-29 38.5t-11 49.5q0 25 9.5 46.5t25.5 37.5t37.5 25t46.5 9q21 0 40.5 -7.5t34.5 -21t24 -32t9 -40.5q0 -19 -7.5 -36t-20 -30t-29.5 -20.5t-36 -7.5q-16 0 -31 6t-26.5 16.5t-18.5 24.5t-7 31q0 26 19.5 44t45.5 18q20 0 36.5 -13.5t16.5 -34.5q0 -15 -9.5 -27t-25.5 -12
q-11 0 -18.5 7.5t-7.5 18.5q0 12 9 20q3 2 7 2q10 0 10 -10q0 -4 -4 -8q-2 -2 -2 -4q0 -6 6 -6q7 0 11 6t4 13q0 13 -10.5 20.5t-22.5 7.5q-17 0 -30.5 -12t-13.5 -30q0 -26 18.5 -42t43.5 -16q30 0 51.5 22t21.5 52q0 18 -7.5 32.5t-19.5 25.5t-28 17t-33 6q-20 0 -38 -7.5
t-31.5 -20.5t-21.5 -31t-8 -39q0 -23 9 -41.5t24.5 -32t35.5 -20.5t42 -7q25 0 48 9.5t39.5 26t26.5 39.5t10 49q0 30 -13 54t-34 41.5t-48 26.5t-55 9q-59 0 -112 -20.5t-97.5 -56t-77.5 -82.5t-52 -101h108v-12h-195q23 69 56 130.5t78 118.5q-3 30 -9 60q-38 4 -65 26.5
t-44 53.5t-25 67.5t-8 69.5q0 21 3 44q8 1 15.5 1.5t15.5 0.5q32 0 66.5 -8t62.5 -25.5t46 -44.5t18 -66q0 -33 -16.5 -62t-42.5 -49q3 -9 5.5 -18t4.5 -18q45 50 101 93q-13 23 -13 49q0 45 24 75t60 48t78 25.5t78 7.5z" />
    <glyph glyph-name="Scommaaccent" unicode="&#x218;" horiz-adv-x="513" 
d="M516 435q18 15 18 37q0 25 -12 44.5t-30.5 33t-41 21t-44.5 7.5q-23 0 -46.5 -6.5t-42 -19.5t-30 -32.5t-11.5 -45.5q0 -21 7.5 -39t19.5 -33.5t26.5 -29l28.5 -26.5q24 -21 45 -42t37 -45t25 -52t9 -62q0 -46 -20.5 -83t-53.5 -63.5t-75 -40.5t-84 -14q-32 0 -63 7.5
t-59 22.5t-51 37t-38 51l-16 -40l-14 6l61 155l14 -5q-6 -15 -9.5 -29.5t-3.5 -30.5q0 -36 15.5 -65t40.5 -50t57.5 -32.5t65.5 -11.5q36 0 70.5 13t60.5 36t42 54.5t16 69.5q0 25 -7 46.5t-19 40t-28 35t-34 32.5l-37 33t-35.5 36.5t-27 41.5t-10.5 49q0 36 15 63.5
t40 46.5t56 29t63 10q44 0 84.5 -19t65.5 -55l13 32l14 -6l-37 -95q-6 -17 -20 -29l-10 12v0zM176 -218q34 3 61.5 24t35.5 56q-8 -7 -23 -7t-27 10t-12 26t12 26t27 10q17 0 29 -12.5t12 -29.5q0 -25 -10 -46.5t-26.5 -37t-38 -24.5t-45.5 -10l5 15v0z" />
    <glyph glyph-name="scommaaccent" unicode="&#x219;" horiz-adv-x="307" 
d="M24 85q0 11 7 21.5t20 10.5q9 0 14.5 -7t5.5 -15t-7 -17q-7 -5 -7 -13q0 -15 8.5 -26t21 -18.5t27 -11t27.5 -3.5q16 0 34 5t32.5 15.5t24 26t9.5 36.5q0 15 -6 27t-15.5 22t-21 18t-23.5 15l-29.5 18.5t-25.5 21.5t-17.5 28t-6.5 37q0 22 10.5 40t27 30.5t37.5 19
t41 6.5q15 0 31.5 -4.5t31 -13.5t23.5 -22t9 -31q0 -8 -3.5 -14.5t-11.5 -6.5t-12.5 7t-4.5 15t2 12q-8 19 -25.5 30t-40.5 11q-15 0 -30 -4.5t-26.5 -13t-19 -21t-7.5 -29.5q0 -23 17 -36.5t34 -23.5l33 -22.5t31 -25.5t23 -31.5t9 -38.5q0 -27 -11.5 -49t-31 -37.5
t-44 -24t-49.5 -8.5q-20 0 -40.5 6.5t-37 18.5t-27 29.5t-10.5 40.5zM83 -172q34 3 61.5 24t35.5 56q-8 -7 -23 -7t-27 10t-12 26t12 26t27 10q17 0 29 -12.5t12 -29.5q0 -25 -10 -46.5t-26.5 -37t-38 -24.5t-45.5 -10l5 15v0z" />
    <glyph glyph-name="circumflex" unicode="&#x2c6;" horiz-adv-x="291" 
d="M133 489h24l134 -121h-31l-115 60l-115 -60h-30z" />
    <glyph glyph-name="caron" unicode="&#x2c7;" horiz-adv-x="291" 
d="M40 496l105 -68l105 68h31l-124 -131h-24l-123 131h30zM40 496l105 -68l105 68h31l-124 -131h-24l-123 131h30z" />
    <glyph glyph-name="breve" unicode="&#x2d8;" horiz-adv-x="273" 
d="M273 485q-12 -47 -49.5 -77.5t-86.5 -30.5t-86.5 30.5t-50.5 77.5l14 7q21 -29 54 -44t69 -15q35 0 68 15t55 44zM273 485q-12 -47 -49.5 -77.5t-86.5 -30.5t-86.5 30.5t-50.5 77.5l14 7q21 -29 54 -44t69 -15q35 0 68 15t55 44z" />
    <glyph glyph-name="dotaccent" unicode="&#x2d9;" horiz-adv-x="74" 
d="M0 414q0 15 11 26t26 11t26 -11t11 -26t-11 -26t-26 -11t-26 11t-11 26z" />
    <glyph glyph-name="ring" unicode="&#x2da;" horiz-adv-x="150" 
d="M75 502q20 0 35 -15t15 -35q0 -21 -15 -35.5t-35 -14.5q-21 0 -35.5 14.5t-14.5 35.5q0 20 14.5 35t35.5 15zM75 527q31 0 53 -22t22 -53t-22 -53t-53 -22t-53 22t-22 53t22 53t53 22zM75 502q20 0 35 -15t15 -35q0 -21 -15 -35.5t-35 -14.5q-21 0 -35.5 14.5t-14.5 35.5
q0 20 14.5 35t35.5 15zM75 527q31 0 53 -22t22 -53t-22 -53t-53 -22t-53 22t-22 53t22 53t53 22z" />
    <glyph glyph-name="ogonek" unicode="&#x2db;" horiz-adv-x="164" 
d="M164 -142q-16 -17 -38.5 -24.5t-45.5 -7.5q-32 0 -56 19t-24 59q0 21 7.5 40.5t20.5 36t29.5 29t34.5 20.5l7 -13q-27 -16 -46 -38.5t-19 -56.5q0 -26 17 -42t44 -16q19 0 35.5 7.5t33.5 16.5v-30zM164 -142q-16 -17 -38.5 -24.5t-45.5 -7.5q-32 0 -56 19t-24 59
q0 21 7.5 40.5t20.5 36t29.5 29t34.5 20.5l7 -13q-27 -16 -46 -38.5t-19 -56.5q0 -26 17 -42t44 -16q19 0 35.5 7.5t33.5 16.5v-30z" />
    <glyph glyph-name="tilde" unicode="&#x2dc;" horiz-adv-x="291" 
d="M84 464q18 0 36 -6.5t35 -15t33.5 -15t33.5 -6.5t32 10.5t15 29.5h18q0 -34 -21.5 -60t-56.5 -26q-18 0 -36 6.5t-36 14.5t-35.5 14.5t-33.5 6.5q-17 0 -31 -10t-16 -28h-17q0 37 21 61t59 24z" />
    <glyph glyph-name="hungarumlaut" unicode="&#x2dd;" horiz-adv-x="160" 
d="M22 371h-22l30 113h60zM92 371h-22l30 113h60zM22 371h-22l30 113h60zM92 371h-22l30 113h60z" />
    <glyph glyph-name="afii10023" unicode="&#x401;" horiz-adv-x="613" 
d="M423 285q-28 0 -46.5 -20.5t-18.5 -47.5t12 -49.5t33 -41.5t48.5 -36t58.5 -32q11 20 16 42.5t5 47.5q0 27 -7 51.5t-21 43.5t-34 30.5t-46 11.5zM237 387q18 -20 35 -28t31 -8q12 0 19.5 4.5t7.5 11.5q0 8 -12.5 14.5t-41.5 7.5h-4q-9 0 -18 -0.5t-17 -1.5zM323 477
q15 -13 33 -13q20 0 33.5 16t13.5 36q0 16 -7.5 28.5t-19.5 20t-26.5 11.5t-28.5 4q-49 0 -81.5 -32.5t-32.5 -81.5q0 -37 19 -66q11 2 22.5 3.5t25.5 1.5q39 -1 56 -12t17 -25q0 -13 -13 -23.5t-34 -10.5q-19 0 -41.5 11t-45.5 37q-33 -9 -59 -27.5t-44 -44t-27.5 -57
t-9.5 -65.5q0 -49 18.5 -91.5t50 -74.5t74 -50.5t91.5 -18.5q54 0 104 19.5t84 62.5q-31 16 -59.5 33.5t-50.5 38.5t-35 47t-13 59q0 37 25.5 62.5t63.5 25.5q30 0 54 -12.5t41 -33.5t26.5 -47.5t9.5 -54.5q0 -29 -8 -55t-22 -49l77 -40t73 -48.5t54.5 -65t21.5 -89.5
q0 -26 -10.5 -48t-28 -38.5t-41 -26t-48.5 -9.5q-17 0 -33 5.5t-29 16t-21 24t-8 30.5q0 5 1 11t3 11l15 -6q-3 -8 -3 -16q0 -14 7 -24.5t18.5 -17.5t24.5 -10.5t25 -3.5q22 0 42.5 7.5t36 21.5t24.5 33.5t9 42.5q0 46 -22.5 79.5t-56.5 58.5t-73.5 44l-73.5 36
q-38 -48 -96 -72.5t-120 -24.5q-49 0 -97.5 16.5t-87 47.5t-62.5 74t-24 97q0 40 13.5 77t37.5 67t56.5 52.5t70.5 33.5q-25 34 -25 74q0 31 12.5 54.5t33.5 39.5t47.5 24t54.5 8q18 0 36 -5.5t32 -16t23 -26t9 -34.5q0 -29 -20.5 -47t-48.5 -18q-24 0 -44 18zM277 700
q15 0 25.5 -10.5t10.5 -25.5q0 -14 -10.5 -25t-25.5 -11t-25.5 11t-10.5 25q0 15 10.5 25.5t25.5 10.5zM384 700q15 0 25.5 -10.5t10.5 -25.5q0 -14 -10.5 -25t-25.5 -11t-25.5 11t-10.5 25q0 15 10.5 25.5t25.5 10.5z" />
    <glyph glyph-name="afii10053" unicode="&#x404;" horiz-adv-x="654" 
d="M604 372q5 12 9.5 24.5t4.5 26.5q0 40 -23 70.5t-57 51.5t-74 31.5t-73 10.5q-75 0 -133.5 -28.5t-98 -75t-60.5 -106t-21 -120.5q0 -58 19 -114.5t55.5 -101.5t90 -72.5t122.5 -27.5q41 0 82.5 14t74.5 39t54 60t21 78q0 17 -6.5 36.5t-18.5 32.5l9 12q17 -11 31 -35
t14 -46q0 -50 -23.5 -88.5t-61.5 -65t-85 -40.5t-94 -14q-83 0 -146.5 29.5t-106 77t-64 108t-21.5 122.5q0 64 24 125.5t70.5 110t115 78.5t157.5 30q36 0 74 -8.5t72.5 -25.5t62.5 -41.5t46 -56.5l15 38h17l-56 -139h-18zM76 310h339l-7 -20h-337z" />
    <glyph glyph-name="uni0406" unicode="&#x406;" horiz-adv-x="382" 
d="M86 -60q-33 0 -59.5 20.5t-26.5 55.5q0 20 9.5 35.5t25.5 26.5l9 -13q-11 -8 -18.5 -19.5t-7.5 -25.5q0 -28 20.5 -46t47.5 -18q44 0 75 28t52.5 68.5t34.5 85.5l22 78l18 72q19 79 52 142t89 122l-18.5 -4t-19.5 -2q-29 0 -52.5 4t-46.5 9q-20 4 -40 8.5t-41 4.5
q-26 0 -49 -7t-40 -20t-27.5 -33t-10.5 -45q0 -33 22 -58t56 -25q27 0 49.5 16t30.5 42l15 -5q-11 -35 -37.5 -51.5t-55.5 -16.5q-19 0 -37 6.5t-32 18.5t-22.5 30.5t-8.5 42.5q0 32 14.5 56t38 40.5t53.5 24.5t61 8q32 0 58 -5t49 -10q20 -5 39.5 -8t41.5 -3q15 0 28.5 4
t26.5 11l8 -13q-29 -18 -47.5 -38.5t-34.5 -53.5q-15 -32 -26.5 -72t-23.5 -87l-20 -79q-7 -29 -17 -62.5t-24 -67t-32.5 -64.5t-43.5 -55t-56.5 -38.5t-70.5 -14.5z" />
    <glyph glyph-name="afii10056" unicode="&#x407;" horiz-adv-x="382" 
d="M86 -60q-33 0 -59.5 20.5t-26.5 55.5q0 20 9.5 35.5t25.5 26.5l9 -13q-11 -8 -18.5 -19.5t-7.5 -25.5q0 -28 20.5 -46t47.5 -18q44 0 75 28t52.5 68.5t34.5 85.5l22 78l18 72q19 79 52 142t89 122l-18.5 -4t-19.5 -2q-29 0 -52.5 4t-46.5 9q-20 4 -40 8.5t-41 4.5
q-26 0 -49 -7t-40 -20t-27.5 -33t-10.5 -45q0 -33 22 -58t56 -25q27 0 49.5 16t30.5 42l15 -5q-11 -35 -37.5 -51.5t-55.5 -16.5q-19 0 -37 6.5t-32 18.5t-22.5 30.5t-8.5 42.5q0 32 14.5 56t38 40.5t53.5 24.5t61 8q32 0 58 -5t49 -10q20 -5 39.5 -8t41.5 -3q15 0 28.5 4
t26.5 11l8 -13q-29 -18 -47.5 -38.5t-34.5 -53.5q-15 -32 -26.5 -72t-23.5 -87l-20 -79q-7 -29 -17 -62.5t-24 -67t-32.5 -64.5t-43.5 -55t-56.5 -38.5t-70.5 -14.5zM412 712q15 0 25.5 -10.5t10.5 -25.5q0 -14 -10.5 -25t-25.5 -11t-25.5 11t-10.5 25q0 15 10.5 25.5
t25.5 10.5zM505 712q15 0 25.5 -10.5t10.5 -25.5q0 -14 -10.5 -25t-25.5 -11t-25.5 11t-10.5 25q0 15 10.5 25.5t25.5 10.5z" />
    <glyph glyph-name="afii10062" unicode="&#x40e;" horiz-adv-x="824" 
d="M467 -16q15 3 34 4.5t35 1.5q43 0 74.5 -10.5t52.5 -27t31.5 -37t10.5 -41.5q0 -37 -24.5 -63.5t-72.5 -26.5q-30 0 -53 20l10 12q20 -17 43 -17q37 0 54.5 18t17.5 43q0 18 -9.5 38t-28 36.5t-45.5 27t-62 10.5q-18 0 -40.5 -1.5t-32.5 -5.5q-16 -49 -38 -99.5
t-52.5 -92t-69 -68t-87.5 -26.5q-22 0 -39 17t-17 45q0 43 24 80t61.5 65.5t83.5 49t90 31.5q10 28 21.5 70l24.5 87l14 53q-17 -16 -39 -28q-29 -15 -59.5 -22t-60 -3.5t-50 20.5t-29 49.5t1.5 84.5q4 25 15 57.5l22 66.5t18 67t3.5 58.5t-21.5 40.5t-57 14
q-29 -1 -57.5 -11t-52.5 -27.5t-41 -42.5t-23 -56q-8 -42 14 -70t64 -28q14 0 28.5 2.5t27.5 10.5l6 -13q-16 -10 -33 -14t-34 -4q-24 0 -45 8t-36 22.5t-22 35t-2 46.5q6 38 30 68t56.5 50.5t70 30.5t70.5 8q38 -2 60 -19.5t30 -48.5t3 -75t-20 -98q-8 -29 -15 -66
t-6.5 -70t13 -56.5t42.5 -23.5q21 0 44 6t42.5 16.5t33 23t15.5 24.5q1 3 1 0q1 -2 1 -5l3 10q13 46 27 82q17 49 41.5 101t55 95.5t66.5 73t75 34.5q36 5 63.5 -7.5t32.5 -48.5q2 -14 -4 -26.5t-17 -22.5l-10 12q8 7 12 15t3 19q-3 23 -23 36.5t-45 8.5q-38 -8 -71.5 -33.5
t-62 -64t-51 -85.5t-37.5 -98q-13 -42 -23 -86l-19 -86.5l-18 -81t-18 -69.5zM178 -262q0 -19 13.5 -30.5t27.5 -11.5q38 0 68.5 24.5t54.5 62t41.5 81.5t30.5 84q-39 -12 -81 -30t-76.5 -43.5t-56.5 -59.5t-22 -77zM617 734q-10 -22 -26 -38.5t-36.5 -26.5t-44 -11.5
t-47.5 8.5q-16 6 -23 21.5t-1 31.5q5 14 19 21.5t29 1.5q14 -6 19 -20.5t0 -28.5q-6 -14 -15 -20q36 -4 65.5 13.5t44.5 47.5h16z" />
    <glyph glyph-name="afii10017" unicode="&#x410;" 
d="M685 222l63.5 -14.5t63.5 -7.5q18 0 33 6v283zM845 189q-12 -4 -25 -5.5t-26 -1.5q-35 0 -66 6.5l-60 12.5q-37 -50 -83 -96t-98.5 -81t-111.5 -55.5t-122 -20.5q-40 0 -82.5 11.5t-78 34.5t-58 57.5t-22.5 80.5q0 54 23.5 98t61.5 75t87 47.5t100 16.5q25 0 53.5 -7
t51.5 -22t38.5 -37t15.5 -52q0 -37 -16 -65.5t-41.5 -48.5t-59 -31t-67.5 -11v15q30 0 58.5 9t50.5 26t35.5 41.5t13.5 57.5q0 27 -12.5 47.5t-32.5 34t-44 20t-48 6.5q-45 0 -88.5 -15t-77 -43t-54.5 -67t-21 -87q0 -43 19 -76t50 -55.5t69 -34t76 -11.5q60 0 116.5 20
t107.5 53t95 76.5t80 91.5l-29 4t-30 2q-34 0 -68 -16l-7 14q23 12 49.5 17t51.5 5q13 0 25.5 -1t24.5 -3l210 351l14 -4v-349q0 -50 -12.5 -100.5t-38 -94.5t-63 -76.5t-86.5 -44.5q58 -11 111 -35l105 -49t104 -44t109 -19q30 0 59 7.5t51 23t35.5 38.5t13.5 53
q0 37 -22.5 63.5t-60.5 26.5q-28 0 -50 -19l-10 12q13 11 28 17t32 6q22 0 40 -8.5t31.5 -23t21 -34t7.5 -41.5q0 -37 -18 -65t-45.5 -47t-61.5 -28.5t-66 -9.5q-46 0 -87.5 11.5t-81 29.5t-77 39t-75 40t-76 32.5t-78.5 16.5v14q49 0 88 25t66.5 64.5t42.5 88.5t16 96z" />
    <glyph glyph-name="afii10018" unicode="&#x411;" horiz-adv-x="815" 
d="M428 174q13 42 27 83t32.5 78.5t44 70.5t62.5 59q19 16 36.5 24.5t26.5 14.5l8 -18q-56 -24 -87.5 -67.5t-51.5 -95.5q49 7 93 -5.5t77 -40.5t52 -67t19 -84q0 -44 -17.5 -78t-44.5 -57.5t-60 -36t-64 -12.5q-43 0 -77.5 21t-45.5 63l14 6q7 -32 33.5 -49t60.5 -17
q27 0 54.5 10t50 31t37 53t14.5 77q0 39 -14 74t-40.5 59t-64 35t-83.5 3q-10 -28 -17 -55.5t-15 -54.5q-15 -51 -42.5 -99.5t-66 -86t-87.5 -60t-108 -22.5q-18 0 -37.5 5.5t-35.5 16.5t-26.5 27t-10.5 37q0 15 8 33l14 -8q-6 -11 -6 -25q0 -17 9 -30t23 -21.5t30.5 -13
t31.5 -4.5q51 0 89.5 18.5t67 50t49 72.5t35.5 85zM884 560q-54 -21 -107.5 -27t-104.5 -3t-100 11.5t-95 17.5t-88 15.5t-80 4.5q-53 -3 -101 -16.5t-85 -40.5t-59 -68t-22 -98q0 -42 15.5 -78.5t42.5 -63t63.5 -41.5t78.5 -15q27 0 54.5 10.5t50 28.5t36.5 42.5t14 53.5
t-13 51l14 7q14 -30 14 -58q0 -36 -17 -64.5t-43.5 -48t-59.5 -29.5t-64 -10q-42 0 -81 15t-69 42t-48 64t-18 81q0 60 22.5 105.5t63 78t97.5 52t125 28.5q67 9 142 -2t149 -24.5t142.5 -20t122.5 10.5z" />
    <glyph glyph-name="afii10019" unicode="&#x412;" horiz-adv-x="645" 
d="M350 306q-16 -3 -16 -10q0 -4 10 -9zM394 278h11q36 0 67 11q-35 16 -70 19zM390 263q-17 -66 -39.5 -126.5t-55 -106.5t-77.5 -73t-107 -27q-20 0 -40 5.5t-35.5 16.5t-25.5 27.5t-10 39.5q0 14 4.5 28t12.5 26l13 -8q-15 -23 -15 -46q0 -20 9 -34t22.5 -23t30.5 -13
t34 -4q50 0 84.5 24t57.5 60.5t38 80t26 82.5l23 81q-10 4 -16.5 9.5t-6.5 14.5q0 11 12 17t26 8q8 26 17 51t21 49q11 23 25 44t29 38q-7 -1 -15 -1h-16q-17 0 -35.5 -5t-30.5 -18l-12 10q14 16 36 22.5t42 6.5q15 0 30.5 0.5t29.5 3.5l8 -13q-17 -21 -29 -45.5t-22 -49.5
q-7 -19 -13 -39.5t-14 -52.5q23 -2 45.5 -8.5t42.5 -16.5q39 20 64 55.5t25 81.5q0 37 -16 63.5t-43.5 43.5t-63.5 25.5t-76 8.5q-51 0 -107.5 -15t-103.5 -44.5t-77.5 -73t-30.5 -100.5q0 -23 7.5 -45t22 -39.5t34.5 -28.5t45 -11q27 0 53 11t44 32l11 -11
q-20 -23 -48.5 -35t-59.5 -12q-29 0 -54 11t-44.5 29.5t-30.5 43.5t-11 54q0 60 33.5 106.5t85 78t114.5 47.5t123 16q45 0 87 -8.5t74 -27t51 -47.5t19 -69q0 -50 -31.5 -90t-74.5 -61q23 -14 44 -33t36.5 -41.5t24.5 -48t9 -53.5q0 -44 -17.5 -78t-44.5 -57.5t-60 -36
t-64 -12.5q-43 0 -77.5 21t-45.5 63l14 6q7 -32 33.5 -49t60.5 -17q27 0 54.5 10t50 31t37 53t14.5 77q0 48 -26 89t-66 66q-20 -8 -37.5 -11.5t-40.5 -3.5h-11t-13 1z" />
    <glyph glyph-name="afii10020" unicode="&#x413;" horiz-adv-x="622" 
d="M398 339q14 -28 14 -58q0 -36 -17 -64.5t-43.5 -48t-59 -29.5t-64.5 -10q-42 0 -81 15t-69 42t-48 64t-18 81q0 60 27.5 109.5t71.5 84.5t99 54t110 19q72 0 120.5 -4.5t88 -10.5t76 -10.5t83.5 -4.5q10 0 27.5 3.5t26.5 9.5l8 -18q-44 -19 -74 -53.5t-51 -76.5
t-34.5 -88l-24.5 -87q-4 -16 -8 -30l-8 -28q-15 -51 -42.5 -99.5t-66 -86t-87.5 -60t-108 -22.5q-18 0 -37.5 5.5t-35.5 16.5t-26.5 27t-10.5 37q0 17 8 33l14 -8q-6 -11 -6 -25q0 -17 9 -30t23 -21.5t30.5 -13t31.5 -4.5q51 0 89.5 18.5t67 50t49 72.5t35.5 85
q5 14 9.5 28.5l9.5 30.5q13 42 28 86t35 84.5t46.5 76t63.5 61.5q-23 -3 -49 -3q-44 0 -94.5 5.5t-98.5 12.5q-38 5 -71.5 9t-56.5 4q-53 0 -101 -14t-85 -42t-59 -70.5t-22 -99.5q0 -42 15.5 -78.5t42.5 -63t63.5 -41.5t78.5 -15q27 0 54.5 10.5t50 28.5t36.5 42.5t14 53.5
q0 28 -13 51z" />
    <glyph glyph-name="afii10021" unicode="&#x414;" horiz-adv-x="827" 
d="M244 -16q44 -11 89.5 -14t90.5 -3q69 0 130.5 25.5t108 70t73.5 105t27 131.5q0 60 -22.5 115t-73.5 97q-39 32 -96 51t-132 23zM143 -34q23 0 40.5 13t24.5 33l187 574q-75 -1 -139.5 -19.5t-112.5 -50.5q-49 -32 -77 -75.5t-28 -93.5q0 -20 7.5 -39t20.5 -34t31 -24
t39 -9q24 0 46 10.5t38 29.5l12 -9q-18 -22 -43 -34.5t-53 -12.5q-27 0 -49.5 9.5t-39 26t-26 39.5t-9.5 49q0 54 32 100.5t89 81.5q56 35 129 55t158 20q96 0 166.5 -22t118.5 -60q57 -45 83.5 -104.5t26.5 -123.5q0 -67 -28.5 -132t-82.5 -115q-48 -45 -113 -71.5
t-146 -26.5h-335l5 15h28z" />
    <glyph glyph-name="afii10022" unicode="&#x415;" horiz-adv-x="571" 
d="M410 285q-28 0 -46.5 -20.5t-18.5 -47.5t12 -49.5t33 -41.5t48.5 -36t58.5 -32q11 20 16 42.5t5 47.5q0 27 -7 51.5t-21 43.5t-34 30.5t-46 11.5zM224 387q18 -20 35 -28t31 -8q12 0 19.5 4.5t7.5 11.5q0 8 -12.5 14.5t-41.5 7.5h-4q-9 0 -18 -0.5t-17 -1.5zM310 477
q15 -13 33 -13q20 0 33.5 16t13.5 36q0 16 -7.5 28.5t-19.5 20t-26.5 11.5t-28.5 4q-49 0 -81.5 -32.5t-32.5 -81.5q0 -37 19 -66q11 2 22.5 3.5t25.5 1.5q39 -1 56 -12t17 -25q0 -13 -13 -23.5t-34 -10.5q-19 0 -41.5 11t-45.5 37q-33 -9 -59 -27.5t-44 -44t-27.5 -57
t-9.5 -65.5q0 -49 18.5 -91.5t50 -74.5t74 -50.5t91.5 -18.5q54 0 104 19.5t84 62.5q-31 16 -59.5 33.5t-50.5 38.5t-35 47t-13 59q0 37 25.5 62.5t63.5 25.5q30 0 54 -12.5t41 -33.5t26.5 -47.5t9.5 -54.5q0 -29 -8 -55t-22 -49l77 -40t73 -48.5t54.5 -65t21.5 -89.5
q0 -26 -10.5 -48t-28 -38.5t-41 -26t-48.5 -9.5q-17 0 -33 5.5t-29 16t-21 24t-8 30.5q0 5 1 11t3 11l15 -6q-3 -8 -3 -16q0 -14 7 -24.5t18.5 -17.5t24.5 -10.5t25 -3.5q22 0 42.5 7.5t36 21.5t24.5 33.5t9 42.5q0 46 -22.5 79.5t-56.5 58.5t-73.5 44l-73.5 36
q-38 -48 -96 -72.5t-120 -24.5q-49 0 -97.5 16.5t-87 47.5t-62.5 74t-24 97q0 40 13.5 77t37.5 67t56.5 52.5t70.5 33.5q-25 34 -25 74q0 31 12.5 54.5t33.5 39.5t47.5 24t54.5 8q18 0 36 -5.5t32 -16t23 -26t9 -34.5q0 -29 -20.5 -47t-48.5 -18q-24 0 -44 18z" />
    <glyph glyph-name="afii10024" unicode="&#x416;" horiz-adv-x="1124" 
d="M910 -54q-10 0 -19.5 0.5t-20.5 2.5q-57 11 -98.5 50t-54.5 95q-11 42 -7 89t16 93h-122l-63 -215q-2 -10 -2 -17q0 -11 7.5 -19t20.5 -8h33l-5 -16h-191l5 16h20q30 0 45.5 11t23.5 37l62 211h-113q-2 -10 -4.5 -19.5t-4.5 -19.5q-14 -62 -46 -111.5t-74 -86.5
t-89 -60.5t-90 -32.5q-29 -2 -54.5 3.5t-45 18t-31 31.5t-11.5 44q0 15 5.5 29.5t15.5 26t23.5 18t29.5 6.5q18 0 35 -11l-9 -13q-12 9 -26 9q-26 0 -42.5 -20.5t-16.5 -44.5q0 -23 11 -39t28.5 -25.5t39.5 -13t44 -1.5q51 9 94.5 40t78 76t57.5 99t33.5 109.5t6.5 108
t-24 93.5q-19 39 -58 63.5t-83 26.5q-35 2 -68.5 -12.5t-57.5 -49.5q-18 -29 -26 -63t-2 -63.5t28 -49.5t64 -21q21 0 39 7.5t32 21t23 31.5t12 39q3 13 -1 27l15 2q2 -8 2.5 -15.5t-1.5 -15.5q-3 -24 -13.5 -44.5t-27.5 -35.5t-38.5 -23t-45.5 -8q-47 2 -72.5 25t-33 56
t1.5 70.5t32 69.5q15 20 34.5 36t45.5 25q13 5 24 7t25 2q45 0 87.5 -22.5t74 -63t47.5 -96t9 -120.5h117l69 237q2 10 2 17q0 11 -7.5 19t-20.5 8h-33l5 16h191l-5 -16h-20q-30 0 -45.5 -11t-23.5 -37l-68 -233h121l6 19.5t7 18.5q33 90 89.5 148t119.5 89
q53 26 109.5 29.5t98.5 -28.5l-9 -13q-18 12 -41 18.5t-45 7.5q-54 1 -101 -23q-54 -27 -95.5 -80.5t-67.5 -119.5t-34 -137.5t7 -134.5q6 -25 18.5 -47.5t31 -39t41.5 -26.5t49 -10q35 -2 68.5 12.5t57.5 49.5q18 28 26 62.5t2 64t-28 49.5t-64 21q-21 0 -39 -7.5t-32 -21
t-23 -31.5t-12 -39q-3 -13 1 -27l-15 -2q-2 8 -2.5 15.5t1.5 15.5q3 24 13.5 44t27.5 35t38.5 23.5t45.5 8.5q47 -2 72.5 -25t33 -56t-2 -71t-31.5 -69q-15 -20 -34.5 -36t-45.5 -25q-13 -5 -31 -8.5t-32 -3.5z" />
    <glyph glyph-name="afii10025" unicode="&#x417;" horiz-adv-x="527" 
d="M427 410q21 39 18.5 76.5t-28.5 66t-81 34.5q-22 1 -46.5 -4.5t-46 -18t-37 -31t-19.5 -43.5q-4 -22 12 -38l-11 -11q-13 11 -16 30l-22 98l15 5l8 -33q30 34 75.5 50t89.5 13q45 -3 77.5 -22t51 -46.5t22 -60.5t-11 -63t-48.5 -55q-14 -10 -31 -18q18 -9 31 -19
q31 -24 47 -55t19 -66.5t-3 -69.5q-7 -46 -34.5 -81.5t-66 -59.5t-83.5 -35t-87 -8q-31 3 -60 12.5t-53.5 26.5t-43 40.5t-28.5 53.5l-22 -39l-13 7l84 150l13 -6q-8 -14 -14 -28.5t-8 -29.5q-6 -36 4 -66t31 -53t50 -36.5t62 -16.5q39 -3 75 10t65.5 36.5t50 56t30 69
t5.5 74t-25 72.5q-20 33 -51 51q-15 -4 -31 -7q-17 -5 -30 -7t-30 0q-3 0 -7.5 0.5t-9.5 1.5q-12 6 -15 14.5t0.5 16t12.5 13t22 4.5q17 -1 33 -3.5t30 -5.5q12 -3 24 -7q36 24 55 61zM262 342q0 -7 19 -14q25 -3 47 2q13 4 25 9l-10 4q-27 8 -62 10q-8 -1 -13 -4.5t-6 -6.5
z" />
    <glyph glyph-name="afii10026" unicode="&#x418;" horiz-adv-x="795" 
d="M434 588q-15 0 -34 -9t-33 -21q8 -2 15.5 -3t15.5 -1q19 0 34 8t15 18q0 8 -13 8zM434 604q12 0 21 -6.5t9 -17.5q0 -17 -18 -29t-48 -12q-24 0 -49 3q-19 -19 -36.5 -44t-34.5 -54q-35 -63 -57.5 -140t-22.5 -151q0 -27 6.5 -59t21.5 -59.5t38.5 -45.5t57.5 -18
q52 0 92.5 26.5t72 66.5t54.5 86.5t41 86.5l157 358h51l-129 -452q-8 -27 -14 -56t-6 -58q0 -10 1.5 -21.5t6 -21.5t13 -16.5t21.5 -6.5q16 0 31.5 12.5t28.5 30.5t22.5 37.5t14.5 32.5l15 -6q-6 -19 -18 -42t-28 -42.5t-36 -32.5t-43 -13q-42 0 -60.5 28t-18.5 66
q0 34 7.5 67.5t17.5 65.5l104 347l-124 -283q-19 -44 -44 -94t-58 -92.5t-76.5 -71t-99.5 -28.5q-43 0 -75 17t-53.5 45.5t-32 65t-10.5 75.5q0 33 8 71t21.5 76.5t32 76.5t40.5 73q18 29 38 54.5t40 45.5q-23 3 -42.5 7l-38.5 8t-38 7t-40 3q-23 0 -45.5 -8.5t-41.5 -23
t-30.5 -34t-11.5 -42.5q0 -32 23.5 -53.5t55.5 -21.5q31 0 54.5 21.5t23.5 53.5h16q0 -19 -7.5 -35.5t-20.5 -29t-30 -19.5t-36 -7t-36 7t-30 19.5t-20.5 29t-7.5 35.5q0 33 16 58.5t40.5 42.5t55 25.5t59.5 8.5q42 0 78 -11.5t74 -22.5q18 15 41 28t46 13z" />
    <glyph glyph-name="afii10027" unicode="&#x419;" horiz-adv-x="795" 
d="M434 588q-15 0 -34 -9t-33 -21q8 -2 15.5 -3t15.5 -1q19 0 34 8t15 18q0 8 -13 8zM434 604q12 0 21 -6.5t9 -17.5q0 -17 -18 -29t-48 -12q-24 0 -49 3q-19 -19 -36.5 -44t-34.5 -54q-35 -63 -57.5 -140t-22.5 -151q0 -27 6.5 -59t21.5 -59.5t38.5 -45.5t57.5 -18
q52 0 92.5 26.5t72 66.5t54.5 86.5t41 86.5l157 358h51l-129 -452q-8 -27 -14 -56t-6 -58q0 -10 1.5 -21.5t6 -21.5t13 -16.5t21.5 -6.5q16 0 31.5 12.5t28.5 30.5t22.5 37.5t14.5 32.5l15 -6q-6 -19 -18 -42t-28 -42.5t-36 -32.5t-43 -13q-42 0 -60.5 28t-18.5 66
q0 34 7.5 67.5t17.5 65.5l104 347l-124 -283q-19 -44 -44 -94t-58 -92.5t-76.5 -71t-99.5 -28.5q-43 0 -75 17t-53.5 45.5t-32 65t-10.5 75.5q0 33 8 71t21.5 76.5t32 76.5t40.5 73q18 29 38 54.5t40 45.5q-23 3 -42.5 7l-38.5 8t-38 7t-40 3q-23 0 -45.5 -8.5t-41.5 -23
t-30.5 -34t-11.5 -42.5q0 -32 23.5 -53.5t55.5 -21.5q31 0 54.5 21.5t23.5 53.5h16q0 -19 -7.5 -35.5t-20.5 -29t-30 -19.5t-36 -7t-36 7t-30 19.5t-20.5 29t-7.5 35.5q0 33 16 58.5t40.5 42.5t55 25.5t59.5 8.5q42 0 78 -11.5t74 -22.5q18 15 41 28t46 13zM717 722
q-10 -22 -26 -38.5t-36.5 -26.5t-44 -11.5t-47.5 8.5q-16 6 -23 21.5t-1 31.5q5 14 19 21.5t29 1.5q14 -6 19 -20.5t0 -28.5q-6 -14 -15 -20q36 -4 65.5 13.5t44.5 47.5h16z" />
    <glyph glyph-name="afii10028" unicode="&#x41a;" horiz-adv-x="883" 
d="M405 288h-11q-8 0 -18.5 -3t-10.5 -12q0 -8 9 -13t20 -8zM451 252l20 6q-4 3 -7.5 6t-7.5 5zM1043 -234q-98 0 -169.5 34t-128.5 91.5t-105.5 132.5l-101.5 158q-14 20 -26.5 35t-25.5 27q-20 -6 -40 -9q-16 -52 -44.5 -105.5t-68.5 -96.5t-91 -70.5t-111 -27.5
q-23 0 -46 7t-42 20t-31 32.5t-12 44.5q0 31 20 55.5t52 24.5q18 0 34 -11l-9 -12q-11 8 -25 8q-26 0 -41.5 -20.5t-15.5 -44.5q0 -20 10 -36.5t26 -28t35.5 -17.5t37.5 -6q41 0 80 20.5t67 48.5q33 32 60.5 76.5t44.5 98.5l13 42q-15 4 -28 12.5t-13 23.5q0 17 15.5 24
t29.5 7q5 0 9 -0.5t9 -0.5q13 36 30 75t37 75q17 32 36.5 58.5t41.5 45.5q-17 -6 -35.5 -10.5t-43.5 -4.5q-42 0 -81.5 9t-80.5 9q-38 0 -75.5 -10.5t-67 -32t-48 -53.5t-18.5 -75q0 -47 31.5 -78t78.5 -31q21 0 42 7t38 21l10 -11q-18 -17 -42.5 -27t-49.5 -10q-26 0 -49 9
t-40.5 24.5t-28 37.5t-10.5 49q0 54 25 94t64.5 67t88 40.5t95.5 13.5q26 0 52.5 -4t51.5 -9l37 -5.5t31 -2.5q20 0 38 5t37 12l6 -14q-25 -14 -45.5 -40.5t-37.5 -61.5q-22 -45 -37.5 -92.5t-29.5 -95.5q8 -4 15.5 -8.5l15.5 -9.5q22 12 41.5 28t36.5 33l52 54l73.5 74.5
t81 68t90.5 49.5t103 19q14 0 31.5 -4t32.5 -12t25 -20.5t10 -29.5q0 -12 -6 -22l-13 7q3 7 3 15q0 13 -9 22.5t-22 15.5t-27.5 9t-24.5 3q-37 0 -69.5 -14t-61.5 -35t-55 -47l-50 -50l-50.5 -50t-54.5 -50t-57.5 -44.5t-60.5 -34.5q42 -34 77 -76.5l70 -84.5l83 -100.5
t92.5 -96t103 -72t114.5 -28.5q23 0 45.5 7.5t40.5 22t29 34t11 43.5q0 32 -20 56.5t-53 24.5q-5 0 -15 -2l-4 15q5 1 9.5 1.5t9.5 0.5q19 0 35.5 -8t28 -21.5t18 -30.5t6.5 -36q0 -28 -11 -53t-30.5 -43.5t-47 -29.5t-61.5 -11z" />
    <glyph glyph-name="afii10029" unicode="&#x41b;" horiz-adv-x="815" 
d="M708 568q-13 -2 -33.5 -3.5t-31.5 -1.5q-17 0 -32 1l-31 2l-32.5 2t-32.5 1q-33 0 -68 -8t-63 -25t-46.5 -43.5t-18.5 -63.5q0 -23 9 -42t24.5 -33.5t36.5 -22.5t45 -8q23 0 44.5 6t41.5 21l11 -12q-26 -21 -54 -29.5t-55 -8.5q-57 1 -89 36.5t-31 87.5q1 49 23.5 83.5
t58 56.5t79.5 31.5t89 8.5q35 0 68.5 -6t68.5 -6q22 -2 43 3h51l-129 -452q-8 -27 -14 -56t-6 -58q0 -10 1.5 -21.5t6 -21.5t13 -16.5t21.5 -6.5q16 0 31.5 12.5t28.5 30.5t22.5 37.5t14.5 32.5l15 -6q-6 -19 -18 -42t-28 -42.5t-36 -32.5t-43 -13q-42 0 -60.5 28t-18.5 66
q0 34 7.5 67.5t17.5 65.5l108 382l-146 -293q-20 -41 -41.5 -78.5t-45.5 -69.5q17 -35 17 -80q-1 -63 -41.5 -109t-107.5 -66l-4 15q59 20 92 61t34 97q0 27 -9 56q-24 -31 -52.5 -58.5t-62 -48.5t-71.5 -32.5t-82 -11.5q-32 1 -65 11t-60 28.5t-43.5 45.5t-15.5 61
q0 42 22 73t55.5 51.5t74.5 30.5t79 10q35 0 69.5 -7.5t65 -22t55 -36.5t41.5 -52q23 30 42.5 65l39.5 74zM460 100q-29 60 -88 92t-130 33q-33 0 -68 -8.5t-64.5 -26t-48.5 -44t-19 -62.5q0 -30 12.5 -55.5t34 -43.5t50 -28t58.5 -11q43 0 80.5 12.5t70 34t60.5 49.5t52 58
z" />
    <glyph glyph-name="afii10030" unicode="&#x41c;" horiz-adv-x="1054" 
d="M412 91q-27 59 -82.5 89.5t-120.5 30.5q-30 0 -62.5 -9t-59 -26.5t-43.5 -44t-17 -61.5q0 -30 12 -54.5t32.5 -42t46.5 -27t54 -9.5q40 0 74.5 12.5t64 34t55 49.5t46.5 58zM513 246q-36 -83 -78 -147q8 -17 12.5 -36.5t4.5 -41.5q0 -61 -37 -107t-98 -66l-5 15
q54 20 84.5 60.5t30.5 94.5q0 15 -2.5 28.5t-6.5 27.5q-22 -31 -48 -58.5t-56.5 -48.5t-66 -33t-75.5 -12q-30 0 -60.5 9.5t-55.5 27.5t-40.5 44t-15.5 60q0 40 19.5 71t50.5 51.5t68.5 31t72.5 10.5q33 0 64.5 -6.5t60 -20.5t52 -35t39.5 -50q20 30 37.5 64.5t34.5 72.5
l133 298q-12 -2 -23.5 -2h-22.5q-14 0 -28.5 0.5t-29.5 1.5t-29.5 1.5t-29.5 0.5q-31 0 -63 -8.5t-57.5 -25.5t-42 -43.5t-16.5 -62.5q0 -23 8.5 -42t23.5 -32.5t34.5 -21t41.5 -7.5q20 0 40 6.5t38 21.5l10 -12q-23 -20 -48.5 -29t-50.5 -9q-53 0 -83 34.5t-30 85.5
q0 48 20 82t52.5 56t73.5 32t82 10q32 0 63.5 -5.5t63.5 -5.5q10 0 20 1t20 3l26 -522l69 128.5t76 133.5t84 125.5t92 104.5q17 16 32 27.5t29 16.5l7 -13q-10 -7 -16 -18q-4 -6 -6 -13t-4 -17l-112 -533q-2 -12 -4.5 -24.5t-2.5 -24.5q0 -19 8 -32t28 -13q13 0 24.5 6
t20.5 16t15 21.5t9 23.5l15 -3q-4 -18 -15 -35t-26 -30.5t-33 -21.5t-37 -8q-26 0 -41.5 21t-15.5 49q0 11 2 23l4 23l106 511q-31 -33 -65 -79.5t-68 -100.5l-62.5 -102l-57 -101l-48 -92.5l-36.5 -76.5h-17l-25 546z" />
    <glyph glyph-name="afii10031" unicode="&#x41d;" horiz-adv-x="806" 
d="M118 -60q-33 0 -59.5 20.5t-26.5 55.5q0 20 9.5 35.5t25.5 26.5l9 -13q-11 -8 -18.5 -19.5t-7.5 -25.5q0 -29 21 -46.5t48 -17.5q44 0 75 28t52 68.5t34.5 85.5t21.5 78q14 57 29.5 112t42.5 108q18 35 39 61.5t48 54.5q-20 -5 -38 -5q-22 0 -44 3.5t-44 8t-44.5 8.5
t-46.5 4q-23 0 -46 -6.5t-41 -20t-29.5 -33t-11.5 -44.5q0 -33 22 -58t56 -25q27 0 49.5 16t30.5 42l15 -5q-9 -31 -36 -50t-59 -19q-42 0 -70 28.5t-28 70.5q0 32 16 55.5t41 39.5t55 23.5t57 7.5q23 0 46 -3.5t46 -8t46.5 -8t47.5 -3.5q15 0 28.5 4t26.5 11l8 -13
q-29 -17 -48.5 -39t-33.5 -53q-20 -44 -32.5 -90.5t-23.5 -93.5h339l73 224q2 10 2 17q0 11 -7 19t-20 8h-33l5 16h191l-5 -16h-20q-30 0 -46 -11t-24 -37l-70 -217l-82 -254q-6 -19 -11 -40t-5 -41q0 -31 15.5 -52.5t49.5 -21.5q17 0 32 9.5t28 23t22.5 29.5t14.5 30l14 -5
q-18 -47 -51.5 -78.5t-82.5 -31.5q-18 0 -34 7.5t-27 20t-17.5 28.5t-6.5 33q0 23 4 46.5t11 46.5l73 227h-337q-15 -60 -34 -118.5t-53 -111.5q-35 -56 -77 -81t-89 -25z" />
    <glyph glyph-name="afii10032" unicode="&#x41e;" horiz-adv-x="789" 
d="M400 580q-62 0 -119 -21t-100.5 -59t-69 -91.5t-25.5 -117.5q0 -77 22.5 -137.5t64 -103t99.5 -65t130 -22.5q63 0 118 20.5t96 58.5t65 91.5t24 119.5q0 72 -22 132t-61.5 103.5t-96 67.5t-125.5 24zM407 598q69 0 132.5 -22t112 -63.5t77 -100.5t28.5 -132
q0 -75 -30 -137t-80 -106t-114.5 -68.5t-134.5 -24.5q-71 0 -137 24t-117 67.5t-81.5 105.5t-30.5 137q0 72 30.5 131t82.5 101t119.5 65t142.5 23z" />
    <glyph glyph-name="afii10033" unicode="&#x41f;" horiz-adv-x="798" 
d="M403 180q13 42 27 83t32.5 78.5t44 70.5t62.5 59q19 16 36.5 24.5t26.5 14.5l8 -18q-44 -19 -73 -51t-48.5 -71t-32 -82l-23.5 -84q-15 -51 -42.5 -99.5t-66 -86t-87.5 -60t-108 -22.5q-18 0 -37.5 5.5t-35.5 16.5t-26.5 27t-10.5 37q0 15 8 33l14 -8q-6 -11 -6 -25
q0 -17 9 -30t23 -21.5t30.5 -13t31.5 -4.5q51 0 89.5 18.5t67 50t49 72.5t35.5 85zM688 450h51l-93 -290q-8 -26 -14 -53.5t-6 -55.5q0 -9 1.5 -20t6 -21t13 -16t21.5 -6q15 0 30.5 12t28.5 29t22 36t14 31l15 -6q-6 -18 -18 -40t-27.5 -40.5t-35.5 -31t-42 -12.5
q-42 0 -60 27t-18 63q0 32 7.5 64t17.5 63zM6 341q0 60 27.5 107.5t71.5 81t99 52.5t110 23q38 3 101 0.5t138 -12.5q19 -3 49 -9.5t66 -11.5t74 -8.5t72 -0.5q15 0 34 5.5t32 12.5l8 -13q-32 -20 -78 -26.5t-95.5 -6t-98 6t-84.5 10.5h4q-68 11 -125 19t-108 6
q-53 -3 -101 -16.5t-85 -40.5t-59 -68t-22 -98q0 -44 14.5 -81.5t40 -64.5t60 -42.5t73.5 -15.5q25 0 51 10.5t47 29.5t34 44t13 55q0 29 -12 53l13 7q6 -15 9.5 -29.5t3.5 -30.5q0 -38 -16 -67t-41 -49t-55.5 -30.5t-60.5 -10.5q-39 0 -75.5 15.5t-64.5 43.5t-45 66.5
t-17 83.5h-2z" />
    <glyph glyph-name="afii10034" unicode="&#x420;" horiz-adv-x="751" 
d="M519 575q-12 -17 -19 -35.5t-12 -38.5l-90 -317q-8 -30 -20.5 -65.5t-29 -71t-37.5 -68t-47.5 -58t-59 -40.5t-71.5 -15q-21 0 -40.5 6.5t-35 18.5t-24.5 29.5t-9 40.5q0 30 19 51t48 29l3 -15q-23 -6 -39 -23t-16 -42q0 -20 8 -34.5t21.5 -24.5t30 -15t34.5 -5
q45 0 77 25.5t54.5 63t37 80t24.5 77.5l107 358q8 24 17.5 47.5t23.5 45.5h-8q-64 0 -125.5 -20t-109.5 -55q-44 -33 -70 -77t-26 -95q0 -24 6.5 -45.5t20 -38t32.5 -26t45 -9.5q15 0 30 5.5t28 13.5l8 -14q-14 -9 -31.5 -14.5t-34.5 -5.5q-30 0 -54.5 10.5t-42 29
t-27.5 43.5t-10 54q0 52 30 99t80 82q52 38 117.5 59.5t132.5 21.5q63 0 110 -13.5t79 -36.5q38 -27 56.5 -63.5t18.5 -75.5q0 -45 -20 -82.5t-53 -64t-74.5 -41t-83.5 -14.5q-15 0 -30 2.5t-29 6.5l3 15q11 -2 23 -3.5t24 -1.5q37 0 71.5 12t61.5 34.5t43 54.5t16 71
q0 36 -12.5 66t-34.5 52.5t-51.5 38t-63.5 21.5z" />
    <glyph glyph-name="afii10035" unicode="&#x421;" horiz-adv-x="654" 
d="M604 372q5 12 9.5 24.5t4.5 26.5q0 40 -23 70.5t-57 51.5t-74 31.5t-73 10.5q-75 0 -133.5 -28.5t-98 -75t-60.5 -106t-21 -120.5q0 -58 19 -114.5t55.5 -101.5t90 -72.5t122.5 -27.5q41 0 82.5 14t74.5 39t54 60t21 78q0 17 -6.5 36.5t-18.5 32.5l9 12q17 -11 31 -35
t14 -46q0 -50 -23.5 -88.5t-61.5 -65t-85 -40.5t-94 -14q-83 0 -146.5 29.5t-106 77t-64 108t-21.5 122.5q0 64 24 125.5t70.5 110t115 78.5t157.5 30q36 0 74 -8.5t72.5 -25.5t62.5 -41.5t46 -56.5l15 38h17l-56 -139h-18z" />
    <glyph glyph-name="afii10036" unicode="&#x422;" horiz-adv-x="907" 
d="M415 180q13 42 27 83t32.5 78.5t44 70.5t62.5 59q19 16 36.5 24.5t26.5 14.5l8 -18q-51 -20 -80.5 -52t-47.5 -70.5t-28 -81.5t-21 -84q-15 -51 -42.5 -99.5t-66 -86t-87.5 -60t-108 -22.5q-18 0 -37.5 5.5t-35.5 16.5t-26.5 27t-10.5 37q0 15 8 33l14 -8q-6 -11 -6 -25
q0 -17 9 -30t23 -21.5t30.5 -13t31.5 -4.5q51 0 89.5 18.5t67 50t49 72.5t35.5 85zM797 452h49l-93 -290q-8 -26 -14 -53.5t-6 -55.5q0 -9 1.5 -20t6 -21t13 -16t21.5 -6q15 0 30.5 12t28.5 29t22 36t14 31l15 -6q-6 -18 -18 -40t-27.5 -40.5t-35.5 -31t-42 -12.5
q-42 0 -60 27t-18 63q0 32 7.5 64t19.5 63zM563 178q11 42 23 80.5t32 76.5q7 12 17.5 27t24 29.5t28.5 27.5t31 22l7 -10q-23 -12 -37.5 -27.5t-25.5 -37.5q-16 -32 -25.5 -64.5t-17.5 -66.5q-11 -42 -23 -80.5t-32 -76.5q-7 -12 -17.5 -27t-24 -29.5t-28.5 -27.5t-31 -22
l-7 10q23 12 37.5 27.5t25.5 37.5q16 32 25.5 64.5t17.5 66.5zM609 542q-47 6 -89.5 12.5l-80.5 12.5t-73 9t-67 2q-53 -3 -101 -16.5t-85 -40.5t-59 -68t-22 -98q0 -42 15.5 -78.5t42.5 -63t63.5 -41.5t78.5 -15q27 0 54.5 10.5t50 28.5t36.5 42.5t14 53.5t-13 51l14 7
q14 -30 14 -58q0 -36 -17 -64.5t-43.5 -48t-59.5 -29.5t-64 -10q-42 0 -81 15t-69 42t-48 64t-18 81q0 60 27.5 107t71.5 80t99 52t110 25q79 8 153.5 -3t145 -25t138 -24.5t133.5 -1.5q15 0 34 5.5t32 12.5l8 -13q-32 -20 -76 -26.5t-92 -5.5t-94.5 6.5t-82.5 10.5z" />
    <glyph glyph-name="afii10037" unicode="&#x423;" horiz-adv-x="824" 
d="M467 -16q15 3 34 4.5t35 1.5q43 0 74.5 -10.5t52.5 -27t31.5 -37t10.5 -41.5q0 -37 -24.5 -63.5t-72.5 -26.5q-30 0 -53 20l10 12q20 -17 43 -17q37 0 54.5 18t17.5 43q0 18 -9.5 38t-28 36.5t-45.5 27t-62 10.5q-18 0 -40.5 -1.5t-32.5 -5.5q-16 -49 -38 -99.5
t-52.5 -92t-69 -68t-87.5 -26.5q-22 0 -39 17t-17 45q0 43 24 80t61.5 65.5t83.5 49t90 31.5q10 28 21.5 70l24.5 87l14 53q-17 -16 -39 -28q-29 -15 -59.5 -22t-60 -3.5t-50 20.5t-29 49.5t1.5 84.5q4 25 15 57.5l22 66.5t18 67t3.5 58.5t-21.5 40.5t-57 14
q-29 -1 -57.5 -11t-52.5 -27.5t-41 -42.5t-23 -56q-8 -42 14 -70t64 -28q14 0 28.5 2.5t27.5 10.5l6 -13q-16 -10 -33 -14t-34 -4q-24 0 -45 8t-36 22.5t-22 35t-2 46.5q6 38 30 68t56.5 50.5t70 30.5t70.5 8q38 -2 60 -19.5t30 -48.5t3 -75t-20 -98q-8 -29 -15 -66
t-6.5 -70t13 -56.5t42.5 -23.5q21 0 44 6t42.5 16.5t33 23t15.5 24.5q1 3 1 0q1 -2 1 -5l3 10q13 46 27 82q17 49 41.5 101t55 95.5t66.5 73t75 34.5q36 5 63.5 -7.5t32.5 -48.5q2 -14 -4 -26.5t-17 -22.5l-10 12q8 7 12 15t3 19q-3 23 -23 36.5t-45 8.5q-38 -8 -71.5 -33.5
t-62 -64t-51 -85.5t-37.5 -98q-13 -42 -23 -86l-19 -86.5l-18 -81t-18 -69.5zM178 -262q0 -19 13.5 -30.5t27.5 -11.5q38 0 68.5 24.5t54.5 62t41.5 81.5t30.5 84q-39 -12 -81 -30t-76.5 -43.5t-56.5 -59.5t-22 -77z" />
    <glyph glyph-name="afii10038" unicode="&#x424;" horiz-adv-x="717" 
d="M445 447q57 -2 97.5 -15.5t68.5 -34.5q38 -27 53 -64t12 -75q-3 -45 -26 -82.5t-57.5 -64t-77 -41t-84.5 -14.5q-15 0 -30 2.5t-29 6.5l4 10q12 -2 24 -3.5t23 -1.5q37 0 72.5 13t64 36t46.5 56t21 72q3 40 -9.5 72t-35.5 55t-54.5 38t-66.5 20q-10 2 -15 2h-2h-2
q-1 0 -1.5 0.5t-1.5 0.5q-8 -26 -15.5 -55l-15.5 -61q-2 -10 -6.5 -27.5l-9.5 -36l-10 -36l-8 -27.5q-11 -43 -28 -96t-45.5 -99t-70 -77t-100.5 -31q-33 0 -59.5 21t-26.5 56q0 19 9.5 35t25.5 26l9 -12q-11 -8 -18.5 -19.5t-7.5 -25.5q0 -28 20.5 -46.5t47.5 -18.5
q31 0 55.5 15t43.5 39t33 54t25 61q9 26 15.5 49t11.5 43l32 120q10 40 25.5 78t35.5 73q-37 1 -73.5 -2t-70 -12t-63 -23.5t-52.5 -36.5t-38 -55t-20 -71q-6 -48 7.5 -79t40 -49t63 -26t77.5 -10q5 -1 0.5 -6.5t-15.5 -3.5q-50 -2 -93.5 8.5t-75 33.5t-48 58t-11.5 83
q7 69 46 111.5t94 64.5t119 27t120 1q37 61 86 112q-33 -11 -67 -13.5t-64.5 0t-55 7.5t-36.5 8q-20 5 -40.5 12.5t-41.5 7.5q-35 0 -64 -12.5t-46 -37.5q-8 -15 -5.5 -30t12.5 -26.5t25 -18.5t32 -7q28 0 50.5 16t30.5 42l12 -2q-11 -35 -37.5 -51t-56.5 -17q-23 -1 -43 9
t-31.5 26.5t-10.5 39t22 47.5q24 23 59 33.5t72 11.5q48 1 84.5 -7l70 -16t68.5 -11t82 8v-1l13 10t15 9l4 -14q-15 -9 -31.5 -23t-31.5 -31.5t-27.5 -38.5t-19.5 -45h2z" />
    <glyph glyph-name="afii10039" unicode="&#x425;" horiz-adv-x="772" 
d="M487 361l58 79t66.5 75.5t76.5 56.5t87 22q53 0 97 -33l-9 -13q-18 12 -38 19t-42 7q-46 0 -87 -23.5t-78 -59t-69 -78l-59 -80.5l-18 -26l45 -163q6 -23 16.5 -55.5t27 -62.5t39.5 -51t54 -21q34 0 58.5 20.5t41.5 50.5l14 -8q-18 -32 -47.5 -55.5t-74.5 -23.5
q-39 0 -68 15.5t-50 40.5t-35 57t-23 65l-38 134l-26 -36l-65.5 -89.5t-75.5 -88.5t-83 -68t-86 -27q-18 0 -35.5 6t-31 17.5t-21.5 27t-8 35.5q0 25 14.5 44t35.5 30l7 -14q-17 -8 -29.5 -24t-12.5 -36q0 -16 7.5 -28.5t19.5 -20.5t26.5 -12.5t28.5 -4.5q40 0 80.5 27
t79.5 68t74.5 89l65.5 90l28 39l-28 102q-10 34 -24 69.5t-35 65t-51 48t-72 18.5q-30 0 -57 -12t-47 -35l-12 9q22 29 55 44t69 15q50 0 88.5 -20.5t66.5 -53.5t47 -75t31 -85l9 -34z" />
    </font>
</defs>
</svg>
